<?xml version="1.0" encoding="utf-8"?>
<!-- Generator: Adobe Illustrator 16.0.0, SVG Export Plug-In . SVG Version: 6.00 Build 0)  -->
<svg version="1.2" baseProfile="tiny" id="Ebene_1" xmlns="http://www.w3.org/2000/svg" xmlns:xlink="http://www.w3.org/1999/xlink"
	 x="0px" y="0px" width="800px" height="540px" viewBox="0 0 800 540" xml:space="preserve">
<g>
	<path fill-rule="evenodd" d="M511.97,275.318c4.013-2.077,7.862,0.117,11.879-0.083c-0.745-0.304-1.468-0.715-2.242-0.892
		c-14.933-3.393-29.868-6.768-44.811-10.11c-0.924-0.207-1.912-0.129-2.87-0.183c-0.019,0.186-0.038,0.372-0.058,0.559
		c4.596,1.347,9.146,2.875,13.797,3.995c6.69,1.612,13.434,3.034,20.198,4.304C509.671,273.246,511.234,273.467,511.97,275.318z"/>
	<path fill-rule="evenodd" d="M517.2,192.669c-0.622,0.404-1.238,1.339-1.259,2.051c-0.094,3.306-0.033,6.619,0.072,9.927
		c0.103,3.237,0.373,6.469,0.469,9.706c0.041,1.407-0.245,2.82-0.262,4.232c-0.021,2.008,0.538,2.504,2.584,2.327
		c4.043-0.351,8.081-0.97,12.129-1.073c4.274-0.109,5.461-2.62,5.258-5.982c-0.313-1.878-0.513-3.782-0.958-5.627
		c-2.082-8.608-6.961-15.505-13.296-21.496c-1.032-0.977-1.77-0.674-2.266,0.461c-0.267,0.603-0.358,1.3-0.426,1.965
		C519.097,190.653,518.531,191.799,517.2,192.669z"/>
	<path fill-rule="evenodd" d="M553.127,239.341c-0.175-4.609-0.208-9.234-0.649-13.82c-0.464-4.845-1.131-5.195-5.863-4.447
		c-0.713,0.111-1.42,0.238-2.324,0.392c2.601,6.972,4.006,14.218,8.653,20.244C553.007,240.919,553.157,240.126,553.127,239.341z"/>
	<path fill-rule="evenodd" d="M521.043,256.425c-0.875,3.557-1.603,7.148-2.427,10.938c6.094,0.794,11.87,1.602,17.664,2.268
		c1.853,0.214,2.96-0.682,3.147-2.609c0.452-4.705,0.708-9.428,1.064-14.399c-6.326,0.267-12.262,0.712-18.035,2.357
		C521.881,255.143,521.186,255.848,521.043,256.425z"/>
	<path fill-rule="evenodd" d="M534.666,226.843c-0.194,1.709-0.409,3.418-0.689,5.114c-0.78,4.71-1.598,9.413-2.438,14.353
		c5.559,3.008,11.793,4.296,18.37,4.112c3.343-0.092,3.896-0.935,2.64-4.099c-2.696-6.79-5.388-13.584-8.038-20.393
		c-1.855-4.766-1.801-4.709-6.59-3.067C535.907,223.554,534.9,224.801,534.666,226.843z"/>
	<path fill-rule="evenodd" d="M519.029,183.593c-0.963-5.938-2.71-11.435-5.286-16.836c-3.173,1.886-6.237,3.589-9.181,5.479
		c-11.346,7.277-22.762,14.453-33.94,21.98c-8.216,5.531-16.115,11.532-24.121,17.371c-1.199,0.875-2.209,2.01-3.307,3.024
		c0.096,0.135,0.191,0.269,0.288,0.404C468.119,203.288,493.082,192.347,519.029,183.593z"/>
	<path fill-rule="evenodd" d="M481.834,157.82c-13.423,11.654-26.848,23.309-40.254,34.983c-1.759,1.532-3.496,3.108-5.07,4.823
		c-0.434,0.471-0.238,1.516-0.333,2.298c0.731-0.021,1.589,0.199,2.176-0.104c2.677-1.378,5.371-2.761,7.89-4.401
		c9.993-6.513,19.92-13.126,29.876-19.697c4.921-3.249,9.85-6.486,14.954-9.849c-1.854-2.623-3.604-5.131-5.389-7.614
		C484.31,156.346,483.617,156.271,481.834,157.82z"/>
	<path fill-rule="evenodd" d="M493.373,149.701c-0.131-0.439-0.866-1.019-1.294-0.996c-1.74,0.091-4.665,3.59-4.683,5.875
		c0.63,2.438,1.579,5.237,3.607,7.448c0.57,0.621,1.992,1.088,2.706,0.811c1.341-0.523,2.679-1.688,2.31-3.367
		C495.298,156.179,494.338,152.935,493.373,149.701z"/>
	<path fill-rule="evenodd" d="M424.882,213.71c1.264-0.683,2.203-1.108,3.057-1.664c13.502-8.791,27.033-17.538,40.456-26.445
		c3.242-2.151,6.121-4.847,9.169-7.291c-0.147-0.159-0.293-0.318-0.44-0.478C469.332,181.168,428.372,209.161,424.882,213.71z"/>
	<path fill-rule="evenodd" d="M456.575,228.352c-1.06-3.933-1.941-7.556-3.034-11.11c-0.569-1.854-1.458-2.053-3.022-0.895
		c-4.773,3.536-7.662,8.608-11.245,13.722C445.32,229.468,450.883,228.916,456.575,228.352z"/>
	<path fill-rule="evenodd" d="M429.496,324.721c0.363,0.343,1.275,0.361,1.838,0.199c5.7-1.65,11.113-3.954,16.049-7.296
		c3.923-2.658,7.441-5.755,10.525-9.549c-3.04-2.525-5.951-4.941-8.925-7.412c-7.477,7.886-17.159,12.06-26.367,17.202
		C424.973,320.24,427.18,322.538,429.496,324.721z"/>
	<path fill-rule="evenodd" d="M495.409,146.151c-0.166,0.545-0.619,1.238-0.506,1.822c0.274,1.417,0.723,2.82,1.26,4.166
		c0.894,2.239,1.91,4.429,3.009,6.942c1.658-1.158,3.602-2.515,5.399-3.771C501.47,152.208,498.521,149.263,495.409,146.151z"/>
	<path fill-rule="evenodd" d="M418.752,316.657c-4.482-8.054-8.835-15.874-13.272-23.853c-0.704,0.268-1.615,0.602-2.518,0.959
		c-2.906,1.146-2.907,1.149-2.369,4.13c0.165,0.909,0.3,1.827,0.552,2.714c1.866,6.563,3.753,13.121,5.649,19.676
		c0.379,1.314,1.396,1.591,2.478,1.076C412.532,319.813,415.742,318.158,418.752,316.657z"/>
	<path fill-rule="evenodd" d="M423.062,314.433c9.477-2.977,17.348-8.569,24.831-15.238c-2.992-2.014-5.897-3.846-8.664-5.87
		c-1.989-1.455-2.869-1.618-4.971-0.298c-3.329,2.094-6.669,4.171-10.008,6.252c-3.268,2.036-6.539,4.067-9.901,6.158
		c1.55,2.581,3.001,4.998,4.451,7.414C420.021,314.887,420.807,315.14,423.062,314.433z"/>
	<path fill-rule="evenodd" d="M489.485,295.871c0.699-7.331,2.623-14.37,4.935-21.333c0.585-1.762-0.092-2.608-2.112-3.146
		c-3.564-0.95-7.136-1.871-10.707-2.794c-1.586-0.411-3.179-0.8-4.729-1.19c-2.707,4.745-5.323,9.332-7.941,13.916
		c-0.133-0.069-0.267-0.14-0.399-0.211c2.106-4.606,4.213-9.215,6.372-13.939c-3.255-0.724-6.304-1.403-9.579-2.135
		c-0.069,0.637-0.134,1.056-0.159,1.478c-0.322,5.191,0.399,10.458-1.25,15.559c-0.441,1.365,0.534,2.244,1.582,3.039
		c7.116,5.399,15.568,8.012,23.649,11.545C489.3,296.309,489.462,296.096,489.485,295.871z"/>
	<path fill-rule="evenodd" d="M407.974,334.126c-3.912,0.793-7.835,1.539-11.736,2.38c-0.668,0.144-1.253,0.663-1.876,1.011
		c0.522,0.893,0.872,2,1.624,2.605c0.558,0.448,1.643,0.327,2.492,0.314c1.844-0.026,3.684-0.185,5.526-0.217
		c2.32-0.04,4.644-0.009,7.224-0.009c-0.137-1.563-0.184-2.856-0.376-4.127C410.547,334.068,409.96,333.722,407.974,334.126z"/>
	<path fill-rule="evenodd" d="M407.544,327.45c-0.359-1.454-1.314-1.865-2.634-1.478c-4.013,1.182-7.714,3.467-12.388,3.062
		c0.666,2.263,1.229,4.175,1.849,6.28c4.252-0.854,8.336-1.686,12.426-2.493c1.474-0.29,2.196-0.948,1.573-2.55
		C408.015,329.361,407.779,328.401,407.544,327.45z"/>
	<path fill-rule="evenodd" d="M447.971,320.008c-0.759,0.217-1.045,0.278-1.316,0.38c-2.902,1.093-5.569,2.671-8.317,4.034
		c-4.016,1.994-4.477,5.438-5.81,9.056C439.927,331.478,443.508,325.652,447.971,320.008z"/>
	<path fill-rule="evenodd" d="M438.19,349.588c0.267,1.549,1.071,1.748,2.46,1.568c3.833-0.497,6.919-2.408,9.777-4.835
		c2.813-2.388,5.653-4.744,8.479-7.121c4.506-3.792,8.439-8.089,11.331-13.251c0.929-1.655,1.751-3.414,1.016-5.82
		c-0.672,0.587-1.179,1.002-1.652,1.449c-5.3,5.005-11.016,9.448-17.39,13.022c-4.559,2.556-9.072,5.199-13.657,7.713
		c-1.648,0.902-2.187,1.98-1.448,3.754C437.577,347.197,437.983,348.386,438.19,349.588z"/>
	<path fill-rule="evenodd" d="M476.249,316.613c-8.075-6.063-16.172-12.144-24.269-18.223c-0.177,0.19-0.354,0.379-0.532,0.568
		c0.736,0.803,1.402,1.687,2.217,2.398c6.3,5.503,12.638,10.961,18.941,16.457C474.226,319.226,474.948,319.05,476.249,316.613z"/>
	<path fill-rule="evenodd" d="M437.57,340.709c2.319-1.108,4.655-2.184,6.958-3.321c1.537-0.758,3.087-1.515,4.534-2.426
		c3.164-1.991,6.355-3.959,9.361-6.174c1.79-1.318,3.631-2.859,4.74-4.722c1.032-1.732,2.08-3.266,3.663-4.479
		c0.67-0.515,1.262-1.132,2.031-1.832c-3.267-2.729-6.406-5.349-9.583-8.002c-0.98,1.3-1.833,2.493-2.748,3.635
		c-3.499,4.363-7.12,8.63-10.492,13.088c-2.444,3.229-5.183,6.036-8.608,8.214c-3.118,1.984-3.375,3.402-1.459,6.854
		C436.5,341.267,437.026,340.97,437.57,340.709z"/>
	<path fill-rule="evenodd" d="M416.17,39.753c-0.163,2.987-0.322,5.916-0.509,9.324C417.44,46.654,417.574,41.672,416.17,39.753z"/>
	<path fill-rule="evenodd" d="M397.295,195.639c2.658-1.855,5.357-3.655,7.957-5.59c1.219-0.906,2.369-1.976,3.292-3.17
		c0.337-0.435,0.18-1.941-0.17-2.114c-3.489-1.727-7.065-3.277-11.083-5.087c-0.206,5.485-0.399,10.594-0.594,15.702
		C396.897,195.467,397.095,195.553,397.295,195.639z"/>
	<path fill-rule="evenodd" d="M423.092,147.977c3.171,0.262,4.864-0.554,6.123-3.296c2.693-5.865,5.349-11.75,7.949-17.657
		c1.293-2.938,0.618-4.521-2.302-5.864c-0.613-0.283-1.267-0.478-1.892-0.736c-4.084-1.697-8.138-3.475-12.26-5.076
		c-2.677-1.04-5.399-2.074-8.198-2.667c-3.722-0.786-5.787,0.723-6.428,4.458c-1.184,6.907-2.235,13.838-3.33,20.76
		c-0.431,2.714-0.827,5.433-1.259,8.289c1.03,0.11,1.749,0.204,2.473,0.262C410.343,146.959,416.718,147.45,423.092,147.977z"/>
	<path fill-rule="evenodd" d="M388.595,182.828c0.523,3.384,1.231,6.739,1.858,10.107c0.169,0.002,0.337,0.002,0.507,0.002
		c1.363-5.679,2.799-11.343,4.066-17.044c0.826-3.72,1.488-7.481,2.074-11.248c0.379-2.435,0.092-2.759-2.4-2.977
		c-1.578-0.139-3.216-0.149-4.772,0.104c-3.551,0.577-4.062,1.231-3.622,4.791C386.979,171.996,387.759,177.417,388.595,182.828z"/>
	<path fill-rule="evenodd" d="M415.872,163.104c2.763,1.103,3.869,0.725,5.172-1.86c1.077-2.143,2.12-4.304,3.157-6.467
		c0.489-1.022,0.925-2.07,1.428-3.201c-5.247-1.504-10.101-3.552-15.452-3.571c-1.709-0.006-3.429-0.194-5.12-0.446
		c-2.266-0.338-3.558,0.306-3.924,2.508c-0.521,3.139-0.811,6.315-1.149,9.062c3.427,0.523,6.529,0.806,9.527,1.521
		C411.702,161.172,413.758,162.261,415.872,163.104z"/>
	<path fill-rule="evenodd" d="M400.755,163.483c2.854,1.694,5.748,3.324,8.63,4.971c2.056,1.175,4.112,2.347,6.273,3.579
		c0.887-1.534,1.662-2.877,2.51-4.346c-3.875-1.482-7.47-2.858-11.329-4.334c0.789-0.388,1.307-0.64,1.823-0.894
		c-0.036-0.211-0.072-0.422-0.109-0.634c-2.451,0-4.902-0.021-7.351,0.021c-0.427,0.008-0.851,0.293-1.276,0.449
		C400.197,162.701,400.376,163.259,400.755,163.483z"/>
	<path fill-rule="evenodd" d="M401.749,179.3c2.423,0.444,4.875,0.713,7.305,1.102c1.413,0.227,2.727,0.325,3.475-1.252
		c0.756-1.59,0.048-2.713-1.136-3.701c-3.263-2.722-6.51-5.461-9.794-8.156c-0.555-0.456-1.258-0.732-2.281-1.312
		c-0.452,3.03-0.906,5.683-1.233,8.35C397.734,177.162,398.923,178.781,401.749,179.3z"/>
	<path fill-rule="evenodd" d="M378.378,340.891c-1.773-0.902-3.467-1.965-5.193-2.959c0.045-0.093,0.087-0.187,0.132-0.28
		c2.207,0.617,4.416,1.233,6.472,1.81c0-2.978-0.015-5.795,0.004-8.612c0.014-1.932-0.978-2.872-2.827-3.22
		c-2.776-0.521-5.526-1.176-8.293-1.751c-1.592-0.33-3.192-0.617-4.814-0.929c-1.486,5.454-2.91,10.662-4.322,15.871
		c-0.425,1.567-0.151,2.803,1.635,3.305c6.028,1.691,12.052,3.393,18.477,5.204c0.198-2.024,0.325-3.72,0.544-5.402
		C380.389,342.399,379.687,341.554,378.378,340.891z"/>
	<path fill-rule="evenodd" d="M382.816,277.832c-0.368-0.234-1.039-0.519-1.253-0.357c-0.352,0.268-0.636,0.884-0.617,1.339
		c0.058,1.529,0.292,3.05,0.402,4.578c0.128,1.737,0.937,2.854,2.808,3.205C385.936,284.103,385.188,279.349,382.816,277.832z"/>
	<path fill-rule="evenodd" d="M390.768,77.178c-4.389,4.749-5.893,9.637-4.094,13C388.069,85.747,389.42,81.462,390.768,77.178z"/>
	<path fill-rule="evenodd" d="M388.115,290.697c0.278,3.053,0.467,6.112,0.714,9.369c3.516-0.611,6.924-1.203,10.587-1.839
		c-4.498-13.974-8.91-27.684-13.322-41.395c-0.222,0.03-0.442,0.059-0.664,0.089c0,1.71-0.129,3.432,0.022,5.127
		C386.306,271.604,387.239,281.147,388.115,290.697z"/>
	<path fill-rule="evenodd" d="M427.808,151.944c-1.865,4.809-3.663,9.441-5.449,14.044c2.357,1.575,4.48,3.033,6.644,4.43
		c1.709,1.103,2.873,0.796,4.05-0.893c1.788-2.564,3.582-5.127,5.424-7.654c0.731-1.005,0.899-1.702-0.311-2.554
		c-3.07-2.157-6.04-4.458-9.062-6.685C428.74,152.366,428.301,152.203,427.808,151.944z"/>
	<path fill-rule="evenodd" d="M444.767,160.832c1.875,1.665,3.998,1.852,5.648,0.346c1.315-1.199,2.473-2.568,3.732-3.832
		c5.637-5.652,11.266-11.316,16.947-16.925c1.523-1.505,3.31-2.748,4.823-4.264c1.581-1.584,1.341-2.926-0.577-4.189
		c-1.385-0.911-2.816-1.752-4.229-2.623c-2.344-1.446-4.919-2.646-5.817-6.012c-0.493,0.668-0.725,0.953-0.924,1.259
		c-6.782,10.4-13.566,20.801-20.339,31.208C442.74,157.785,442.973,159.237,444.767,160.832z"/>
	<path fill-rule="evenodd" d="M476.656,131.456c1.621,0.979,3.017,0.421,4.313-1.158c2.177-2.654,4.431-5.247,6.703-7.821
		c1.165-1.318,2.438-2.54,3.678-3.821c-3.597-5.508-8.449-9.529-14.295-12.167c-3.431,4.648-6.687,9.181-10.09,13.599
		c-1.084,1.408-0.998,2.414,0.059,3.725C469.668,127.093,473.126,129.326,476.656,131.456z"/>
	<path fill-rule="evenodd" d="M492.09,140.644c0.519,0.266,1.085,0.616,1.392,1.083c0.859,1.316,1.769,1.181,2.696,0.199
		c1.811-1.918,3.545-3.907,5.357-5.821c1.272-1.345,0.703-2.586-0.101-3.826c-1.255-1.934-2.54-3.849-3.814-5.769
		c-1.152-1.736-2.312-3.471-3.64-5.462c-4.221,5.058-8.061,9.658-12.07,14.465C485.441,137.287,488.776,138.946,492.09,140.644z"/>
	<path fill-rule="evenodd" d="M497.011,143.169c-0.261,0.27-0.342,1.109-0.125,1.386c1.97,2.517,3.983,5.002,6.069,7.423
		c0.981,1.137,2.437,1.531,3.687,0.722c2.495-1.613,4.831-3.471,7.32-5.294c-3.358-3.875-6.495-7.492-9.827-11.335
		C501.685,138.493,499.312,140.796,497.011,143.169z"/>
	<path fill-rule="evenodd" d="M425.062,189.919c0.651-0.765,1.324-1.551,1.99-2.343c2.647-3.153,5.13-6.465,7.976-9.426
		c4.015-4.177,6.523-9.034,7.582-14.67c0.13-0.688-0.236-1.466-0.373-2.202c-0.253,0.038-0.506,0.076-0.76,0.115
		c-6.794,7.569-12.437,15.988-17.926,24.513C422.46,187.599,422.972,188.806,425.062,189.919z"/>
	<path fill-rule="evenodd" d="M414.544,69.864c-1.949,0.698-2.778,4.954-1.451,7.376C413.557,74.885,414.021,72.53,414.544,69.864z"
		/>
	<path fill-rule="evenodd" d="M415.477,54.913c-0.232,2.213-0.449,4.292-0.668,6.372C417.267,58.19,417.397,56.476,415.477,54.913z"
		/>
	<path fill-rule="evenodd" d="M411.136,109.096c8.816,3.75,17.394,8.1,26.68,10.688c1.315,0.367,2.113,0.154,2.607-1.152
		c3.473-9.19,7.853-18.053,9.523-27.885c0.684-4.035,2.01-7.961,3.078-12.071c-1.605-0.588-3.145-1.18-4.7-1.715
		c-4.069-1.401-8.08-3.028-12.233-4.099c-4.931-1.27-10.002-1.988-14.987-3.064c-3.724-0.803-4.433-0.359-5.578,3.271
		c-3.207,10.181-5.248,20.615-7.02,31.116C408.038,106.953,408.501,107.976,411.136,109.096z"/>
	<path fill-rule="evenodd" d="M414.01,349.379c-0.771-2.842-1.467-5.417-2.212-8.168c-5.707,0.67-11.286,1.326-17.053,2.004
		c0.35,1.806,0.659,3.402,1.02,5.268C402.086,345.844,407.875,348.327,414.01,349.379z"/>
	<path fill-rule="evenodd" d="M507.746,157.065c4.303-3.068,8.607-6.135,12.911-9.203c-0.163-0.226-0.329-0.45-0.493-0.676
		C515.042,149.133,510.822,152.317,507.746,157.065z"/>
	<path fill-rule="evenodd" d="M381.351,336.662c0.087,2.156,0.851,2.993,3.022,3.163c2.565,0.202,5.145,0.257,7.717,0.346
		c0.373,0.014,0.75-0.135,1.227-0.23c-0.83-4.052-1.626-7.936-2.399-11.711c-2.887,0-5.579-0.092-8.254,0.082
		c-0.505,0.032-1.306,1.102-1.346,1.73C381.176,332.24,381.261,334.457,381.351,336.662z"/>
	<path fill-rule="evenodd" d="M518.934,253.627c-0.975-0.094-1.757-0.147-2.531-0.25c-3.909-0.52-4.701,0.371-5.547,4.554
		c-0.471,2.321-0.459,4.74-0.68,7.281c2.261,0.466,4.524,0.931,6.994,1.439C517.763,262.266,518.335,258.034,518.934,253.627z"/>
	<path fill-rule="evenodd" d="M386.784,300.597c0.108-0.028,0.197-0.13,0.447-0.3c-0.429-2.912-0.867-5.896-1.307-8.879
		c-4.154,0.571-4.259,0.683-4.336,4.403c-0.005,0.244-0.007,0.49-0.011,0.733C381.494,301.452,381.966,301.819,386.784,300.597z"/>
	<path fill-rule="evenodd" d="M528.429,247.099c1.085-1.551,2.418-3.163,2.796-4.93c1.295-6.031,2.22-12.143,3.276-18.181
		c-2.781,0-5.114,0.146-7.418-0.054c-1.401-0.122-2.516-0.409-3.516,1.049c-0.445,0.648-1.705,0.932-2.632,1.025
		c-4.242,0.432-4.296,0.381-4.834,4.519c-0.782,6.032-1.49,12.073-2.275,18.476c3.465,0.129,6.648,0.218,9.826,0.374
		C525.68,249.477,527.312,248.695,528.429,247.099z"/>
	<path fill-rule="evenodd" d="M381.404,323.215c0.046,1.195,0.705,1.909,1.97,2.006c1.96,0.15,3.916,0.338,5.798,0.504
		c0-3.798,0.021-7.42-0.031-11.039c-0.007-0.365-0.383-0.936-0.713-1.051c-2.068-0.72-4.171-1.335-6.497-2.059
		c-0.159,2.765-0.316,5.263-0.442,7.763C381.424,320.63,381.354,321.925,381.404,323.215z"/>
	<path fill-rule="evenodd" d="M375.693,350.138c-0.426-0.049-0.849-0.145-1.276-0.185c-4.772-0.445-9.542-0.9-14.316-1.312
		c-1.904-0.162-2.966,0.927-3.507,2.63c-0.724,2.285-1.38,4.594-2.161,6.858c-0.393,1.142,0.024,1.665,1.01,2.132
		c2.53,1.195,5.191,1.549,7.92,1.208c4.272-0.531,8.543-1.104,12.791-1.799c4.023-0.659,4.01-0.738,3.86-4.87
		C379.86,350.618,379.86,350.62,375.693,350.138z"/>
	<path fill-rule="evenodd" d="M490.746,248.911c-3.001-0.52-6.132-0.242-9.187-0.517c-5.14-0.459-10.255-1.233-15.401-1.562
		c-3.608-0.231-7.164,0.493-10.561,1.746c-0.041,0.216-0.08,0.432-0.119,0.647c1.172,0.616,2.291,1.383,3.526,1.824
		c5.551,1.988,11.06,4.155,16.726,5.753c9.04,2.55,18.191,4.711,27.307,6.991c0.563,0.143,1.58,0.12,1.782-0.205
		c2.069-3.312,4.014-6.703,6.286-10.574C504.064,251.572,497.436,250.069,490.746,248.911z"/>
	<path fill-rule="evenodd" d="M476.016,230.28c1.293-0.258,2.598-0.46,3.896-0.685c-0.02-0.171-0.04-0.34-0.06-0.51
		c-1.985-0.266-3.971-0.528-5.984-0.797C473.775,230.144,474.589,230.566,476.016,230.28z"/>
	<path fill-rule="evenodd" d="M469.932,207.413c-0.247,0.075-0.495,0.151-0.742,0.227c-0.345,1.688-0.852,3.362-1.006,5.067
		c-0.421,4.701,1.731,8.7,3.811,12.671c0.28,0.532,1.201,1.1,1.764,1.043c2.094-0.214,4.16-0.681,6.453-1.09
		c-2.639-5.2-5.047-10.096-7.615-14.905C471.98,209.275,470.833,208.41,469.932,207.413z"/>
	<path fill-rule="evenodd" d="M512.481,226.677c-4.132,0.534-8.262,1.073-12.508,1.623c0.04,0.514,0.01,0.709,0.073,0.866
		c2.173,5.305,3.311,10.779,2.817,16.543c-0.132,1.527,0.745,2.267,2.188,2.373c1.96,0.143,3.92,0.299,5.882,0.312
		c0.423,0.003,1.146-0.525,1.225-0.913c0.712-3.485,1.493-6.972,1.887-10.501c0.313-2.782-0.029-5.635,0.197-8.434
		C514.368,226.979,513.925,226.491,512.481,226.677z"/>
	<path fill-rule="evenodd" d="M490.327,228.376c0.108,0.156,0.217,0.313,0.324,0.471c2.246-0.637,4.494-1.274,6.74-1.911
		c-0.032-0.134-0.064-0.268-0.096-0.4c-2.041,0.332-4.087,0.634-6.117,1.026C490.854,227.625,490.609,228.094,490.327,228.376z"/>
	<path fill-rule="evenodd" d="M280.17,220.393c-2.921-0.371-5.604,1.813-6.284,4.709c-0.233,0.996-0.523,2.043-1.069,2.886
		c-1.435,2.216-3.053,4.307-4.544,6.486c-2.077,3.035-1.706,6.307-1.032,9.924c3.13-2.393,5.955-4.671,8.897-6.768
		c1.467-1.046,2.062-2.348,2.044-4.073c-0.032-3.001-0.009-6.054-0.009-9.054c0.265-0.021,0.528-0.143,0.793-0.161
		c0.9,3.918,1.802,7.657,2.727,11.657c4.165,0,8.253,0,12.453,0c-0.744-4-3.191-9.042,0.743-13.629
		C289.763,221.599,284.979,221.003,280.17,220.393z"/>
	<path fill-rule="evenodd" d="M468.262,227.152c0.889-0.157,1.611-0.283,2.546-0.449c-0.953-1.603-1.755-2.951-2.557-4.299
		c-0.172,0.047-0.346,0.095-0.518,0.142C467.902,224.019,468.071,225.49,468.262,227.152z"/>
	<path fill-rule="evenodd" d="M264.904,234.694c1.815-4.235,3.64-8.469,5.286-12.771c0.807-2.107,0.708-4.358-1.09-5.995
		c-2.363-2.155-5.166-3.405-8.448-2.649c-3.173,0.731-4.795,3.058-5.521,6.054c-0.264,1.093-0.555,1.797-1.833,2.083
		c-0.669,0.15-1.263,1.087-1.687,1.789c-0.565,0.939-0.894,2.019-1.394,3.001c-2.093,4.104-4.23,8.187-6.301,12.302
		c-0.32,0.64-0.49,1.409-0.524,2.128c-0.132,2.69-0.199,5.385-0.245,8.078c-0.023,1.365,0.381,2.39,2.049,2.453
		c1.223,0.048,2.438,0.295,3.638,0.451c0.827-0.11,1.683-0.054,2.393-0.348c4.255-1.76,8.522-3.504,12.672-5.493
		c0.845-0.403,1.634-1.805,1.685-2.784c0.081-1.607-0.216-3.346-0.819-4.843C264.239,236.845,264.401,235.871,264.904,234.694z"/>
	<path fill-rule="evenodd" d="M240.266,243.386c2.274-5.502,4.278-11.15,7.037-16.403c2.324-4.423,4.646-8.79,6.184-13.552
		c0.614-1.903,0.387-2.487-1.575-3.126c-2.338-0.762-4.699-1.453-7.068-2.111c-3.058-0.852-7.006,1.344-7.99,4.396
		c-1.719,5.332-2.092,10.848-2.223,14.726c-0.093,7.925,0.812,14.056,2.352,20.104c0.105,0.415,0.144,1.012,0.425,1.189
		c0.927,0.584,1.95,1.014,2.938,1.503c0.298-0.848,0.821-1.691,0.833-2.543c0.013-0.871-0.506-1.742-0.734-2.627
		C240.312,244.435,240.09,243.81,240.266,243.386z"/>
	<path fill-rule="evenodd" d="M234.265,138.358c-3.119-1.663-6.318-3.177-9.49-4.742c-0.062,0.114-0.124,0.229-0.186,0.342
		c3.477,2.211,6.953,4.423,10.43,6.634c0.161-0.13,0.321-0.26,0.481-0.39C235.097,139.572,234.841,138.665,234.265,138.358z"/>
	<path fill-rule="evenodd" d="M388.26,310.948c0.167,0.018,0.344-0.058,0.871-0.153c-0.489-2.176-0.876-4.219-1.425-6.216
		c-0.408-1.485-1.544-2.176-3.08-2.096c-1.028,0.054-2.053,0.188-3.066,0.286C381.827,310.706,380.22,310.083,388.26,310.948z"/>
	<path fill-rule="evenodd" d="M238,141.589c0,0.183,0,0.363,0,0.546c5,3.318,12.259,6.636,18.433,9.954
		c-5.241-4.395-10.897-8.24-17.255-10.779C238.82,141.168,238,141.486,238,141.589z"/>
	<path fill-rule="evenodd" d="M383,358.479c6-0.897,8.18-1.744,12.412-2.626c-0.31-2.073-0.774-3.989-1.062-5.917
		c-1.615-0.162-3.082-0.31-4.547-0.457c0.991-0.408,2.107-0.391,2.837-0.912c0.747-0.53,1.563-1.611,1.53-2.417
		c-0.042-0.994-0.769-2.646-1.479-2.811c-3.482-0.81-7.058-1.219-10.626-1.774c-0.334,6.376,0.073,6.829,4.262,8.122
		c-1.305,0.268-1.327,0.506-3.327,0.719C383,353.127,383,355.678,383,358.479z"/>
	<path fill-rule="evenodd" d="M485.148,262.984c-0.826-0.188-1.709-0.124-2.564-0.18c0.009,0.086,0.019,0.169,0.025,0.254
		c16.957,4.09,33.914,8.18,50.87,12.27c-2.712,0.487-5.387-0.872-8.253,0.421c0.38,0.279,0.468,0.39,0.57,0.412
		c13.138,2.723,26.271,5.453,39.419,8.124c0.939,0.191,1.967-0.058,2.954-0.1c0.008-0.135,0.015-0.27,0.021-0.402
		c-0.201-0.125-0.395-0.261-0.603-0.37c-7.047-3.686-15.268-3.219-22.495-6.377c-2.605-1.137-5.506-1.632-8.305-2.275
		C519.583,270.807,502.369,266.889,485.148,262.984z"/>
	<path fill-rule="evenodd" d="M476.629,320.934c0.713,0.837,1.352,1.571,1.972,2.32c1.478,1.787,2.348,1.846,4.432,0.146
		c-1.671-1.367-3.218-2.636-4.801-3.934C477.583,320.06,477.101,320.501,476.629,320.934z"/>
	<path fill-rule="evenodd" d="M488.298,301.296c-0.247-0.283-0.311-0.404-0.408-0.462c-7.8-4.555-15.598-9.114-23.411-13.645
		c-1.442-0.838-2.566-0.428-3.212,1.154c-0.989,2.425-2.532,4.311-4.857,5.583c-0.725,0.394-1.292,1.079-1.981,1.676
		c7.021,6.169,13.776,12.162,20.608,18.067c1.676,1.446,3.311,1.139,4.784-0.72c2.143-2.7,4.216-5.452,6.267-8.221
		C486.909,303.616,487.593,302.401,488.298,301.296z"/>
	<path fill-rule="evenodd" d="M439.898,258.134c-1.216,3.369-2.429,6.74-3.681,10.217c1.266,0.748,2.393,1.417,3.661,2.168
		c1.496-3.92,2.903-7.605,4.348-11.395c-1.318-0.349-2.377-0.635-3.441-0.903C440.555,258.162,440.307,258.171,439.898,258.134z"/>
	<path fill-rule="evenodd" d="M436.106,194.853c7.021-5.886,14.046-11.768,21.051-17.673c1.784-1.504,3.505-3.087,5.253-4.636
		c5.842-5.174,11.678-10.358,17.529-15.522c3.227-2.845,6.563-5.567,9.669-8.536c0.99-0.948,1.566-2.452,2.018-3.806
		c0.452-1.356-0.165-2.562-1.464-3.252c-3.141-1.672-6.304-3.305-9.863-5.164c-0.244,0.376-0.479,0.911-0.86,1.299
		c-7.606,7.704-14.992,15.65-22.928,23c-6.353,5.883-13.106,11.269-18.237,18.392c-3.188,4.422-6.913,8.454-10.488,12.771
		c2.304,1.472,4.465,2.854,6.756,4.316C435.133,195.594,435.638,195.244,436.106,194.853z"/>
	<path fill-rule="evenodd" d="M417.869,207.062c0.201,0.174,0.402,0.347,0.603,0.521c3.445-2.108,6.918-4.177,10.321-6.356
		c0.793-0.509,1.438-1.329,1.99-2.12c0.944-1.352,0.805-2.74-0.501-3.762c-1.14-0.893-2.447-1.572-4.123-2.625
		C423.341,197.594,420.604,202.327,417.869,207.062z"/>
	<path fill-rule="evenodd" d="M422.931,282.691c-3.365-2.513-6.394-4.774-9.551-7.131c-3.161,3.417-6.23,6.734-9.308,10.062
		c0.508,0.819,0.968,1.472,1.335,2.175c1.276,2.439,2.366,3.08,4.872,1.847C414.493,287.57,418.529,285.137,422.931,282.691z"/>
	<path fill-rule="evenodd" d="M412.116,203.988c0.107,0.094,0.217,0.187,0.323,0.279c3.856-4.031,7.712-8.063,11.625-12.153
		c-0.908-0.681-1.967-1.475-3.19-2.39C417.906,194.559,415.011,199.274,412.116,203.988z"/>
	<path fill-rule="evenodd" d="M433.067,200.483c-3.819,3.237-7.625,6.462-11.43,9.687c0.084,0.077,0.168,0.154,0.252,0.231
		c3.526-2.075,7.06-4.138,10.576-6.229C434.362,203.043,434.428,202.594,433.067,200.483z"/>
	<path fill-rule="evenodd" d="M404.163,291.241c0.226-0.036,0.435-0.188,0.741-0.329c-4.789-8.635-9.548-17.208-14.305-25.783
		c-0.134,0.066-0.27,0.133-0.403,0.199c3.113,8.823,6.227,17.646,9.4,26.639C400.906,291.761,402.537,291.513,404.163,291.241z"/>
	<path fill-rule="evenodd" d="M423.436,285.047c-4.337,2.665-8.579,5.515-13.647,6.712c-1.617,0.382-1.976,1.35-1.143,2.804
		c0.827,1.442,2.061,1.325,3.367,0.8c5.582-2.236,10.478-5.592,15.304-9.294C425.815,284.037,425.269,283.919,423.436,285.047z"/>
	<path fill-rule="evenodd" d="M396.298,271.315c0.47,0.773,2.032,1.391,2.986,1.269c2.451-0.31,4.846-1.076,7.263-1.66
		c0.021-0.187,0.044-0.373,0.064-0.56c-5.894-4.886-11.783-9.773-18.094-15.008C390.426,261.439,393.323,266.411,396.298,271.315z"
		/>
	<path fill-rule="evenodd" d="M403.397,283.287c2.881-3.088,5.604-6.005,8.368-8.965c-1.138-1.264-2.035-2.259-3.201-3.553
		c-2.684,3.36-6.341,4.188-10.482,4.534C399.925,278.068,401.54,280.496,403.397,283.287z"/>
	<path fill-rule="evenodd" d="M428.672,174.274c0.202-1.156,0.084-2.205-1.233-2.732c-1.985-0.795-3.95-1.642-6.113-2.545
		c-4.926,10.626-9.741,21.011-14.556,31.396c0.119,0.107,0.238,0.217,0.357,0.325c0.746-0.469,1.543-0.87,2.228-1.416
		c7.975-6.37,13.195-14.957,18.706-23.307C428.388,175.5,428.567,174.868,428.672,174.274z"/>
	<path fill-rule="evenodd" d="M411.437,298.961c0.065,2.578,1.659,3.886,3.34,3.197c5.983-2.449,11.878-5.09,17.093-9.001
		c1.521-1.139,1.658-2.516,0.496-3.945c-1.141-1.406-3.265-2.01-4.837-1.107c-4.801,2.751-9.58,5.546-14.272,8.478
		C412.327,297.163,411.826,298.428,411.437,298.961z"/>
	<path fill-rule="evenodd" d="M432.493,285.354c1.723,1.3,3.381,2.553,5.043,3.803c3.434,2.58,6.859,5.17,10.319,7.717
		c0.308,0.228,0.819,0.178,1.237,0.257c-0.043-0.389-0.026-0.797-0.146-1.16c-0.11-0.34-0.362-0.637-0.557-0.949
		c-3.047-4.883-7.665-7.819-12.658-10.34C434.478,284.048,433.568,284.122,432.493,285.354z"/>
	<path fill-rule="evenodd" d="M461.68,282.751c1.804-4.991,2.19-9.859,2.013-14.802c-0.026-0.729,0.132-1.523-0.108-2.175
		c-0.692-1.872-6.696-3.305-7.978-1.812c-2.892,3.365-5.601,6.889-8.47,10.456C452.008,277.209,456.781,279.943,461.68,282.751z"/>
	<path fill-rule="evenodd" d="M453.599,235c0.641,5,1.997,7.708,4.917,8.496c0.205-2.757,0.408-6.496,0.632-8.496
		c-1.173,0-2.021,0-2.869,0C455.393,235,454.509,235,453.599,235z"/>
	<path fill-rule="evenodd" d="M453.869,214.854c1.643,3.947,3.223,7.721,4.785,11.504c0.729,1.77,3.259,2.641,4.89,1.585
		c0.343-0.22,0.586-0.762,0.664-1.194c0.372-2.055,0.579-4.143,1.016-6.183c0.762-3.553-0.076-6.795-1.629-10.088
		C460.352,211.937,457.181,213.363,453.869,214.854z"/>
	<path fill-rule="evenodd" d="M436.825,277.354c0.609-1.575,1.256-3.141,1.799-4.74c0.1-0.287-0.104-0.91-0.351-1.047
		c-1.086-0.601-2.238-1.079-3.368-1.602c-0.196,0.124-0.391,0.246-0.588,0.37c0.59,2.348,1.18,4.697,1.77,7.048
		C436.333,277.371,436.579,277.362,436.825,277.354z"/>
	<path fill-rule="evenodd" d="M461.166,236.248c-0.348,2.356-0.375,4.761-0.538,7.425c1.032,0,1.821-0.021,2.607,0.003
		c4.602,0.14,9.213,0.146,13.803,0.471c6.794,0.479,13.568,1.241,20.359,1.773c2.542,0.2,3.049-0.396,3.428-2.967
		c0.561-3.814-0.184-7.468-1.335-11.067c-0.746-2.323-1.557-2.72-3.962-2.418c-10.906,1.369-21.482,4.814-32.556,5.187
		C462.326,234.676,461.26,235.618,461.166,236.248z"/>
	<path fill-rule="evenodd" d="M397.929,301.587c-2.327,0.511-4.627,1.142-7.124,1.767c0.453,7.389,0.899,14.666,1.365,22.255
		c4.569-0.996,8.911-1.941,13.447-2.93c-0.361-1.36-0.64-2.412-0.918-3.464c-1.374-5.169-2.753-10.333-4.12-15.501
		C400.215,302.335,399.592,301.223,397.929,301.587z"/>
	<path fill-rule="evenodd" d="M435.785,256.877c-2.653-0.553-5.356-0.853-8.043-1.242c-0.13,0.213-0.258,0.428-0.388,0.642
		c2.139,3.654,4.277,7.309,6.414,10.962c0.27-0.064,0.539-0.129,0.807-0.194c0.863-2.799,1.81-5.574,2.51-8.413
		C437.203,258.156,436.344,256.993,435.785,256.877z"/>
	<path fill-rule="evenodd" d="M441.468,271.584c1.09,0.508,2.068,0.965,3.281,1.531c1.957-4.247,3.813-8.273,5.746-12.466
		c-1.796-0.436-3.321-0.805-4.972-1.207C444.148,263.56,442.834,267.496,441.468,271.584z"/>
	<path fill-rule="evenodd" d="M453.213,294.108c2.602-3.125,5.085-6.105,7.4-8.885c-6.631-4.16-13.048-8.186-19.653-12.327
		c-1.192,2.46-2.19,4.623-3.289,6.733c-0.458,0.882-0.312,1.378,0.452,1.999c3.904,3.184,7.758,6.43,11.631,9.649
		C450.875,292.208,452.008,293.122,453.213,294.108z"/>
	<path fill-rule="evenodd" d="M471.555,205.906c4.101,5.015,6.043,10.753,8.344,16.317c1.129,2.733,3.21,3.891,6.183,3.487
		c3.964-0.536,7.929-1.077,11.882-1.682c1.081-0.166,2.413-0.251,3.14-0.911c4.14-3.771,8.794-7.468,10.392-12.951
		c2.12-7.275,3.231-14.844,4.879-22.788C501.146,193.676,486.479,199.737,471.555,205.906z"/>
	<path fill-rule="evenodd" d="M217.089,331.99c-5.396,2.057-10.952,3.759-16.182,6.17c-8.824,4.069-17.442,8.582-26.154,12.895
		c-0.962,0.476-1.967,0.869-3.205,1.411c0.47,0.15,0.633,0.263,0.773,0.239c8.792-1.461,17.58-2.939,26.373-4.394
		c2.109-0.349,4.302-1.103,6.333-0.811c2.961,0.426,5.457-0.046,7.865-1.689c3.435-2.345,6.903-4.64,10.506-7.055
		c-1.228-1.811-2.664-3.789-3.938-5.868C218.834,331.865,218.215,331.562,217.089,331.99z"/>
	<path fill-rule="evenodd" d="M202.814,286.146c14.578-4.258,29.188-8.414,43.72-12.825c7.105-2.157,14.073-4.77,21.081-7.241
		c0.76-0.267,1.369-0.967,2.048-1.465c-0.049-0.169-0.099-0.337-0.147-0.506c-0.835-0.044-1.671-0.093-2.506-0.132
		c-5.803-0.278-11.125,1.762-16.537,3.399c-15.322,4.636-30.387,9.965-44.929,16.694c-1.419,0.656-2.813,1.363-4.22,2.048
		C201.913,286.355,202.371,286.275,202.814,286.146z"/>
	<path fill-rule="evenodd" d="M285.858,301.86c2.476-1.372,4.631-2.955,3.081-6.321c-0.018-0.035,0.126-0.146,0.464-0.518
		c0.158,0.303,0.287,0.59,0.451,0.854c1.031,1.66,2.16,1.522,3.792,0.61c7.627-4.264,15.34-8.374,23.02-12.542
		c0.729-0.396,1.446-0.815,2.227-1.256c-0.721-1.148-1.329-2.114-1.938-3.081c0.094-0.175,0.187-0.351,0.28-0.525
		c0.885,0.299,2.241,0.345,2.564,0.946c0.805,1.496,1.693,1.134,2.735,0.606c4.116-2.081,8.241-4.151,12.328-6.293
		c1.981-1.038,2.462-3.421,1.059-5.21c-1.097-1.398-2.338-2.686-3.555-4.065c-0.491,0.263-0.932,0.466-1.339,0.72
		c-8.764,5.487-17.489,11.033-26.294,16.454c-8.509,5.237-16.023,12.16-25.779,15.296c-0.058,0.019-0.109,0.057-0.162,0.088
		c-5.748,3.691-11.505,7.366-17.23,11.09c-0.846,0.552-1.838,1.188-1.018,2.522c1.024,1.667,2.959,2.749,4.068,2.18
		c1.588-0.814,3.17-1.642,4.736-2.498C274.857,307.908,280.368,304.902,285.858,301.86z"/>
	<path fill-rule="evenodd" d="M260.611,304.493c2.61-0.897,5.105-2.127,7.645-3.227c0.394-0.17,1.086-0.32,1.119-0.555
		c0.461-3.227,3.55-3.404,5.551-4.778c1.952-1.341,4.108-2.386,6.343-3.656c-3.242-3.938-6.259-7.654-9.368-11.294
		c-0.282-0.33-1.228-0.376-1.735-0.193c-6.25,2.249-12.49,4.53-18.704,6.879c-3.325,1.257-3.835,2.286-2.941,5.733
		c1.261,4.859,4.66,8.187,8.48,11.047C257.793,305.044,259.511,304.87,260.611,304.493z"/>
	<path fill-rule="evenodd" d="M270.339,278.712c-0.193-2.551-0.598-5.088-0.944-7.721c-0.613,0.086-1.034,0.112-1.44,0.203
		c-7.022,1.572-14.046,3.143-21.065,4.732c-9.709,2.2-19.48,4.173-29.101,6.713c-6.038,1.595-11.848,4.051-18,6.204
		c1.714,4.396,3.312,8.522,4.934,12.64c0.577,1.462,1.611,1.706,2.979,1.046c2.104-1.015,4.165-2.158,6.35-2.963
		c7.899-2.91,15.839-5.715,23.774-8.531c10.372-3.683,20.758-7.326,31.121-11.035C269.515,279.797,270.368,279.114,270.339,278.712z
		"/>
	<path fill-rule="evenodd" d="M237.65,321.048c-5.009,2.896-10.058,5.719-15.081,8.588c-2.118,1.209-2.417,2.609-0.956,4.521
		c0.521,0.684,1.109,1.319,1.716,1.93c2.074,2.093,2.268,2.141,4.643,0.491c10.267-7.134,20.666-14.054,31.667-20.028
		c0.662-0.359,1.199-0.948,1.891-1.509c-1.704-1.841-3.241-3.5-4.771-5.153C250.289,313.668,243.985,317.386,237.65,321.048z"/>
	<path fill-rule="evenodd" d="M291.968,353.816c2.443-2.283,4.942-4.521,7.232-6.953c3.515-3.733,7.231-7.304,9.87-11.793
		c5.8-9.869,11.667-19.699,17.496-29.554c0.245-0.415,0.371-0.898,0.553-1.351c-0.185-0.165-0.37-0.331-0.555-0.496
		c-0.853,0.66-1.816,1.218-2.537,2c-2.918,3.162-5.567,6.596-8.675,9.553c-5.537,5.271-11.064,10.514-15.646,16.679
		c-1.313,1.768-2.936,3.311-4.458,4.915c-2.664,2.812-5.496,5.475-8.014,8.409c-5.081,5.922-9.049,12.768-14.978,18.012
		c-0.729,0.644-1.255,2.218-1.002,3.114c0.462,1.634,1.579,3.082,2.73,5.163c2.984-3.153,5.545-6.03,8.291-8.719
		C285.423,359.718,288.75,356.823,291.968,353.816z"/>
	<path fill-rule="evenodd" d="M326.16,381.531c1.997-2.808,4.173-5.549,5.729-8.597c4.78-9.364,9.378-18.823,13.912-28.312
		c5.729-11.985,9.701-24.597,12.858-37.472c0.234-0.955-0.025-2.712-0.656-3.086c-2.881-1.715-5.903-3.25-9.012-4.507
		c-3.787-1.533-7.712-2.724-11.713-4.11c-0.189,0.32-0.531,0.896-0.873,1.475c-4.133,6.994-8.307,13.965-12.377,20.995
		c-1.686,2.911-3.124,5.968-4.72,8.935c-1.379,2.562-2.625,5.231-4.29,7.604c-1.838,2.614-1.736,5.259,0.903,7.139
		c2.701,1.927,5.456,3.782,8.252,5.568c3,1.916,6.061,3.739,9.126,5.552c1.083,0.642,2.254,1.131,3.384,1.69
		c-0.965,0.167-1.786-0.106-2.62-0.334c-0.939-0.257-1.895-0.691-2.832-0.665c-2.198,0.065-4.119-0.565-5.894-1.781
		c-4.264-2.923-8.562-5.797-12.763-8.807c-1.408-1.007-2.609-0.928-3.854,0.015c-0.967,0.731-1.849,1.577-2.753,2.388
		c-3.211,2.88-6.393,5.791-9.636,8.633c-1.037,0.91-2.342,1.528-3.331,2.479c-3.254,3.128-6.425,6.339-9.617,9.53
		c-2.469,2.47-4.92,4.955-7.585,7.642c6.703,2.557,12.86,5.025,19.6,5.471c2.518,0.167,5.047,0.364,7.529,0.785
		c3.206,0.544,6.344,1.546,9.561,1.952c3.902,0.496,7.855,0.624,11.792,0.785C324.907,382.522,325.79,382.054,326.16,381.531z"/>
	<path fill-rule="evenodd" d="M284.801,304.948c2.188-1.356,4.118-2.553,6.365-3.945
		C288.603,300.373,286.107,301.979,284.801,304.948z"/>
	<path fill-rule="evenodd" d="M294.874,332.95c1.808-2.097,3.758-4.088,5.379-6.317c0.726-0.998,1.077-2.463,1.104-3.728
		c0.032-1.593-1.542-3.111-0.315-4.84c0.063-0.093-0.064-0.355-0.15-0.513c-2.74-5.075-5.486-10.147-8.313-15.372
		c-9.129,4.869-17.988,9.593-26.948,14.372c3.871,2.904,7.406,5.781,11.166,8.323c4.619,3.123,9.411,5.989,14.16,8.917
		C292.456,334.718,293.773,334.228,294.874,332.95z"/>
	<path fill-rule="evenodd" d="M273.713,275.292c1.205,2.345,1.448,2.444,4.037,1.506c5.322-1.927,10.643-3.858,15.958-5.807
		c3.684-1.351,7.355-2.731,11.141-4.139c-0.957-2.381-1.796-4.624-2.787-6.799c-0.188-0.412-1.062-0.874-1.477-0.766
		c-8.367,2.192-16.977,3.578-24.535,8.3C271.302,270.555,271.162,270.33,273.713,275.292z"/>
	<path fill-rule="evenodd" d="M320.4,182.879c-4.134-3.363-8.244-6.756-12.413-10.074c-1.628-1.295-3.366-2.458-5.099-3.615
		c-1.185-0.791-2.336-0.469-3.028,0.668c-1.687,2.768-3.246,5.611-4.842,8.397c3.39,2.617,6.519,5.297,9.934,7.538
		c1.365,0.896,3.464,1.376,5.053,1.085c3.705-0.68,7.302-1.942,11.452-3.113C320.761,183.181,320.583,183.027,320.4,182.879z"/>
	<path fill-rule="evenodd" d="M311.062,209.907c0.404-0.288,0.916-0.496,1.197-0.874c1.542-2.074,2.979-4.227,4.559-6.27
		c0.542-0.701,1.394-1.164,2.104-1.737c0.128,0.13,0.256,0.26,0.384,0.39c-1.67,3.036-3.338,6.071-5.092,9.264
		c13.287,5.705,26.433,11.35,39.643,17.022c-12.329-10.251-24.55-20.411-36.658-30.477c-0.857,0.794-1.736,1.627-2.633,2.438
		c-2.438,2.21-3.338,5.251-4.424,8.188c-0.077,0.21-0.055,0.523,0.05,0.72C310.44,209.04,310.768,209.465,311.062,209.907z"/>
	<path fill-rule="evenodd" d="M289.121,156.051c-2.412,3.666-4.012,7.723-6.954,10.926c-0.229-0.69-0.245-1.256-0.054-1.742
		c0.804-2.051,1.525-4.155,2.546-6.098c1.706-3.245,1.221-5.399-1.896-7.276c-0.468-0.281-0.901-0.631-1.318-0.986
		c-2.666-2.273-5.306-4.577-7.99-6.828c-1.153-0.969-2.228-0.866-3.097,0.469c-1.946,2.989-3.946,5.944-5.851,8.96
		c-0.987,1.562-0.675,2.547,0.818,3.589c8.116,5.673,16.221,11.358,24.331,17.039c1.084,0.76,2.172,1.515,3.34,2.329
		c2.256-3.627,4.394-7.062,6.622-10.645C296.028,162.457,292.609,159.285,289.121,156.051z"/>
	<path fill-rule="evenodd" d="M330.306,153.282c0.073-0.172,0.146-0.344,0.218-0.517c-0.757-0.695-1.493-1.417-2.277-2.081
		c-1.867-1.58-3.94-1.742-5.927-0.33c-5.053,3.596-10.075,7.233-15.077,10.898c-0.561,0.411-0.909,1.108-1.357,1.673
		c0.118,0.128,0.236,0.257,0.354,0.385C313.817,158.899,320.682,152.762,330.306,153.282z"/>
	<path fill-rule="evenodd" d="M315.28,176.436c2.451-1.383,5.058-2.596,7.235-4.338c3.908-3.126,7.552-6.586,11.484-10.062
		c-0.398-0.972-0.894-2.287-1.471-3.565c-1.535-3.394-3.358-3.964-6.586-2.163c-1.516,0.847-3.074,1.617-4.848,2.545
		c0.062-1.197,0.102-2.001,0.158-3.109c-6.386,4.054-12.483,7.922-18.759,11.904c3.967,2.987,7.722,5.836,11.511,8.636
		C314.313,176.51,314.973,176.608,315.28,176.436z"/>
	<path fill-rule="evenodd" d="M312.148,225.528c-2.393-0.57-4.818-1.005-7.234-1.476c-2.762-0.538-5.526-1.064-8.138-1.568
		c0,4.245-0.098,8.294,0.097,12.329c0.031,0.674,1.308,1.81,2.044,1.838c4.358,0.176,8.728,0.087,13.397,0.087
		c0.338-3.304,0.724-6.66,0.969-10.026C313.312,226.332,312.614,225.639,312.148,225.528z"/>
	<path fill-rule="evenodd" d="M309.222,265.25c1.847-0.972,3.743-1.851,5.629-2.746c1.253-0.597,1.705-1.646,1.401-2.889
		c-0.372-1.521-0.964-2.989-1.489-4.572c-4.123,1.217-7.998,2.358-12.128,3.577c1.308,2.08,2.474,4.016,3.727,5.895
		C307.051,265.549,307.983,265.901,309.222,265.25z"/>
	<path fill-rule="evenodd" d="M343.515,390.582c0.399-1.902,0.679-4.582,1.007-5.582c-4.727,0-9.228,0-13.729,0
		c3.625-2,7.25-0.818,10.875-0.998c2.711-0.139,2.97-0.647,3.497-3.242c0.871-4.274,1.67-8.576,2.801-12.787
		c1.977-7.362,4.374-14.613,6.235-22.002c1.541-6.122,3.574-12.018,6.405-17.642c2.485-4.937,2.028-5.888-3.709-6.862
		c-0.534,1.806-0.978,3.53-1.553,5.209c-2.356,6.859-4.743,13.709-7.147,20.553c-0.283,0.806-0.754,1.544-1.113,2.325
		c-1.429,3.113-2.889,6.211-4.252,9.354c-0.608,1.401-0.757,3.057-1.562,4.31c-3.053,4.757-6.226,9.438-9.479,14.061
		c-1.661,2.361-3.685,4.466-5.363,6.814c-1.435,2.007-2.422,4.246-1.854,7.098c6.033,0,11.991,0.014,17.948-0.035
		C342.868,391.153,343.446,390.91,343.515,390.582z"/>
	<path fill-rule="evenodd" d="M312.56,224.153c4.262,0.933,8.469,2.11,12.705,3.158c1.032,0.256,2.217,0.515,2.745-0.732
		c1.022-2.409,1.893-4.884,2.883-7.476c-6.645-2.746-13.165-5.449-19.695-8.131c-1.269-0.521-1.854,0.061-1.916,1.341
		c-0.029,0.595-0.083,1.187-0.126,1.78c-0.18,0.066-0.36,0.131-0.541,0.198c0.131-3.94-1.527-6.078-5.696-5.815
		c-1.723,4.059-3.517,8.286-5.413,12.755c0.674,0.147,1.078,0.243,1.486,0.32C303.516,222.412,308.062,223.17,312.56,224.153z"/>
	<path fill-rule="evenodd" d="M272.297,266.02c7.903-2.312,15.812-4.61,23.701-6.968c0.896-0.268,1.693-0.861,2.536-1.304
		c-0.036-0.201-0.072-0.4-0.108-0.6c-1.481,0-2.969-0.07-4.444,0.02c-1.343,0.082-2.712,0.631-4.002,0.461
		c-2.865-0.378-5.476,0.309-8.117,1.217c-2.73,0.938-5.492,1.79-8.267,2.587c-3.019,0.868-3.437,1.832-1.812,4.63
		C271.944,266.05,272.131,266.068,272.297,266.02z"/>
	<path fill-rule="evenodd" d="M499.34,357.021c-3.256,7.149-6.505,14.302-9.754,21.454c-0.051,0.111-0.098,0.229-0.118,0.35
		c-0.649,3.574-2.913,5.936-5.7,8.065c-3.61,2.76-7.445,5.41-10.396,8.794c-2.32,2.659-4.816,4.35-8.042,5.293
		c-0.09,0.026-0.141,0.191-0.268,0.38c0.45,1.064,0.923,2.179,1.445,3.411c4.769-1.564,9.349-2.975,13.862-4.576
		c4.014-1.423,7.33-3.896,10.167-7.111c2.106-2.388,4.442-4.583,6.743-6.795c5.528-5.316,11.098-10.593,16.106-15.369
		c-4.599-4.985-9.001-9.756-13.476-14.604C499.565,356.734,499.412,356.86,499.34,357.021z"/>
	<path fill-rule="evenodd" d="M529.95,323.916c-1.108-0.756-2.105-1.692-3.267-2.347c-5.63-3.169-11.285-6.29-16.952-9.39
		c-6.141-3.36-12.303-6.68-18.595-10.091c-3.794,5.154-7.424,10.084-11.106,15.088c2.001,1.415,4.08,2.565,5.761,4.143
		c3.269,3.066,6.39,6.301,9.429,9.6c2.781,3.019,5.832,3.773,9.803,2.507c4.941-1.576,10.041-2.65,15.069-3.939
		c0.025,0.094,0.052,0.187,0.076,0.281c-5.332,2.256-10.665,4.512-16.364,6.923c5.632,4.072,10.891,7.876,16.223,11.733
		c2.745-3.313,5.663-6.295,7.919-9.714c2.177-3.298,3.785-6.998,5.42-10.622c0.869-1.931,0.322-2.616-1.664-3.259
		C531.083,324.63,530.492,324.285,529.95,323.916z"/>
	<path fill-rule="evenodd" d="M521.872,357.93c-1.122,2.91-2.233,5.823-3.441,8.697c-0.647,1.534-0.179,2.425,1.35,3.07
		c3.087-4.249,6.143-8.456,9.272-12.764c-1.311-1.425-2.328-3.013-4.336-2.701C522.713,354.545,522.461,356.402,521.872,357.93z"/>
	<path fill-rule="evenodd" d="M519.765,356.718c1.801-4.812,1.401-6.108-2.868-8.945c-5.23-3.475-10.509-6.875-15.805-10.251
		c-3.507-2.234-7.076-4.371-10.617-6.551c-0.142,0.076-0.283,0.152-0.426,0.229c0.215,1.031,0.197,2.195,0.691,3.071
		c1.234,2.191,2.5,4.423,4.109,6.34c7.083,8.432,14.291,16.758,21.802,25.524c0.628-1.177,1.806-2.38,1.786-3.565
		C518.41,360.437,519.051,358.624,519.765,356.718z"/>
	<path fill-rule="evenodd" d="M518.85,314.811c-2.594-2.646-5.475-4.825-9.194-5.76c-0.99-0.249-1.957-0.714-2.841-1.237
		c-3.173-1.877-6.285-3.848-9.463-5.719c-0.632-0.373-1.434-0.46-2.156-0.681c-0.078,0.202-0.157,0.403-0.233,0.604
		c7.877,4.412,15.751,8.825,23.629,13.24C518.677,315.108,518.763,314.959,518.85,314.811z"/>
	<path fill-rule="evenodd" d="M364.414,414.876c0.351-0.445,0.782-0.629,1.225-0.777c4.026-1.34,8.039-2.726,12.092-3.978
		c1.382-0.427,1.915-1.021,1.919-2.56c0.05-14.964,0.195-29.927,0.311-44.891c0.003-0.474-0.051-0.949-0.078-1.431
		c-0.293-0.046-0.47-0.106-0.641-0.095c-8.724,0.571-17.446,1.165-26.171,1.704c-1.036,0.064-1.343,0.582-1.512,1.455
		c-0.388,1.994-0.912,3.965-1.221,5.969c-0.682,4.409-2.512,8.651-1.934,13.254c0.054,0.432-0.298,0.914-0.46,1.372
		c-0.968,2.712-2.203,5.362-2.85,8.148c-1.526,6.587-2.699,13.258-4.187,19.856c-0.376,1.674,0.23,2.208,1.595,2.275
		c2.211,0.109,4.434-0.031,6.638,0.13c1.523,0.112,3.022,0.559,4.532,0.854c-0.052,0.284-0.104,0.566-0.157,0.851
		c-2.112-0.127-4.24-0.142-6.331-0.42c-1.696-0.224-3.179-0.184-4.197,1.45c-1.066-0.601-2.001-1.128-2.937-1.655
		c-0.098,0.159-0.197,0.319-0.297,0.479c0.952,0.624,1.831,1.438,2.868,1.84c8.195,3.188,16.789,4.241,25.504,4.497
		c3.69,0.108,7.388,0.06,11.081,0.022c1.048-0.011,2.308-0.116,2.209-1.602c-0.241-3.712-0.608-7.414-0.933-11.225
		C375.02,411.923,369.717,413.4,364.414,414.876z"/>
	<path fill-rule="evenodd" d="M579.813,289.317c6.571,1.817,12.721,4.494,20.047,4.451
		C595.735,291.041,582.789,288.209,579.813,289.317z"/>
	<path fill-rule="evenodd" d="M0,0v540h800V0H0z M650.856,307.43c-11.633-2.396-23.193-5.148-34.83-7.528
		c-16.22-3.317-32.483-6.424-48.728-9.612c-4.765-0.936-4.741-0.907-7.181,3.349c-0.854,1.491-1.84,2.912-2.813,4.332
		c-2.362,3.444-4.843,6.809-7.105,10.316c-3.213,4.983-7.393,8.831-12.606,11.644c-1.588,0.855-2.964,2.106-4.692,3.364
		c7.806,3.54,15.232,6.908,22.658,10.276c-0.054,0.131-0.107,0.264-0.161,0.394c-6.695-2.703-13.393-5.406-20.414-8.24
		c-1.987,9.325-5.4,17.979-10.587,26.09c7.076,4.988,13.977,9.851,20.877,14.716c-0.062,0.101-0.129,0.201-0.191,0.302
		c-4.789-2.941-9.577-5.882-14.529-8.92c-3.275,4.399-6.534,8.776-9.916,13.319c11.264,9.594,20.119,21.286,29.365,32.635
		c-0.12,0.109-0.239,0.218-0.357,0.326c-5.329-5.582-11.131-10.792-15.861-16.842c-5.403-6.913-12.318-11.747-19.239-16.659
		c-0.128,0.03-0.208,0.024-0.245,0.062c-5.686,5.696-11.472,11.298-17.014,17.134c-3.343,3.521-6.338,7.375-9.424,11.133
		c-2.105,2.567-4.373,4.571-8.034,3.401c-0.21-0.066-0.494,0.014-0.719,0.095c-3.76,1.335-7.514,2.681-11.534,4.117
		c7.661,12.085,15.624,23.756,21.045,36.918c-0.312-0.456-0.647-0.896-0.929-1.367c-6.955-11.683-14.035-23.294-20.803-35.086
		c-3.729-6.5-6.858-13.344-10.387-19.963c-2.866-5.377-5.896-10.666-8.904-15.967c-1.536-2.708-2.882-3.098-5.595-1.711
		c-4.598,2.348-9.177,4.732-13.819,7.131c0.133,0.408,0.178,0.717,0.323,0.966c4.901,8.345,7.317,17.728,11.123,26.516
		c3.938,9.098,7.297,18.385,10.625,27.693c2.921,8.168,5.647,16.406,8.473,24.607c3.238,9.4,6.496,18.794,9.734,28.193
		c0.295,0.854,0.508,1.734,0.486,2.699c-6.223-15.026-12.444-30.054-18.672-45.092c-0.094-0.009-0.24-0.071-0.325-0.023
		c-7.244,4.109-15.276,5.479-23.35,6.705c-1.278,0.194-2.562,0.362-3.832,0.599c-7.987,1.478-15.803,0.542-23.532-1.633
		c-2.145-0.604-2.833-0.201-3.585,1.892c-1.298,3.6-0.389,7.208-0.11,10.799c1.169,15.103,2.388,30.199,3.617,45.295
		c0.492,6.05,1.197,12.086,1.544,18.141c0.244,4.286,0.047,8.6-0.18,12.965c-0.755-4.144-1.802-8.26-2.2-12.438
		c-0.748-7.846-3.099-15.291-5.382-22.729c-4.488-14.629-6.471-29.688-8.203-44.797c-1.229-10.699-2.229-21.425-3.357-32.388
		c-2.349-0.112-5.033-0.185-7.71-0.377c-9.518-0.684-19.032-1.405-28.547-2.114c-0.616-0.048-1.228-0.127-1.842-0.164
		c-2.422-0.15-2.816,0.052-3.355,2.388c-1.631,7.076-2.776,14.29-4.864,21.224c-3.462,11.488-4.817,23.373-7.351,35.027
		c-0.097,0.443-0.258,0.875-0.755,1.233c1.316-7.947,2.691-15.884,3.935-23.843c1.966-12.585,3.816-25.188,5.787-37.771
		c0.309-1.972-0.154-3.316-2.01-4.143c-0.435-0.192-0.788-0.564-1.572-1.145c1.385,0.383,2.307,0.639,3.511,0.971
		c2.068-7.419,4.121-14.781,6.191-22.211c-5.648-1.763-11.188-2.012-16.802-1.236c-1.883,0.261-3.108,1.331-3.798,3.084
		c-2.904,7.383-5.999,14.695-8.685,22.156c-3.521,9.782-6.754,19.668-10.007,29.543c-0.364,1.104-0.049,2.432-0.049,3.087
		c-0.819,1.285-1.746,2.182-2.008,3.243c-1.216,4.953-2.136,9.98-3.387,14.925c-0.886,3.501-2.207,6.888-3.199,10.361
		c-2.129,7.455-4.166,14.936-6.255,22.399c-0.207,0.74-0.522,1.448-0.932,2.567c1.601-11.375,6.74-21.593,6.605-32.915
		c-7.193,12.982-15.158,25.394-24.202,37.132c1.998-3.431,3.966-6.878,5.998-10.287c7.589-12.737,15.689-25.189,21.508-38.903
		c1.146-2.705,2.148-5.473,3.236-8.263c-3.042-1.493-7.046,1.051-9.329-2.709c1.622-1.209,3.268-0.915,4.908-0.309
		c4.714,1.74,4.763,1.769,6.354-2.948c5.883-17.432,11.728-34.875,17.584-52.314c0.038-0.113,0.023-0.244,0.054-0.625
		c-2.09-0.738-4.247-1.501-6.406-2.264c0.028-0.127,0.057-0.255,0.084-0.38c1.748,0.301,3.519,0.512,5.236,0.935
		c1.245,0.307,1.843,0.074,2.33-1.197c1.354-3.537,0.673-4.852-3.094-5.453c-6.257-1-12.484-2.324-18.779-2.899
		c-6.091-0.557-12.133-1.039-17.939-3.104c-0.233-0.083-0.544,0.046-0.886,0.338c9.298,6.053,19.8,8.785,30.479,11.426
		c-0.575,0.028-1.17,0.164-1.723,0.067c-9.144-1.61-17.974-4.324-26.311-8.362c-3.021-1.46-5.529-3.98-8.473-6.167
		c-0.15,0.241-0.557,0.74-0.807,1.308c-3.341,7.604-6.803,15.158-9.922,22.85c-1.517,3.739-2.482,7.713-3.508,11.63
		c-0.766,2.92-0.194,5.589,2.171,7.752c2.634,2.407,5.178,4.915,7.753,7.387c0.455,0.437,0.876,0.911,1.069,1.622
		c-2.412-1.991-4.823-3.983-7.235-5.977c-0.11,0.108-0.221,0.219-0.331,0.327c1.852,2.161,3.702,4.321,5.553,6.482
		c-0.085,0.134-0.169,0.267-0.255,0.399c-1.061-0.767-2.362-1.348-3.139-2.338c-2.349-2.998-4.501-6.148-6.718-9.248
		c-0.736-1.032-1.433-2.092-2.321-3.392c-9.865,22.072-19.599,43.85-29.332,65.627c-0.109-0.035-0.218-0.071-0.328-0.107
		c0.198-0.579,0.363-1.171,0.599-1.734c7.292-17.427,14.567-34.861,21.907-52.269c1.553-3.686,3.325-7.277,5.027-10.898
		c0.751-1.598,1.326-3.151,0.559-4.953c-0.224-0.525,0.049-1.259,0.115-2.198c0.724,0.523,1.185,0.856,1.859,1.346
		c0.587-1.157,1.186-2.204,1.667-3.305c3.947-9.017,7.817-18.068,11.841-27.051c1.05-2.342,1.826-4.61,0.835-7.071
		c-0.481-1.198-1.325-2.251-2.14-3.591c-0.887,0.995-1.485,1.753-2.171,2.424c-3.469,3.388-6.973,6.74-10.437,10.134
		c-0.962,0.94-1.791,2.018-2.762,2.947c-0.548,0.524-1.312,0.816-1.891,1.316c-1.438,1.239-2.896,2.467-4.216,3.825
		c-2.702,2.778-5.435,5.54-7.943,8.488c-3.501,4.12-6.178,8.74-7.293,14.109c-0.58,2.801-1.249,5.509-3.287,7.698
		c-0.607,0.654-0.984,1.562-1.337,2.408c-1.595,3.838-4.123,6.974-7.794,8.826c-8.02,4.048-13.998,10.35-19.673,17.051
		c-1.765,2.085-3.58,4.126-5.689,5.932c1.146-1.467,2.291-2.934,3.44-4.399c1.598-2.034,3.317-3.983,4.775-6.114
		c3.645-5.322,8.366-9.482,13.631-13.106c1.469-1.01,2.762-2.307,4.303-3.18c4.453-2.524,6.925-6.349,8.395-11.176
		c1.557-5.115,3.604-10.081,5.384-15.131c0.354-1.009,0.941-1.422,1.904-1.911c1.656-0.842,3.223-2.034,4.512-3.381
		c2.891-3.021,5.468-6.344,8.391-9.332c4.533-4.636,8.668-9.536,11.857-15.216c0.612-1.091,1.618-2.014,2.585-2.85
		c9.778-8.455,18.114-18.265,26.455-28.069c1.765-2.073,1.625-3.173-0.814-4.253c-6.364-2.821-11.954-6.821-17.433-11.029
		c-2.136-1.642-4.308-3.282-6.655-4.574c-0.937-0.516-2.607-0.509-3.579-0.017c-6.312,3.192-12.558,6.523-18.755,9.934
		c-3.825,2.105-7.527,4.434-11.284,6.66c-0.105,0.063-0.214,0.123-0.318,0.188c-5.688,3.626-11.447,7.15-17.04,10.92
		c-3.417,2.303-6.816,3.888-11.037,2.622c-0.84-0.253-1.857-0.164-2.74,0.021c-10.354,2.159-20.761,4.118-31.03,6.635
		c-10.271,2.515-20.403,5.602-30.599,8.432c-0.384,0.106-0.789,0.137-1.28-0.099c3.909-1.611,7.818-3.228,11.729-4.834
		c10.188-4.182,20.606-7.886,30.511-12.653c13.152-6.333,26.471-12.199,39.937-17.824c7.782-3.249,14.955-7.975,22.349-12.133
		c3.754-2.112,7.407-4.405,11.07-6.676c2.335-1.448,2.746-3.457,0.72-5.124c-4.428-3.644-7.164-8.193-8.37-13.741
		c-0.075-0.345-0.279-0.661-0.523-1.217c-2.719,0.979-5.355,1.957-8.013,2.877c-4.406,1.525-8.855,2.931-13.232,4.535
		c-5.017,1.841-10.13,3.523-14.912,5.864c-4.569,2.237-9.273,3.928-14.104,5.399c-4.28,1.302-8.535,2.691-12.906,3.744
		c6.993-2.567,13.987-5.135,21.229-7.793c-1.946-4.935-3.847-9.749-5.854-14.839c-3.69,1.654-7.188,3.292-10.741,4.796
		c-6.567,2.779-13.416,5.009-19.689,8.333c-7.895,4.183-16.568,4.844-24.948,6.86c-2.042,0.491-4.193,0.527-6.294,0.772
		c-0.048-0.302-0.096-0.602-0.144-0.902c3.76-0.763,7.504-1.617,11.281-2.272c8.265-1.433,15.98-4.32,23.44-8.128
		c4.526-2.311,9.397-3.937,14.002-6.105c3.538-1.668,6.923-3.663,10.332-5.591c1.149-0.648,1.474-1.682,0.929-3.014
		c-0.343-0.835-0.542-1.786-0.563-2.691c-0.204-8.674-0.85-17.359,0.508-26.004c0.036-0.234,0.089-0.466,0.437-0.694
		c0.313,10.271,0.626,20.54,0.938,30.809c0.232,0.088,0.465,0.179,0.698,0.267c3.295-1.95,6.652-3.804,9.869-5.878
		c2.582-1.664,4.971-3.627,7.493-5.39c0.792-0.553,1.701-1.022,2.625-1.29c4.536-1.309,9.078-2.602,13.65-3.777
		c8.755-2.252,17.532-4.42,26.301-6.622c3.456-0.868,6.911-1.737,10.597-2.662c-0.417-2.982-0.823-5.874-1.229-8.767
		c0.175-0.046,0.35-0.094,0.525-0.14c0.553,1.967,1.15,3.923,1.64,5.905c0.244,0.992,0.383,1.669,1.767,1.431
		c5.75-0.99,11.536-1.771,17.285-2.766c7.516-1.301,15.01-2.727,22.511-4.111c1.27-0.234,1.894-0.972,1.804-2.339
		c-0.19-2.888-0.296-5.78-0.464-8.67c-0.08-1.374-0.812-2.143-2.225-2.209c-8.855-0.41-17.711-0.836-26.567-1.211
		c-0.63-0.025-1.461,0.132-1.884,0.535c-3.218,3.063-7.378,4.364-11.269,6.159c-6.736,3.11-13.498,6.166-20.254,9.235
		c-0.382,0.174-0.807,0.426-1.192,0.395c-4.285-0.338-8.567-0.713-12.848-1.11c-0.979-0.091-1.964-0.231-2.916-0.469
		c-2.262-0.566-4.371-0.431-6.647,0.331c-1.791,0.601-3.883,0.381-5.842,0.395c-7.384,0.048-14.812,0.551-22.141-0.077
		c-8.378-0.717-16.05,2.309-24.087,3.254c-1.674,0.197-3.356,0.306-5.036,0.454c-0.022-0.183-0.045-0.366-0.067-0.549
		c4.744-0.87,9.49-1.721,14.229-2.613c2.355-0.444,4.715-0.886,7.041-1.458c10.516-2.585,21.1-4.252,31.98-2.914
		c4.306,0.529,8.426-0.334,12.476-2.163c-2.063-8.176-2.229-16.406-2.01-24.672c0.135-5.049,0.141-10.1,0.253-15.15
		c0.027-1.255-0.268-1.932-1.651-2.334c-9.688-2.82-19.341-5.758-29.006-8.657c-0.515-0.154-1.028-0.315-1.516-0.832
		c0.788,0.082,1.596,0.083,2.361,0.261c2.517,0.587,5.024,1.218,7.525,1.869c2.385,0.622,2.753,0.362,2.975-2.165
		c0.185-2.086,0.248-4.196,0.63-6.248c0.745-4.017,1.685-7.999,2.519-12c0.15-0.721,0.181-1.467,0.267-2.201
		c0.596-5.098-1.861-8.021-6.731-9.767c-4.512-1.617-8.993-3.203-13.685-4.162c-4.488-0.916-8.676-2.243-12.396-5.255
		c-2.138-1.73-5.2-2.319-7.848-3.416c-1.807-0.748-3.617-1.484-5.326-2.468c20.861,6.563,40.953,15.064,60.785,24.277
		c-4.149-1.259-8.299-2.517-12.86-3.901c-0.402,1.98-1.025,3.797-1.099,5.637c-0.204,5.156-0.529,10.345-0.153,15.473
		c0.398,5.449,3.504,9.326,8.908,10.807c11.628,3.186,23.29,6.251,34.96,9.283c4.43,1.149,8.731,2.515,12.661,4.952
		c3.893,2.413,8.252,3.468,12.765,3.961c1.591,0.174,3.204,0.237,4.765,0.559c1.84,0.379,2.912-0.258,3.632-1.943
		c1.616-3.783,3.316-7.531,5.08-11.511c-1.166-0.65-2.431-1.355-3.694-2.061c0.033-0.082,0.066-0.164,0.1-0.245
		c3.386,1.309,6.772,2.617,10.375,4.011c1.895-4.756,4.623-9.1,4.369-14.375c-0.028-0.587-0.35-1.38-0.802-1.692
		c-5.258-3.642-10.565-7.209-15.862-10.794c-0.191-0.13-0.407-0.226-0.778-0.43c-2.532,4.895-6.028,9.208-7.093,14.773
		c-0.329,1.719,0.205,2.712,1.605,3.456c1.304,0.694,2.633,1.339,3.915,2.069c0.516,0.294,0.933,0.756,1.396,1.142
		c-0.104,0.15-0.206,0.3-0.309,0.449c-7.56-3.866-15.119-7.733-22.68-11.601c0.062-0.133,0.122-0.265,0.183-0.396
		c4.291,1.894,8.582,3.788,13.135,5.799c2.011-6.564,3.98-13.001,5.994-19.576c-4.185-1.519-7.032-4.679-9.948-7.601
		c-3.576-3.583-8.285-4.987-12.484-7.36c-7.286-4.118-14.672-8.06-21.924-12.232c-2.766-1.591-5.262-3.644-7.919-5.429
		c-2.204-1.479-3.245-1.231-4.734,0.945c-3.789,5.536-7.583,11.069-11.38,16.602c-0.271,0.394-0.58,0.76-1.282,0.967
		c0.264-0.573,0.454-1.196,0.802-1.714c3.638-5.417,7.305-10.814,10.953-16.224c1.607-2.384,1.57-2.777-0.849-4.424
		c-9.415-6.408-18.854-12.778-28.282-19.166c-0.588-0.399-1.155-0.828-1.557-1.564c3.53,1.682,7.106,3.276,10.582,5.066
		c5.361,2.759,10.739,5.505,15.946,8.538c3.5,2.039,7.173,2.393,11.028,2.251c0.782-0.029,1.563-0.088,2.773-0.157
		c-1.305,1.096-2.312,1.941-3.563,2.993c7.701,4.951,15.267,9.814,23.052,14.82c1.303-5.573,4.929-9.409,8.973-13.392
		c-3.477-3.293-6.783-6.608-10.332-9.64c-0.754-0.645-2.478-0.578-3.603-0.273c-2.231,0.604-4.356,1.601-6.525,2.435
		c-0.07-0.155-0.141-0.311-0.21-0.465c2.818-1.264,5.637-2.527,8.722-3.91c-6.805-6.447-15.401-10.879-19.856-19.517
		c3.941,4.143,7.882,8.286,11.956,12.567c0.187-0.438,0.311-0.73,0.542-1.276c6.254,5.271,12.743,10.183,18.554,15.796
		c5.836,5.639,11.271,11.678,17.79,16.353c5.139-3.012,8.415-7.343,10.419-12.835c2.085-5.72,5.055-10.961,9.88-14.903
		c0.583-0.477,1.34-0.74,2.016-1.104c0.17,0.189,0.34,0.38,0.511,0.569c-0.416,0.574-0.706,1.388-1.269,1.683
		c-4.686,2.461-6.979,6.836-9.021,11.328c-2.854,6.28-5.505,12.652-11.062,17.377c1.325,1.312,2.364,2.54,3.6,3.521
		c2.265,1.795,4.659,3.426,6.973,5.163c1.048,0.787,1.936,0.711,2.987-0.071c6.476-4.805,12.979-9.569,19.487-14.332
		c3.276-2.397,3.448-3.832,0.724-6.852c-1.692-1.875-3.406-3.651-3.425-6.505c-0.005-1.044-0.869-2.135-1.482-3.116
		c-5.122-8.196-10.277-16.37-15.42-24.554c-0.319-0.508-0.605-1.037-0.674-1.73c0.263,0.303,0.568,0.579,0.783,0.914
		c4.826,7.509,9.521,15.105,14.507,22.508c2.95,4.38,6.332,8.472,9.592,12.638c0.352,0.45,1.303,0.893,1.761,0.729
		c6.487-2.3,12.938-4.704,19.63-7.171c-5.286-17.055-10.541-34.007-15.857-51.163c-5.814,3.005-11.699,0.594-17.484,0.874
		c-5.537,0.269-11.238-0.861-16.614,1.303c-1.748,0.703-3.385,1.682-5.151,2.575c2.098,4.24,6.182,7.16,6.83,11.791
		c-0.258,0.143-0.517,0.285-0.776,0.428c-0.194-0.211-0.429-0.397-0.579-0.636c-3.472-5.509-6.923-11.03-10.417-16.524
		c-0.308-0.482-0.836-0.912-1.358-1.159c-2.689-1.268-3.242-2.269-2.807-5.351c0.105,0.011,0.271-0.019,0.309,0.038
		c3.614,5.417,9.204,6.433,15.069,6.579c4.429,0.111,8.867-0.212,13.297-0.146c3.677,0.055,7.346,0.479,11.021,0.574
		c1.896,0.051,3.816-0.155,5.699-0.425c2.565-0.368,2.713-0.842,1.993-3.304c-1.484-5.069-3.282-10.099-4.169-15.277
		c-1.35-7.873-2.032-15.859-3-23.797c-0.104-0.854-0.138-1.729-0.354-2.557c-2.032-7.733-4.052-15.472-6.189-23.179
		c-0.538-1.941-1.231-3.933-2.305-5.613c-1.51-2.361-1.53-4.804-1.301-7.933c1.173,2.688,2.191,4.887,3.101,7.13
		c7.502,18.499,16.427,36.335,25.14,54.272c2.017,4.15,3.741,8.416,6.824,11.965c0.777,0.893,1.267,2.122,1.626,3.278
		c1.091,3.511,2.001,7.076,3.083,10.59c0.923,2.999,1.863,6.005,3.053,8.903c0.404,0.988,1.453,1.963,2.447,2.397
		c1.282,0.559,1.943,1.258,2.286,2.591c0.246,0.958,0.709,2.058,1.435,2.662c3.496,2.912,7.046,5.771,10.714,8.461
		c2.196,1.61,4.775,2.488,7.81,2.675c0.475-3.256,0.987-6.453,1.401-9.664c0.858-6.659,1.605-13.318,1.193-20.065
		c-0.25-4.103,1.154-7.751,3.155-11.374c4.075-7.376,7.826-14.934,11.568-22.488c3.351-6.766,6.507-13.627,9.686-20.309
		c-0.147,0.572-0.253,1.389-0.561,2.121c-3.555,8.452-7.013,16.948-10.752,25.318c-3.963,8.873-6.102,18.315-9.082,27.495
		c-3.222,9.928-2.841,20.036-2.04,30.195c0.315,3.988,0.967,7.961,1.077,11.951c0.09,3.226-0.445,6.465-0.628,9.703
		c-0.106,1.886-0.006,3.782-0.104,5.67c-0.206,3.997-0.484,7.991-0.723,11.988c-0.021,0.352,0.033,0.707,0.059,1.197
		c3.465-0.37,6.82-0.677,10.16-1.109c1.498-0.195,1.605-1.565,1.743-2.709c0.384-3.24,0.625-6.496,1.039-9.732
		c1.188-9.278,2.204-18.588,3.716-27.815c2.101-12.807,4.603-25.546,6.912-38.317c2.769-15.323,4.841-30.738,6.207-46.253
		c0.544-6.174,1.401-12.32,2.119-18.479c0.158-0.005,0.319-0.009,0.479-0.013c0,0.723,0.001,1.445-0.002,2.168
		c-0.036,12.564-0.085,25.129-0.095,37.693c-0.002,1.598,0.229,3.194,0.3,4.793c0.061,1.386,0.438,2.668-1.113,3.873
		c-0.832,0.646-0.658,2.588-0.997,4.239c5.688,0.859,11.137,1.78,16.611,2.482c5.493,0.705,11.016,1.156,16.519,1.784
		c4.018,0.458,5.685-0.276,7.505-3.824c6.122-11.934,12.193-23.895,18.288-35.844c0.082-0.159,0.218-0.291,0.464-0.373
		c-3.452,14.317-12.127,26.306-17.598,39.749c0.912-1.625,1.824-3.249,2.735-4.873c0.084,0.033,0.168,0.066,0.252,0.099
		c-0.722,1.997-1.415,4.006-2.171,5.989c-2.564,6.729-5.313,13.395-7.647,20.202c-0.938,2.738-0.979,5.784-1.444,8.687
		c-0.125,0.772-0.115,1.659-0.503,2.285c-5.17,8.32-8.11,17.653-12.122,26.498c-2.289,5.043-4.624,10.066-7.024,15.058
		c-0.785,1.632-0.599,2.741,0.984,3.716c3.613,2.228,7.178,4.535,10.903,6.9c2.562-4.099,5.004-8.146,7.58-12.104
		c7.053-10.833,14.167-21.627,21.244-32.444c1.045-1.598,2.009-3.246,3.031-4.856c0.929-1.459,2.117-2.912,0.033-3.752
		c0.777-0.677,1.702-1.185,2.207-1.964c5.898-9.093,13.308-16.559,23.037-21.523c4.769-2.434,9.597-4.757,14.398-7.121
		c0.523-0.258,1.069-0.461,1.682-0.538c-13.794,8.787-26.704,18.56-36.805,30.946c4.588,4.917,9.093,9.748,13.877,14.876
		c7.387-9.301,14.496-18.254,21.605-27.208c0.101,0.062,0.198,0.125,0.299,0.188c-0.717,1.157-1.392,2.346-2.165,3.465
		c-1.047,1.516-2.205,2.954-3.257,4.466c-4.354,6.261-8.619,12.582-13.068,18.774c-1.176,1.638-1.285,2.792-0.023,4.383
		c2.673,3.372,5.183,6.871,7.91,10.523c9.271-9.024,18.414-17.925,27.557-26.824c0.088,0.085,0.177,0.169,0.266,0.253
		c-8.763,9.433-17.524,18.865-26.596,28.629c2.899,3.659,5.822,7.424,8.868,11.085c0.315,0.379,1.521,0.433,2.055,0.15
		c7.945-4.188,15.822-8.507,23.77-12.693c5.749-3.031,11.685-5.724,17.337-8.921c4.123-2.33,7.9-5.266,11.887-7.853
		c0.632-0.412,1.543-0.397,2.328-0.584c0.002-0.005-0.063,0.084-0.063,0.084c-0.285,0.712-0.366,1.688-0.89,2.092
		c-3.273,2.53-6.66,4.91-9.975,7.387c-1.693,1.267-3.172,2.892-5.001,3.892c-3.797,2.072-7.872,3.642-11.636,5.767
		c-9.154,5.168-18.44,10.146-26.668,16.81c-2.861,2.316-5.906,4.402-8.953,6.656c0.971,1.586,1.876,3.065,2.782,4.545
		c-0.198,0.173-0.397,0.344-0.594,0.517c-0.589-0.717-1.222-1.402-1.756-2.156c-1.037-1.459-2.136-1.55-3.593-0.517
		c-15.225,10.778-30.428,21.584-45.733,32.244c-5.552,3.867-11.378,7.345-17.039,11.06c-0.93,0.61-1.655,1.531-2.477,2.309
		c0.121,0.18,0.241,0.359,0.361,0.539c1.077-0.5,2.209-0.909,3.225-1.512c12.54-7.446,25.063-14.919,37.589-22.389
		c5.389-3.214,10.768-6.442,16.161-9.648c0.578-0.344,1.204-0.791,1.833-0.839c2.897-0.216,4.743-2.381,7.094-3.604
		c5.307-2.76,10.755-5.259,16.145-7.864c0.106,0.215,0.214,0.43,0.321,0.645c-1.888,1.078-3.806,2.104-5.635,3.271
		c-0.479,0.306-1.061,1.155-0.945,1.576c1.467,5.393,3.05,10.753,4.686,16.392c5.875-2.5,11.599-4.889,17.281-7.367
		c10.147-4.424,20.071-9.4,30.77-12.471c0.701-0.2,1.42-0.488,2.011-0.905c6.999-4.931,15.28-7.031,22.954-10.472
		c6.844-3.066,13.662-6.191,20.483-9.309c0.485-0.223,0.909-0.587,1.688-1.101c-3.433-0.786-6.593-0.84-9.453,0.376
		c-13.889,5.897-28.991,7.774-43.03,13.145c-1.757,0.672-3.675,0.913-5.521,1.354c-0.048-0.142-0.101-0.283-0.152-0.425
		c3.257-1.347,6.521-2.675,9.767-4.045c6.647-2.802,13.629-4.152,20.746-5.03c1.806-0.224,3.614-0.756,5.322-1.405
		c3.966-1.51,7.871-3.174,11.801-4.78c2.866-1.174,5.714-1.603,8.807-0.631c3.062,0.962,5.955-0.171,8.692-1.541
		c5.83-2.924,11.64-5.889,17.461-8.833c0.514-0.26,1.047-0.483,1.764-0.341c-3.506,1.997-6.99,4.037-10.526,5.981
		c-15.543,8.549-31.54,16.174-47.772,23.305c-2.138,0.939-4.4,1.595-6.54,2.524c-2.359,1.024-4.646,2.208-6.961,3.332
		c-0.993,0.483-1.951,1.05-2.967,1.477c-14.923,6.258-29.852,12.499-44.779,18.748c-0.266,0.112-0.509,0.283-0.579,0.322
		c2.362,2.447,4.892,4.691,6.967,7.299c3.838,4.825,5.471,10.686,7.052,16.522c0.628,2.316,1.26,4.633,1.797,6.972
		c0.22,0.965,0.635,1.278,1.63,1.263c8.746-0.127,17.524,0.235,26.229-0.42c8.068-0.607,16.072-2.185,24.071-3.525
		c5.876-0.983,11.697-2.275,17.64-3.074c-4.443,1.112-8.866,2.324-13.338,3.312c-4.504,0.995-9.048,1.829-13.595,2.621
		c-4.607,0.804-9.239,1.473-13.861,2.195c-4.547,0.713-9.097,1.418-13.42,2.093c0.563,8.717,1.066,17.236,1.695,25.747
		c0.2,2.736,1.043,3.432,3.426,3.758c5.783,0.792,11.567,1.597,17.344,2.441c5.592,0.818,11.176,1.693,16.712,2.908
		c-1.974-0.28-3.953-0.545-5.923-0.841c-9.847-1.48-19.732-1.675-29.668-1.193c-4.232,0.204-8.49-0.113-12.735-0.26
		c-2.275-0.078-2.651,0.17-2.724,2.381c-0.169,5.11-0.287,10.221-0.495,15.329c-0.046,1.161,0.198,1.729,1.455,2.033
		c4.061,0.984,8.08,2.137,12.059,3.496c-5.151-1.001-10.3-2.002-15.45-3.005c-0.044,0.12-0.089,0.241-0.136,0.359
		c0.689,0.299,1.355,0.681,2.072,0.886c5.433,1.552,10.904,2.979,16.31,4.618c9.005,2.729,17.924,5.746,26.961,8.353
		c13.893,4.005,27.857,7.753,41.784,11.632c8.231,2.294,16.43,4.711,24.691,6.909c3.858,1.027,7.82,1.663,11.733,2.484
		c0.474,0.099,0.937,0.247,1.348,0.76C659.468,308.627,655.105,308.306,650.856,307.43z"/>
	<path fill-rule="evenodd" d="M484.075,326.59c-0.183,0.234-0.365,0.469-0.548,0.702c1.274,1.361,2.55,2.72,3.946,4.212
		c0.642-0.75,1.181-1.38,1.892-2.211C487.433,328.307,485.754,327.449,484.075,326.59z"/>
	<path fill-rule="evenodd" d="M495.965,272.729c-1.644,7.759-3.295,15.517-4.9,23.282c-0.282,1.356,0.577,1.919,1.777,2.341
		c2.019,0.714,4.073,1.431,5.931,2.473c5.311,2.975,10.632,5.957,15.761,9.233c5.535,3.539,10.873,7.394,16.268,11.158
		c0.857,0.601,1.52,0.764,2.459,0.17c1.977-1.25,4.048-2.342,6.031-3.579c4.193-2.612,7.791-5.791,9.847-10.444
		c1.368-3.094,2.922-6.107,4.246-9.219c1.36-3.191,2.544-6.459,3.861-9.844c-20.598-5.404-40.802-10.706-60.933-15.989
		C496.113,272.546,495.987,272.627,495.965,272.729z"/>
	<path fill-rule="evenodd" d="M576.604,287.461c-0.017-0.16-0.03-0.321-0.044-0.481c-4.611-0.537-9.223-1.053-13.83-1.628
		c-0.753-0.094-1.499-0.392-2.212-0.688c-0.993-0.413-1.903-1.144-2.929-1.342c-7.789-1.505-15.597-2.918-23.401-4.351
		c-3.977-0.731-7.954-1.445-11.933-2.165c8.629,4.062,56.068,15.607,61.872,15.234c-3.89-1.139-7.78-2.277-12.088-3.538
		C573.84,288.093,575.224,287.776,576.604,287.461z"/>
	<path fill-rule="evenodd" d="M342.239,176.383c-1.302-1.599-2.605-3.197-4.031-4.948c-0.352,1.649-1.073,2.621-2.73,2.735
		c-0.513,0.036-1.081,0.572-1.459,1.018c-1.591,1.873-3.142,3.781-4.662,5.711c-1.734,2.201-1.681,4.638,0.253,6.675
		c1.947,2.053,3.893,4.143,6.083,5.912c0.971,0.785,2.587,1.231,3.839,1.109c2.305-0.227,4.573-0.928,6.825-1.544
		c2.385-0.653,3.175-2.544,1.987-4.723c-1.088-1.998-2.356-3.9-3.417-5.912c-0.646-1.227-1.048-2.582-1.56-3.881
		c0.161-0.067,0.32-0.137,0.481-0.205c1.958,3.112,3.965,6.194,5.854,9.349c0.991,1.656,2.292,2.64,4.217,2.919
		c2.253,0.327,4.477,0.852,6.732,1.145c1.041,0.135,2.127-0.078,3.368-0.144c-0.589-2.598-31.487-40.048-33.979-41.096
		c4.298,8.827,8.405,17.261,12.512,25.693C342.448,176.258,342.345,176.32,342.239,176.383z"/>
	<path fill-rule="evenodd" d="M400.182,419.941c-0.984-11.994-1.969-23.988-2.951-35.983c-1.008,12.151-0.996,24.22,2.448,36.017
		C399.847,419.964,400.014,419.952,400.182,419.941z"/>
	<path fill-rule="evenodd" d="M414.473,448.88c-4.499-0.954-8.999-1.908-13.498-2.863
		C405.155,448.451,409.698,449.202,414.473,448.88z"/>
	<path fill-rule="evenodd" d="M489.761,374.446c0.955-1.622,1.707-3.365,2.668-5.279c-0.727,0.212-1.087,0.316-1.68,0.488
		c0.424-1.02,0.717-1.824,1.085-2.592c1.617-3.385,3.186-6.798,4.915-10.126c1.276-2.456,0.916-4.577-0.718-6.678
		c-1.699-2.183-3.231-4.502-5.002-6.625c-5.302-6.365-10.686-12.665-16.192-19.17c-1.76,1.817-3.416,3.23-4.706,4.921
		c-3.729,4.888-7.301,9.874-12.518,13.389c-1.722,1.159-3.061,2.896-4.802,4.018c-3.131,2.022-6.374,3.892-9.688,5.601
		c-1.723,0.889-2.38,1.695-1.546,3.532c1.828,4.022,3.621,8.071,5.692,11.968c3.085,5.808,6.454,11.466,9.598,17.243
		c1.965,3.609,3.736,7.323,5.584,10.969C472.271,393.211,484.353,383.631,489.761,374.446z"/>
	<path fill-rule="evenodd" d="M380.55,397.814c0.001,0.407,0.229,0.812,0.344,1.223c0.557,1.997,1.361,3.963,1.615,5.999
		c0.407,3.287,0.346,6.631,0.692,9.928c0.183,1.75,0.805,3.451,1.228,5.176c0.217-0.044,0.434-0.09,0.651-0.135
		c-1.06-15.75-2.118-31.5-3.179-47.251C380.055,381.09,380.518,389.461,380.55,397.814z"/>
	<path fill-rule="evenodd" d="M386.223,447.009c0.37,3.134,0.741,6.269,1.111,9.402c0.143-0.014,0.285-0.03,0.428-0.043
		c-0.226-3.153-0.451-6.304-0.677-9.455C386.798,446.945,386.51,446.978,386.223,447.009z"/>
	<path fill-rule="evenodd" d="M394.376,404.311c-0.17-14.529,0.32-29.063,0.53-43.596c0.016-1.029,0.003-2.057,0.003-3.304
		c-1.054,0.263-1.932,0.479-2.808,0.704c-2.133,0.55-4.236,1.273-6.401,1.61c-1.892,0.295-2.677,0.765-2.841,2.671
		c-0.07,0.793-0.017,1.603,0.034,2.399c0.794,12.657,1.596,25.314,2.397,37.972c0.023,0.368,0.006,0.763,0.133,1.098
		c1.379,3.627,0.964,7.396,0.953,11.14c-0.06,18.327,2.572,36.458,4.036,54.675c0.177,2.196,0.455,4.392,0.489,6.592
		c0.033,2.016-0.543,4.089-0.247,6.046c0.78,5.158,1.819,10.283,2.892,15.395c0.557,2.644,1.374,5.235,2.127,7.834
		c0.532,1.833,1.154,3.64,1.737,5.457c0.143-0.026,0.286-0.054,0.429-0.082c-0.325-6.333-0.649-12.666-0.993-19.353
		c-0.507,0.714-0.754,1.062-1.109,1.56c-0.123-0.498-0.209-0.729-0.235-0.967c-1.521-14.056-4.057-28.032-3.32-42.269
		c0.11-2.119,0.384-4.073,1.715-5.896c0.914-1.249,1.65-2.851,1.828-4.369c0.411-3.527,0.759-7.119,0.551-10.65
		C395.789,420.745,394.472,412.538,394.376,404.311z"/>
	<path fill-rule="evenodd" d="M430.709,331.44c-0.069-0.691-0.396-1.45-0.827-2c-2.474-3.141-4.984-6.255-7.572-9.302
		c-0.334-0.394-1.301-0.631-1.79-0.449c-3.228,1.2-6.394,2.564-9.601,3.819c-1.553,0.606-2.048,1.573-1.513,3.182
		c0.583,1.747,0.99,3.553,1.555,5.308c1.598,4.971,2.8,10.134,5.005,14.823c1.644,3.499,3.471,6.837,4.294,10.66
		c0.497,2.305,2.125,3.51,4.467,3.75c3.67,0.38,7.332,0.855,11.011,1.12c2.366,0.169,4.759,0.031,7.618,0.031
		c-1.355-2.711-2.479-5.022-3.66-7.304C435.792,347.543,431.567,340.141,430.709,331.44z"/>
	<path fill-rule="evenodd" d="M432.318,363.688c-3.492-0.185-6.975-0.06-10.226-1.736c-0.093,0.138-0.188,0.273-0.281,0.41
		c1.444,3.113,2.862,6.237,4.342,9.333c0.926,1.938,1.981,2.298,3.835,1.207c2.859-1.681,5.656-3.47,8.48-5.21
		c1.045-0.643,2.095-1.275,3.141-1.912c-0.026-0.189-0.055-0.377-0.081-0.566C438.46,364.68,435.407,363.851,432.318,363.688z"/>
	<path fill-rule="evenodd" d="M416.44,353.432c-0.446-0.918-1.505-1.819-2.479-2.15c-3.081-1.041-6.268-1.771-9.393-2.693
		c-3.043-0.898-5.947-0.24-9.022,0.516c0.563,4.641,1.246,9.023,1.605,13.43c1.075,13.124,1.913,26.271,3.074,39.388
		c0.459,5.178,0.593,10.457,2.653,15.403c0.292,0.703-0.211,1.729-0.321,2.608c-0.133,1.042-0.432,2.111-0.304,3.125
		c0.13,1.005,0.557,2.05,1.12,2.9c0.402,0.608,1.283,1.36,1.884,1.305c3.663-0.335,7.537-0.255,10.906-1.491
		c6.673-2.452,13.197-5.414,19.493-8.719c2.039-1.068,3.234-3.82,4.674-5.901c0.287-0.417,0.062-1.33-0.155-1.932
		c-1.775-4.917-3.393-9.906-5.465-14.696c-4.535-10.484-9.325-20.857-13.983-31.289C419.274,359.976,418.004,356.634,416.44,353.432
		z"/>
	<path fill-rule="evenodd" d="M435.285,419.194c-9.508,4.202-18.949,8.547-28.396,12.883c-0.923,0.423-1.902,0.993-2.506,1.769
		c-1.887,2.426-3.666,4.938-5.339,7.516c-0.512,0.788-1.02,2.29-0.646,2.77c0.589,0.759,1.951,1.257,2.988,1.292
		c4.18,0.139,8.614,0.056,12.614,0.056c0,0.177,0,0.352,0,0.527c4,0,7.204,0.021,10.835-0.012c1.158-0.011,2.289-0.037,3.416-0.274
		c2.999-0.634,5.942-1.605,8.965-2.041c4.012-0.578,7.377-2.08,10.133-5.115c1.575-1.736,2.102-3.438,1.349-5.703
		c-1.958-5.893-3.787-11.831-5.695-17.74c-0.158-0.489-0.528-0.908-0.8-1.359c-0.486,0.305-1.085,0.516-1.437,0.933
		C439.207,416.53,437.598,418.172,435.285,419.194z"/>
	<path fill-rule="evenodd" d="M328.224,257.534c-0.613-1.436-1.036-2.794-1.764-3.965c-0.344-0.552-1.357-1.14-1.924-1.023
		c-2.551,0.53-5.052,1.308-7.719,2.037c0.64,2.119,1.203,3.985,1.86,6.166C321.891,259.666,324.95,258.636,328.224,257.534z"/>
	<path fill-rule="evenodd" d="M330.092,256.889c9.789-4.057,19.401-8.041,29.014-12.024c-10.862,0.717-21.131,3.837-31.617,6.774
		C328.427,253.531,329.233,255.159,330.092,256.889z"/>
	<path fill-rule="evenodd" d="M324.211,239.489c0.775,3.633,1.478,6.915,2.238,10.478c13.352-3.348,26.485-6.639,39.618-9.932
		C352.16,240.771,338.313,241.276,324.211,239.489z"/>
	<path fill-rule="evenodd" d="M344.702,285.84c4.276,5.543,10.37,8.45,16.712,11.516c1.532-9.232,0.73-18.138-0.17-27.491
		c-2.312,1.675-4.459,2.986-6.317,4.629c-3.399,3.009-6.659,6.183-9.89,9.374C344.636,284.264,344.414,285.468,344.702,285.84z"/>
	<path fill-rule="evenodd" d="M380,293.702c-1,0.505-4.16,1.059-6.14,1.389c-3.074,0.513-3.692,1.207-3.368,4.587
		c3.078,0.472,6.508,0.953,9.508,1.455C380,298.538,380,296.175,380,293.702z"/>
	<path fill-rule="evenodd" d="M373.55,206.198c0.252-0.029,0.503-0.059,0.755-0.088c-0.052-0.935-0.006-1.887-0.169-2.801
		c-3.172-17.678-6.374-35.351-9.561-53.026c-0.854-4.734-1.541-5.076-5.897-2.998c-1.253,0.598-1.767,1.424-1.34,2.794
		c0.457,1.467,0.867,2.947,1.298,4.423c4.271,14.639,8.551,29.275,12.808,43.919C372.194,200.999,372.851,203.604,373.55,206.198z"
		/>
	<path fill-rule="evenodd" d="M336.313,153.505c8.915,11.015,17.636,21.785,26.354,32.558c-0.904-13.504-6.175-25.671-10.668-38.149
		C346.707,149.8,341.638,151.606,336.313,153.505z"/>
	<path fill-rule="evenodd" d="M365.408,290.996c-0.561,1.622,0.335,2.023,1.574,2.381c1.569,0.452,1.753-0.633,1.938-1.687
		c0.168-0.96,0.28-1.932,0.365-2.903c0.148-1.734-0.654-2.631-2.625-2.67C366.232,287.826,365.94,289.452,365.408,290.996z"/>
	<path fill-rule="evenodd" d="M367.54,282.843c0.88,0.097,1.517,0.166,2.34,0.257c0.918-5.161,1.815-10.208,2.713-15.254
		c-0.152-0.062-0.303-0.127-0.455-0.19C370.622,272.661,369.105,277.667,367.54,282.843z"/>
	<path fill-rule="evenodd" d="M379.132,302.964c-3.003-0.553-6.023-1.013-9.25-1.534c-0.308,1.885-0.588,3.6-0.881,5.39
		c3.744,0.998,7.264,1.937,10.927,2.913c0-2.106,0.041-3.938-0.035-5.763C379.876,303.611,379.446,303.022,379.132,302.964z"/>
	<path fill-rule="evenodd" d="M377.769,287.782c-1.626-0.259-3.296-0.271-4.949-0.266c-0.325,0.001-0.881,0.482-0.938,0.81
		c-0.253,1.485-0.367,2.995-0.568,4.852c2.51-0.651,4.785-1.104,6.937-1.894c0.619-0.226,1.157-1.417,1.192-2.19
		C379.462,288.663,378.416,287.886,377.769,287.782z"/>
	<path fill-rule="evenodd" d="M336.271,169.273c0.15-0.166,0.187-0.435,0.392-0.942c-7.096,1.825-12.799,5.102-16.516,11.949
		c0.576,0.425,1.229,0.807,1.759,1.315c1.104,1.06,2.213,1.102,3.22,0.004C328.868,177.516,332.567,173.393,336.271,169.273z"/>
	<path fill-rule="evenodd" d="M303.967,269.21c-1.163,0.547-2.376,1.014-3.604,1.397c-7.616,2.383-15.246,4.725-22.863,7.103
		c-0.62,0.195-1.184,0.57-2.078,1.012c3.251,4.103,6.286,7.93,9.392,11.845c4.111-2.421,8.064-4.768,12.037-7.082
		c4.354-2.535,8.74-5.016,13.083-7.568c1.944-1.144,1.996-1.696,0.555-3.445c-0.664-0.807-1.339-1.605-2.036-2.382
		C307.185,268.675,305.713,268.39,303.967,269.21z"/>
	<path fill-rule="evenodd" d="M334.639,209.808c4.978,3.608,10.009,7.143,15.043,10.67c2.189,1.535,4.442,2.98,6.666,4.465
		c0.156-0.116,0.313-0.233,0.471-0.352c-2.824-5.87-5.648-11.741-8.445-17.557c-3.401,1.713-4.36,6.125-8.698,6.005
		c0.47-4.048,4.396-5.075,6.34-7.858c-1.968-1.857-3.907-3.644-5.793-5.486c-1.143-1.118-1.995-0.926-2.803,0.367
		c-1.17,1.878-2.409,3.713-3.573,5.596C332.572,207.717,332.63,208.352,334.639,209.808z"/>
	<path fill-rule="evenodd" d="M320.9,270.277c-1.008-2.039-2.023-4.093-3.062-6.193c-3.311,1.218-6.301,2.32-9.476,3.488
		C314.116,273.817,315.036,273.805,320.9,270.277z"/>
	<path fill-rule="evenodd" d="M298.402,308.141c2.221,4.721,4.365,9.277,6.649,14.133c1-1.161,1.815-2.055,2.57-2.994
		c1.693-2.109,1.621-3.103-0.514-4.73C304.299,312.404,301.417,310.354,298.402,308.141z"/>
	<path fill-rule="evenodd" d="M292.526,300.063c2.77-1.657,5.334-3.191,8.299-4.965
		C296.937,295.029,293.397,297.189,292.526,300.063z"/>
	<path fill-rule="evenodd" d="M348.692,270.081c-8.611,4.167-17.224,8.336-26.071,12.618c3.028,3.306,5.914,6.455,8.892,9.707
		C338.637,285.919,343.627,278.003,348.692,270.081z"/>
	<path fill-rule="evenodd" d="M329.781,205.729c0.851-0.954,1.524-1.747,2.237-2.502c0.72-0.759,1.522-1.441,2.212-2.225
		c1.94-2.208,2.292-4.704,0.602-6.5c-2.767-2.94-5.739-5.688-8.738-8.627c-2.934,3.108-5.86,6.211-8.856,9.387
		C321.516,198.831,325.618,202.255,329.781,205.729z"/>
	<path fill-rule="evenodd" d="M315.767,227.701c-0.385,1.993-0.787,3.981-1.131,5.982c-0.538,3.15-0.176,3.695,3.053,3.998
		c5.94,0.559,11.884,1.229,17.84,1.453c6.661,0.251,13.34,0.057,20.011,0.057c0.044-0.293,0.088-0.589,0.13-0.883
		c-13.146-3.885-26.293-7.77-39.566-11.692C315.907,227.239,315.812,227.466,315.767,227.701z"/>
	<path fill-rule="evenodd" d="M366.69,299.544c0.236-1.282,0.443-2.396,0.677-3.653c-1.12-0.16-2.059-0.293-2.956-0.42
		C363.497,298.088,363.703,298.462,366.69,299.544z"/>
	<path fill-rule="evenodd" d="M341.442,224.771c-1.883-1.331-3.976-2.391-6.051-3.42c-1.512-0.751-2.734-0.266-3.42,1.36
		c-0.785,1.862-1.595,3.714-2.615,6.091c6.347,0.629,12.353,1.226,18.358,1.82c0.043-0.203,0.087-0.404,0.131-0.607
		C345.721,228.253,343.688,226.361,341.442,224.771z"/>
	<path fill-rule="evenodd" d="M364.838,305.781c0.321-1.261,0.643-2.521,1.006-3.943c-1.071-0.151-1.947-0.275-3.15-0.447
		c0.54,1.671,0.992,3.069,1.443,4.467C364.37,305.832,364.604,305.808,364.838,305.781z"/>
	<path fill-rule="evenodd" d="M358.564,319.557c1.479,0.787,3.066,1.371,4.814,2.116c0.65-2.964,1.219-5.553,1.787-8.143
		c-0.115-0.037-0.229-0.076-0.345-0.114c-0.674,1.414-1.35,2.83-2.024,4.246c-0.133-0.025-0.265-0.049-0.397-0.074
		c0.492-2.899,1.028-5.792,1.443-8.701c0.096-0.674-0.221-1.405-0.349-2.111c-0.64,0.402-1.627,0.662-1.859,1.23
		c-1.349,3.283-2.558,6.628-3.699,9.99C357.793,318.416,358.17,319.347,358.564,319.557z"/>
	<path fill-rule="evenodd" d="M337.666,151.246c3.984-1.249,7.929-2.638,11.856-4.062c1.418-0.514,1.685-1.823,1.95-3.514
		c-4.777,1.964-9.165,3.767-13.551,5.57c0.342-0.68,0.831-1.033,1.35-1.333c3.088-1.785,6.175-3.57,9.278-5.328
		c1.34-0.76,1.236-1.989,0.726-3.009c-0.255-0.511-1.501-1.038-2.005-0.834c-5.521,2.236-10.982,4.615-16.707,7.061
		c0.872,1.389,1.592,2.527,2.303,3.672C334.007,151.307,335.738,151.85,337.666,151.246z"/>
	<path fill-rule="evenodd" d="M346.129,254.523c-0.074-0.14-0.148-0.281-0.223-0.425c-4.778,1.669-9.556,3.338-14.488,5.059
		c0.635,1.226,1.16,2.24,1.775,3.429C337.671,259.796,341.899,257.16,346.129,254.523z"/>
	<path fill-rule="evenodd" d="M340.056,271.412c4.483-3.074,7.979-11.565,6.595-15.215c-3.591,2.15-7.203,4.223-10.714,6.457
		c-1.465,0.933-1.51,2.349-0.282,3.823C337.066,268.175,338.592,269.778,340.056,271.412z"/>
	<path fill-rule="evenodd" d="M379.86,184.184c0.206-0.036,0.812-0.249,1.408-0.229c1.539,0.053,1.958-0.687,1.968-2.129
		c0.015-2.027,0.399-4.052,0.385-6.075c-0.068-9.228-0.239-18.453-0.322-27.681c-0.011-1.155-0.64-1.312-1.503-1.343
		c-5.162-0.196-10.322-0.392-15.485-0.577c-1.508-0.055-1.681,0.722-1.394,2.03c2.424,11.05,4.805,22.109,7.185,33.169
		c0.654,3.04,0.631,3.041,3.646,3.079c0.406,0.006,0.812,0.062,1.61,0.126c-1.233,0.87-2.223,1.455-3.057,2.211
		c-0.327,0.296-0.585,1.161-0.395,1.451c1.225,1.863,2.581,3.64,3.894,5.444c0.2-0.037,0.4-0.073,0.602-0.109
		c0.735-2.318,1.57-4.612,2.147-6.968C380.715,185.911,380.131,185.058,379.86,184.184z"/>
	<path fill-rule="evenodd" d="M331.949,263.418c-0.715-0.948-1.168-1.795-1.852-2.372c-0.537-0.453-1.467-0.945-2.031-0.776
		c-2.62,0.782-5.173,1.79-7.891,2.77c1.123,2.097,2.127,3.969,3.189,5.953C326.271,267.106,329.031,265.312,331.949,263.418z"/>
	<path fill-rule="evenodd" d="M356.471,139.121c-1.656,0.394-2.25,1.303-1.527,3.059c2.136,0.205,4.327,0.487,6.527,0.584
		c0.665,0.029,1.353-0.46,2.164-0.762c0.79,0.355,1.806,1.128,2.895,1.249c5.129,0.57,10.276,0.983,15.421,1.405
		c1.45,0.119,2.322-0.626,2.516-2.098c0.136-1.035,0.231-2.075,0.407-3.104c0.311-1.815-0.271-3.042-2.054-3.559
		c-5.312-1.543-10.703-2.269-16.205-1.1c-3.486,0.742-3.482,0.759-3.646,4.341c-0.007,0.179-0.046,0.354-0.153,1.13
		c-1.052-2.712-2.676-2.512-4.442-1.846C357.74,138.661,357.123,138.966,356.471,139.121z"/>
	<path fill-rule="evenodd" d="M357.15,134.505c2.148-0.275,2.848-1.065,2.572-3.176c-1.167-8.959-1.958-17.993-3.693-26.843
		c-1.592-8.108-3.63-16.206-7.347-23.707c-1.062-2.141-2.39-4.147-3.555-6.236c-1.639-2.939-3.313-5.864-4.83-8.867
		c-0.856-1.694-1.384-3.552-2.133-5.305c-5.168-12.103-10.354-24.197-15.541-36.291c-0.204-0.476-0.48-0.919-0.724-1.377
		c-0.133,0.076-0.266,0.153-0.397,0.23c0.152,0.583,0.304,1.167,0.457,1.749c1.771,6.717,3.549,13.432,5.314,20.148
		c2.499,9.512,4.883,19.056,7.532,28.526c1.223,4.372,3.193,8.535,4.416,12.908c4.124,14.749,8.072,29.547,12.072,44.33
		C352.513,135.097,352.49,135.103,357.15,134.505z"/>
	<path fill-rule="evenodd" d="M382.999,133.924c2.106-4.067,0.406-10.35-3.592-13.424c-3.168-2.435-6.351-4.876-9.712-7.023
		c-1.916-1.225-4.205-1.866-6.328-2.771c-0.084,0.188-0.168,0.376-0.253,0.564c0.605,0.57,1.21,1.141,1.815,1.712
		c-0.06,0.066-0.116,0.135-0.174,0.202c-1.494-0.584-2.988-1.169-4.753-1.86c1.124,7.694,2.194,15.033,3.286,22.501
		C370.014,132.979,376.565,131.383,382.999,133.924z"/>
	<path fill-rule="evenodd" d="M382.594,275.988c-0.322-4.289-0.638-8.489-0.952-12.689c-0.106-0.013-0.212-0.028-0.316-0.041
		c-0.266,3.483-0.573,6.966-0.77,10.452C380.494,274.838,380.804,275.925,382.594,275.988z"/>
	<path fill-rule="evenodd" d="M361.307,299.845c-1.346-0.88-2.266-1.741-3.356-2.149c-4.363-1.638-8.375-3.826-11.62-7.209
		c-2.778-2.896-3.322-2.952-6.092,0.004c-0.241,0.258-0.441,0.554-0.646,0.811C343.676,296.675,355.57,301.567,361.307,299.845z"/>
	<path fill-rule="evenodd" d="M366.809,322.614c4.149,0.815,8.325,1.492,12.736,2.267c0.221-4.205,0.464-8.013,0.566-11.823
		c0.013-0.478-0.642-1.284-1.125-1.412c-2.854-0.758-5.738-1.392-8.627-2.002c-1.653-0.349-2.796,0.388-3.209,2.002
		c-0.701,2.738-1.336,5.497-1.929,8.262C364.938,321.226,365.459,322.349,366.809,322.614z"/>
	<path fill-rule="evenodd" d="M358.952,215.564c2.33,2.496,4.475,4.794,6.619,7.092c0.123-0.08,0.247-0.16,0.371-0.24
		c-1.209-3.18-2.417-6.359-3.763-9.899C361.027,213.604,360.022,214.553,358.952,215.564z"/>
	<path fill-rule="evenodd" d="M372.94,283.026c-0.045,0.242-0.185,0.53-0.102,0.717c0.211,0.476,0.432,1.184,0.809,1.307
		c1.849,0.602,3.748,1.042,5.85,1.597c-0.119-2.109-0.221-3.997-0.33-5.883c-0.205-3.502-1.17-4.41-5.02-4.49
		C373.737,278.575,373.337,280.801,372.94,283.026z"/>
	<path fill-rule="evenodd" d="M330.505,292.986c-3.279-2.897-6.416-5.753-9.673-8.46c-0.457-0.381-1.703-0.349-2.256,0.005
		c-6.367,4.082-12.68,8.25-18.985,12.427c-1.215,0.805-2.339,1.748-3.572,2.68c3.65,6.737,10.363,10.487,14.701,16.675
		C318.284,309.267,324.82,301.646,330.505,292.986z"/>
	<path fill-rule="evenodd" d="M378.977,259.785c-0.869,3.632-2.101,7.26-2.914,10.905c-0.87,3.91-2.063,3.919,3.937,4.672
		c0-5.615,0-11.133,0-16.652C379,259.037,379.069,259.402,378.977,259.785z"/>
	<path fill-rule="evenodd" d="M347.794,193.744c-0.639,0.219-1.286,0.414-1.933,0.605c-2.262,0.668-4.524,1.329-7.076,2.079
		c2.935,2.689,5.594,5.124,8.361,7.661c1.618-1.5,3.133-2.919,4.663-4.319c1.971-1.801,2.029-2.122,0.707-4.337
		C350.875,192.68,350.877,192.683,347.794,193.744z"/>
	<path fill-rule="evenodd" d="M315.402,249.504c0.143,0.722,1.232,1.501,1.893,1.504c2.3,0.018,4.604-0.178,7.06-0.422
		c-0.467-3.654-0.93-7.587-1.401-10.587c-3.055,0-5.861,0-9.005,0C314.423,243,314.775,246.327,315.402,249.504z"/>
	<path fill-rule="evenodd" d="M352.858,192.955c2.336,3.055,4.671,6.108,7.106,9.293c0.352-2.678,0.664-5.042,1.023-7.768
		c-2.417-0.606-5.123-1.285-7.83-1.965C353.059,192.662,352.959,192.809,352.858,192.955z"/>
	<path fill-rule="evenodd" d="M352.49,202.1c-3.272,4.412-3.312,2.875,0.126,7.14c3.646,4.521,3.296,4.054,8.262,1.563
		c0.049-0.024,0.077-0.094,0.265-0.339c-1.582-2.729-3.139-5.434-4.714-8.127C354.741,199.449,354.5,199.39,352.49,202.1z"/>
</g>
</svg>
