<?xml version="1.0" encoding="utf-8"?>
<!-- Generator: Adobe Illustrator 16.0.0, SVG Export Plug-In . SVG Version: 6.00 Build 0)  -->
<svg version="1.2" baseProfile="tiny" id="Ebene_1" xmlns="http://www.w3.org/2000/svg" xmlns:xlink="http://www.w3.org/1999/xlink"
	 x="0px" y="0px" width="800px" height="540px" viewBox="0 0 800 540" xml:space="preserve">
<g>
	<path fill-rule="evenodd" d="M662.432,308.438c-3.913-0.821-7.875-1.457-11.733-2.484c-8.262-2.198-16.46-4.615-24.691-6.909
		c-13.927-3.879-27.892-7.627-41.784-11.632c-9.037-2.606-17.956-5.623-26.961-8.353c-5.405-1.64-10.877-3.066-16.31-4.618
		c-0.717-0.205-1.383-0.587-2.072-0.886c0.047-0.118,0.092-0.239,0.136-0.359c5.15,1.003,10.299,2.004,15.45,3.005
		c-3.979-1.359-7.998-2.512-12.059-3.496c-1.257-0.305-1.501-0.872-1.455-2.033c0.208-5.108,0.326-10.219,0.495-15.329
		c0.072-2.211,0.448-2.459,2.724-2.381c4.245,0.146,8.503,0.464,12.735,0.26c9.936-0.481,19.821-0.287,29.668,1.193
		c1.97,0.296,3.949,0.561,5.923,0.841c-5.536-1.215-11.12-2.09-16.712-2.908c-5.776-0.845-11.561-1.649-17.344-2.441
		c-2.383-0.326-3.226-1.021-3.426-3.758c-0.629-8.511-1.132-17.03-1.695-25.747c4.323-0.675,8.873-1.38,13.42-2.093
		c4.622-0.723,9.254-1.392,13.861-2.195c4.547-0.792,9.091-1.626,13.595-2.621c4.472-0.987,8.895-2.199,13.338-3.312
		c-5.942,0.799-11.764,2.091-17.64,3.074c-7.999,1.341-16.003,2.918-24.071,3.525c-8.704,0.655-17.482,0.293-26.229,0.42
		c-0.995,0.016-1.41-0.298-1.63-1.263c-0.537-2.339-1.169-4.655-1.797-6.972c-1.581-5.837-3.214-11.697-7.052-16.522
		c-2.075-2.607-4.604-4.852-6.967-7.299c0.07-0.039,0.313-0.21,0.579-0.322c14.928-6.249,29.856-12.49,44.779-18.748
		c1.016-0.427,1.974-0.993,2.967-1.477c2.314-1.124,4.602-2.308,6.961-3.332c2.14-0.93,4.402-1.585,6.54-2.524
		c16.232-7.131,32.229-14.756,47.772-23.305c3.536-1.944,7.021-3.984,10.526-5.981c-0.717-0.143-1.25,0.081-1.764,0.341
		c-5.821,2.944-11.631,5.909-17.461,8.833c-2.737,1.37-5.63,2.503-8.692,1.541c-3.093-0.972-5.94-0.543-8.807,0.631
		c-3.93,1.606-7.835,3.271-11.801,4.78c-1.708,0.649-3.517,1.182-5.322,1.405c-7.117,0.878-14.099,2.229-20.746,5.03
		c-3.246,1.37-6.51,2.698-9.767,4.045c0.052,0.142,0.104,0.283,0.152,0.425c1.846-0.441,3.764-0.683,5.521-1.354
		c14.039-5.37,29.142-7.247,43.03-13.145c2.86-1.216,6.021-1.162,9.453-0.376c-0.779,0.514-1.203,0.878-1.688,1.101
		c-6.821,3.117-13.64,6.242-20.483,9.309c-7.674,3.44-15.955,5.541-22.954,10.472c-0.591,0.417-1.31,0.705-2.011,0.905
		c-10.698,3.07-20.622,8.047-30.77,12.471c-5.683,2.479-11.406,4.867-17.281,7.367c-1.636-5.639-3.219-10.999-4.686-16.392
		c-0.115-0.421,0.467-1.271,0.945-1.576c1.829-1.167,3.747-2.193,5.635-3.271c-0.107-0.215-0.215-0.43-0.321-0.645
		c-5.39,2.605-10.838,5.104-16.145,7.864c-2.351,1.223-4.196,3.388-7.094,3.604c-0.629,0.048-1.255,0.495-1.833,0.839
		c-5.394,3.206-10.772,6.435-16.161,9.648c-12.525,7.47-25.049,14.942-37.589,22.389c-1.016,0.603-2.147,1.012-3.225,1.512
		c-0.12-0.18-0.24-0.359-0.361-0.539c0.821-0.777,1.547-1.698,2.477-2.309c5.661-3.715,11.487-7.192,17.039-11.06
		c15.306-10.66,30.509-21.466,45.733-32.244c1.457-1.033,2.556-0.942,3.593,0.517c0.534,0.754,1.167,1.439,1.756,2.156
		c0.196-0.173,0.396-0.344,0.594-0.517c-0.906-1.479-1.812-2.959-2.782-4.545c3.047-2.254,6.092-4.34,8.953-6.656
		c8.228-6.663,17.514-11.642,26.668-16.81c3.764-2.125,7.839-3.694,11.636-5.767c1.829-1,3.308-2.625,5.001-3.892
		c3.314-2.477,6.701-4.856,9.975-7.387c0.523-0.404,0.604-1.38,0.89-2.092c0,0,0.065-0.089,0.063-0.084
		c-0.785,0.187-1.696,0.172-2.328,0.584c-3.986,2.587-7.764,5.522-11.887,7.853c-5.652,3.197-11.588,5.89-17.337,8.921
		c-7.947,4.187-15.824,8.505-23.77,12.693c-0.534,0.282-1.739,0.229-2.055-0.15c-3.046-3.661-5.969-7.426-8.868-11.085
		c9.071-9.764,17.833-19.196,26.596-28.629c-0.089-0.084-0.178-0.168-0.266-0.253c-9.143,8.899-18.286,17.8-27.557,26.824
		c-2.728-3.652-5.237-7.151-7.91-10.523c-1.262-1.591-1.152-2.745,0.023-4.383c4.449-6.192,8.714-12.514,13.068-18.774
		c1.052-1.512,2.21-2.95,3.257-4.466c0.773-1.119,1.448-2.308,2.165-3.465c-0.101-0.062-0.198-0.125-0.299-0.188
		c-7.109,8.954-14.219,17.907-21.605,27.208c-4.784-5.128-9.289-9.959-13.877-14.876c10.101-12.387,23.011-22.159,36.805-30.946
		c-0.612,0.077-1.158,0.28-1.682,0.538c-4.802,2.364-9.63,4.688-14.398,7.121c-9.729,4.965-17.139,12.431-23.037,21.523
		c-0.505,0.779-1.43,1.287-2.207,1.964c2.084,0.84,0.896,2.293-0.033,3.752c-1.022,1.61-1.986,3.259-3.031,4.856
		c-7.077,10.817-14.191,21.611-21.244,32.444c-2.576,3.959-5.019,8.006-7.58,12.104c-3.726-2.365-7.29-4.673-10.903-6.9
		c-1.583-0.975-1.77-2.084-0.984-3.716c2.4-4.991,4.735-10.015,7.024-15.058c4.012-8.845,6.952-18.178,12.122-26.498
		c0.388-0.626,0.378-1.513,0.503-2.285c0.466-2.902,0.506-5.948,1.444-8.687c2.334-6.808,5.083-13.473,7.647-20.202
		c0.756-1.983,1.449-3.992,2.171-5.989c-0.084-0.032-0.168-0.065-0.252-0.099c-0.911,1.624-1.823,3.248-2.735,4.873
		c5.471-13.443,14.146-25.432,17.598-39.749c-0.246,0.082-0.382,0.214-0.464,0.373c-6.095,11.949-12.166,23.91-18.288,35.844
		c-1.82,3.548-3.487,4.282-7.505,3.824c-5.503-0.628-11.025-1.079-16.519-1.784c-5.475-0.702-10.923-1.623-16.611-2.482
		c0.339-1.651,0.165-3.594,0.997-4.239c1.551-1.205,1.174-2.487,1.113-3.873c-0.07-1.599-0.302-3.195-0.3-4.793
		c0.01-12.564,0.059-25.129,0.095-37.693c0.003-0.723,0.002-1.445,0.002-2.168c-0.16,0.004-0.321,0.008-0.479,0.013
		c-0.718,6.158-1.575,12.305-2.119,18.479c-1.366,15.515-3.438,30.93-6.207,46.253c-2.31,12.771-4.812,25.511-6.912,38.317
		c-1.512,9.228-2.527,18.537-3.716,27.815c-0.414,3.236-0.655,6.492-1.039,9.732c-0.138,1.144-0.245,2.514-1.743,2.709
		c-3.34,0.433-6.695,0.739-10.16,1.109c-0.025-0.49-0.08-0.846-0.059-1.197c0.238-3.997,0.517-7.991,0.723-11.988
		c0.098-1.888-0.003-3.784,0.104-5.67c0.183-3.238,0.718-6.478,0.628-9.703c-0.11-3.99-0.762-7.963-1.077-11.951
		c-0.801-10.159-1.182-20.268,2.04-30.195c2.98-9.18,5.119-18.622,9.082-27.495c3.739-8.37,7.197-16.866,10.752-25.318
		c0.308-0.732,0.413-1.549,0.561-2.121c-3.179,6.682-6.335,13.543-9.686,20.309c-3.742,7.555-7.493,15.112-11.568,22.488
		c-2.001,3.623-3.405,7.271-3.155,11.374c0.412,6.747-0.335,13.406-1.193,20.065c-0.414,3.211-0.927,6.408-1.401,9.664
		c-3.034-0.187-5.613-1.064-7.81-2.675c-3.668-2.69-7.218-5.549-10.714-8.461c-0.726-0.604-1.188-1.704-1.435-2.662
		c-0.343-1.333-1.004-2.032-2.286-2.591c-0.994-0.435-2.043-1.409-2.447-2.397c-1.189-2.898-2.13-5.904-3.053-8.903
		c-1.082-3.514-1.992-7.079-3.083-10.59c-0.359-1.156-0.849-2.386-1.626-3.278c-3.083-3.549-4.808-7.814-6.824-11.965
		c-8.713-17.938-17.638-35.773-25.14-54.272c-0.909-2.243-1.928-4.442-3.101-7.13c-0.229,3.129-0.209,5.571,1.301,7.933
		c1.073,1.681,1.767,3.672,2.305,5.613c2.138,7.707,4.157,15.445,6.189,23.179c0.217,0.827,0.25,1.702,0.354,2.557
		c0.968,7.938,1.65,15.924,3,23.797c0.887,5.179,2.685,10.208,4.169,15.277c0.72,2.462,0.572,2.936-1.993,3.304
		c-1.883,0.27-3.803,0.476-5.699,0.425c-3.675-0.096-7.344-0.52-11.021-0.574c-4.43-0.066-8.868,0.257-13.297,0.146
		c-5.865-0.146-11.455-1.162-15.069-6.579c-0.037-0.057-0.203-0.027-0.309-0.038c-0.436,3.082,0.117,4.083,2.807,5.351
		c0.522,0.247,1.051,0.677,1.358,1.159c3.494,5.494,6.945,11.016,10.417,16.524c0.15,0.238,0.385,0.425,0.579,0.636
		c0.26-0.143,0.519-0.285,0.776-0.428c-0.648-4.631-4.732-7.551-6.83-11.791c1.767-0.894,3.403-1.872,5.151-2.575
		c5.376-2.164,11.077-1.034,16.614-1.303c5.785-0.28,11.67,2.131,17.484-0.874c5.316,17.156,10.571,34.108,15.857,51.163
		c-6.692,2.467-13.143,4.871-19.63,7.171c-0.458,0.163-1.409-0.279-1.761-0.729c-3.26-4.166-6.642-8.258-9.592-12.638
		c-4.985-7.402-9.681-14.999-14.507-22.508c-0.215-0.335-0.521-0.611-0.783-0.914c0.068,0.693,0.354,1.223,0.674,1.73
		c5.143,8.184,10.298,16.357,15.42,24.554c0.613,0.981,1.478,2.072,1.482,3.116c0.019,2.854,1.732,4.63,3.425,6.505
		c2.725,3.02,2.553,4.454-0.724,6.852c-6.508,4.763-13.012,9.527-19.487,14.332c-1.052,0.782-1.939,0.858-2.987,0.071
		c-2.313-1.737-4.708-3.368-6.973-5.163c-1.235-0.98-2.274-2.208-3.6-3.521c5.557-4.725,8.207-11.097,11.062-17.377
		c2.042-4.492,4.336-8.867,9.021-11.328c0.562-0.295,0.853-1.108,1.269-1.683c-0.171-0.189-0.341-0.38-0.511-0.569
		c-0.676,0.363-1.433,0.627-2.016,1.104c-4.825,3.942-7.795,9.184-9.88,14.903c-2.004,5.492-5.28,9.823-10.419,12.835
		c-6.519-4.675-11.954-10.714-17.79-16.353c-5.811-5.613-12.3-10.525-18.554-15.796c-0.231,0.546-0.355,0.838-0.542,1.276
		c-4.074-4.281-8.015-8.425-11.956-12.567c4.455,8.638,13.052,13.069,19.856,19.517c-3.085,1.383-5.903,2.646-8.722,3.91
		c0.069,0.154,0.14,0.31,0.21,0.465c2.169-0.834,4.294-1.831,6.525-2.435c1.125-0.305,2.849-0.371,3.603,0.273
		c3.549,3.031,6.855,6.347,10.332,9.64c-4.044,3.982-7.67,7.818-8.973,13.392c-7.785-5.006-15.351-9.869-23.052-14.82
		c1.251-1.052,2.259-1.897,3.563-2.993c-1.21,0.069-1.991,0.128-2.773,0.157c-3.855,0.142-7.528-0.212-11.028-2.251
		c-5.207-3.033-10.585-5.779-15.946-8.538c-3.476-1.79-7.052-3.385-10.582-5.066c0.401,0.736,0.969,1.165,1.557,1.564
		c9.428,6.388,18.867,12.758,28.282,19.166c2.419,1.646,2.456,2.04,0.849,4.424c-3.648,5.409-7.315,10.807-10.953,16.224
		c-0.348,0.518-0.538,1.141-0.802,1.714c0.702-0.207,1.012-0.573,1.282-0.967c3.797-5.532,7.591-11.065,11.38-16.602
		c1.489-2.177,2.53-2.424,4.734-0.945c2.657,1.785,5.153,3.838,7.919,5.429c7.252,4.173,14.638,8.114,21.924,12.232
		c4.199,2.373,8.908,3.777,12.484,7.36c2.916,2.922,5.764,6.082,9.948,7.601c-2.014,6.575-3.983,13.012-5.994,19.576
		c-4.553-2.011-8.844-3.905-13.135-5.799c-0.061,0.132-0.121,0.264-0.183,0.396c7.561,3.867,15.12,7.734,22.68,11.601
		c0.103-0.149,0.205-0.299,0.309-0.449c-0.463-0.386-0.88-0.848-1.396-1.142c-1.282-0.73-2.611-1.375-3.915-2.069
		c-1.4-0.744-1.935-1.737-1.605-3.456c1.064-5.565,4.561-9.879,7.093-14.773c0.371,0.204,0.587,0.3,0.778,0.43
		c5.297,3.585,10.604,7.152,15.862,10.794c0.452,0.312,0.773,1.105,0.802,1.692c0.254,5.275-2.475,9.619-4.369,14.375
		c-3.603-1.394-6.989-2.702-10.375-4.011c-0.033,0.081-0.066,0.163-0.1,0.245c1.264,0.705,2.528,1.41,3.694,2.061
		c-1.764,3.979-3.464,7.728-5.08,11.511c-0.72,1.686-1.792,2.322-3.632,1.943c-1.561-0.321-3.174-0.385-4.765-0.559
		c-4.513-0.493-8.872-1.548-12.765-3.961c-3.93-2.438-8.231-3.803-12.661-4.952c-11.67-3.032-23.332-6.098-34.96-9.283
		c-5.404-1.48-8.51-5.357-8.908-10.807c-0.376-5.128-0.051-10.316,0.153-15.473c0.073-1.84,0.696-3.656,1.099-5.637
		c4.562,1.385,8.711,2.643,12.86,3.901c-19.832-9.213-39.924-17.714-60.785-24.277c1.709,0.983,3.52,1.72,5.326,2.468
		c2.647,1.097,5.71,1.686,7.848,3.416c3.721,3.012,7.908,4.339,12.396,5.255c4.691,0.959,9.173,2.545,13.685,4.162
		c4.87,1.745,7.327,4.669,6.731,9.767c-0.086,0.734-0.116,1.48-0.267,2.201c-0.834,4.001-1.773,7.983-2.519,12
		c-0.382,2.052-0.445,4.162-0.63,6.248c-0.222,2.527-0.59,2.787-2.975,2.165c-2.501-0.651-5.009-1.282-7.525-1.869
		c-0.766-0.178-1.573-0.179-2.361-0.261c0.487,0.517,1.001,0.678,1.516,0.832c9.665,2.899,19.318,5.837,29.006,8.657
		c1.384,0.402,1.679,1.079,1.651,2.334c-0.112,5.051-0.118,10.102-0.253,15.15c-0.22,8.266-0.054,16.496,2.01,24.672
		c-4.05,1.829-8.17,2.692-12.476,2.163c-10.881-1.338-21.465,0.329-31.98,2.914c-2.326,0.572-4.686,1.014-7.041,1.458
		c-4.739,0.893-9.485,1.743-14.229,2.613c0.022,0.183,0.045,0.366,0.067,0.549c1.68-0.148,3.362-0.257,5.036-0.454
		c8.037-0.945,15.709-3.971,24.087-3.254c7.329,0.628,14.757,0.125,22.141,0.077c1.959-0.014,4.051,0.206,5.842-0.395
		c2.276-0.762,4.386-0.897,6.647-0.331c0.952,0.237,1.937,0.378,2.916,0.469c4.28,0.397,8.562,0.772,12.848,1.11
		c0.386,0.031,0.811-0.221,1.192-0.395c6.756-3.069,13.518-6.125,20.254-9.235c3.891-1.795,8.051-3.096,11.269-6.159
		c0.423-0.403,1.254-0.561,1.884-0.535c8.856,0.375,17.712,0.801,26.567,1.211c1.412,0.066,2.145,0.835,2.225,2.209
		c0.168,2.89,0.273,5.782,0.464,8.67c0.09,1.367-0.534,2.104-1.804,2.339c-7.501,1.385-14.995,2.811-22.511,4.111
		c-5.749,0.995-11.535,1.775-17.285,2.766c-1.384,0.238-1.522-0.438-1.767-1.431c-0.489-1.982-1.087-3.938-1.64-5.905
		c-0.176,0.046-0.351,0.094-0.525,0.14c0.406,2.893,0.812,5.784,1.229,8.767c-3.686,0.925-7.141,1.794-10.597,2.662
		c-8.769,2.202-17.546,4.37-26.301,6.622c-4.572,1.176-9.114,2.469-13.65,3.777c-0.924,0.268-1.833,0.737-2.625,1.29
		c-2.522,1.763-4.911,3.726-7.493,5.39c-3.217,2.074-6.574,3.928-9.869,5.878c-0.233-0.088-0.466-0.179-0.698-0.267
		c-0.312-10.269-0.625-20.537-0.938-30.809c-0.348,0.229-0.4,0.46-0.437,0.694c-1.357,8.645-0.712,17.33-0.508,26.004
		c0.021,0.905,0.221,1.856,0.563,2.691c0.545,1.332,0.221,2.365-0.929,3.014c-3.409,1.928-6.794,3.923-10.332,5.591
		c-4.604,2.169-9.476,3.795-14.002,6.105c-7.46,3.808-15.176,6.695-23.44,8.128c-3.777,0.655-7.521,1.51-11.281,2.272
		c0.048,0.301,0.096,0.601,0.144,0.902c2.101-0.245,4.252-0.281,6.294-0.772c8.38-2.017,17.054-2.678,24.948-6.86
		c6.273-3.324,13.122-5.554,19.689-8.333c3.554-1.504,7.051-3.142,10.741-4.796c2.008,5.09,3.908,9.904,5.854,14.839
		c-7.241,2.658-14.235,5.226-21.229,7.793c4.371-1.053,8.626-2.442,12.906-3.744c4.83-1.472,9.534-3.162,14.104-5.399
		c4.782-2.341,9.896-4.023,14.912-5.864c4.377-1.604,8.826-3.01,13.232-4.535c2.657-0.92,5.294-1.898,8.013-2.877
		c0.244,0.556,0.448,0.872,0.523,1.217c1.206,5.548,3.942,10.098,8.37,13.741c2.026,1.667,1.615,3.676-0.72,5.124
		c-3.663,2.271-7.316,4.563-11.07,6.676c-7.394,4.158-14.566,8.884-22.349,12.133c-13.466,5.625-26.784,11.491-39.937,17.824
		c-9.904,4.768-20.322,8.472-30.511,12.653c-3.911,1.606-7.82,3.223-11.729,4.834c0.491,0.235,0.896,0.205,1.28,0.099
		c10.195-2.83,20.327-5.917,30.599-8.432c10.27-2.517,20.676-4.476,31.03-6.635c0.883-0.186,1.9-0.274,2.74-0.021
		c4.221,1.266,7.62-0.319,11.037-2.622c5.593-3.77,11.352-7.294,17.04-10.92c0.104-0.065,0.213-0.125,0.318-0.188
		c3.757-2.227,7.459-4.555,11.284-6.66c6.197-3.41,12.443-6.741,18.755-9.934c0.972-0.492,2.643-0.499,3.579,0.017
		c2.348,1.292,4.52,2.933,6.655,4.574c5.479,4.208,11.068,8.208,17.433,11.029c2.439,1.08,2.579,2.18,0.814,4.253
		c-8.341,9.805-16.677,19.614-26.455,28.069c-0.967,0.836-1.973,1.759-2.585,2.85c-3.189,5.68-7.324,10.58-11.857,15.216
		c-2.923,2.988-5.5,6.311-8.391,9.332c-1.289,1.347-2.855,2.539-4.512,3.381c-0.963,0.489-1.551,0.902-1.904,1.911
		c-1.779,5.05-3.827,10.016-5.384,15.131c-1.47,4.827-3.941,8.651-8.395,11.176c-1.541,0.873-2.834,2.17-4.303,3.18
		c-5.265,3.624-9.986,7.784-13.631,13.106c-1.458,2.131-3.178,4.08-4.775,6.114c-1.149,1.466-2.294,2.933-3.44,4.399
		c2.109-1.806,3.925-3.847,5.689-5.932c5.675-6.701,11.653-13.003,19.673-17.051c3.671-1.853,6.199-4.988,7.794-8.826
		c0.353-0.846,0.729-1.754,1.337-2.408c2.038-2.189,2.707-4.897,3.287-7.698c1.115-5.369,3.792-9.989,7.293-14.109
		c2.509-2.948,5.241-5.71,7.943-8.488c1.32-1.358,2.778-2.586,4.216-3.825c0.578-0.5,1.343-0.792,1.891-1.316
		c0.971-0.93,1.8-2.007,2.762-2.947c3.464-3.394,6.968-6.746,10.437-10.134c0.686-0.671,1.284-1.429,2.171-2.424
		c0.814,1.34,1.658,2.393,2.14,3.591c0.991,2.461,0.215,4.729-0.835,7.071c-4.023,8.982-7.894,18.034-11.841,27.051
		c-0.481,1.101-1.08,2.147-1.667,3.305c-0.675-0.489-1.136-0.822-1.859-1.346c-0.066,0.939-0.339,1.673-0.115,2.198
		c0.768,1.802,0.192,3.355-0.559,4.953c-1.702,3.621-3.475,7.213-5.027,10.898c-7.34,17.407-14.615,34.842-21.907,52.269
		c-0.235,0.563-0.4,1.155-0.599,1.734c0.11,0.036,0.219,0.072,0.328,0.107c9.733-21.777,19.467-43.555,29.332-65.627
		c0.889,1.3,1.585,2.359,2.321,3.392c2.217,3.1,4.369,6.25,6.718,9.248c0.776,0.99,2.078,1.571,3.139,2.338
		c0.086-0.133,0.17-0.266,0.255-0.399c-1.851-2.161-3.701-4.321-5.553-6.482c0.11-0.108,0.221-0.219,0.331-0.327
		c2.412,1.993,4.823,3.985,7.235,5.977c-0.193-0.711-0.614-1.186-1.069-1.622c-2.575-2.472-5.119-4.979-7.753-7.387
		c-2.365-2.163-2.937-4.832-2.171-7.752c1.025-3.917,1.991-7.891,3.508-11.63c3.119-7.691,6.581-15.246,9.922-22.85
		c0.25-0.567,0.656-1.066,0.807-1.308c2.943,2.187,5.452,4.707,8.473,6.167c8.337,4.038,17.167,6.752,26.311,8.362
		c0.553,0.097,1.147-0.039,1.723-0.067c-10.68-2.641-21.182-5.373-30.479-11.426c0.342-0.292,0.652-0.421,0.886-0.338
		c5.807,2.064,11.849,2.547,17.939,3.104c6.295,0.575,12.522,1.899,18.779,2.899c3.767,0.602,4.448,1.916,3.094,5.453
		c-0.487,1.271-1.085,1.504-2.33,1.197c-1.718-0.423-3.488-0.634-5.236-0.935c-0.027,0.125-0.056,0.253-0.084,0.38
		c2.159,0.763,4.316,1.525,6.406,2.264c-0.03,0.381-0.016,0.512-0.054,0.625c-5.856,17.439-11.701,34.883-17.584,52.314
		c-1.592,4.717-1.641,4.688-6.354,2.948c-1.641-0.606-3.286-0.9-4.908,0.309c2.283,3.76,6.287,1.216,9.329,2.709
		c-1.088,2.79-2.09,5.558-3.236,8.263c-5.818,13.714-13.919,26.166-21.508,38.903c-2.032,3.409-4,6.856-5.998,10.287
		c9.044-11.738,17.009-24.149,24.202-37.132c0.135,11.322-5.005,21.54-6.605,32.915c0.409-1.119,0.725-1.827,0.932-2.567
		c2.089-7.464,4.126-14.944,6.255-22.399c0.992-3.474,2.313-6.86,3.199-10.361c1.251-4.944,2.171-9.972,3.387-14.925
		c0.262-1.062,1.188-1.958,2.008-3.243c0-0.655-0.315-1.982,0.049-3.087c3.253-9.875,6.486-19.761,10.007-29.543
		c2.686-7.461,5.78-14.773,8.685-22.156c0.689-1.753,1.915-2.823,3.798-3.084c5.614-0.775,11.153-0.526,16.802,1.236
		c-2.07,7.43-4.123,14.792-6.191,22.211c-1.204-0.332-2.126-0.588-3.511-0.971c0.784,0.58,1.138,0.952,1.572,1.145
		c1.855,0.826,2.318,2.171,2.01,4.143c-1.971,12.583-3.821,25.186-5.787,37.771c-1.243,7.959-2.618,15.896-3.935,23.843
		c0.497-0.358,0.658-0.79,0.755-1.233c2.533-11.654,3.889-23.539,7.351-35.027c2.088-6.934,3.233-14.147,4.864-21.224
		c0.539-2.336,0.934-2.538,3.355-2.388c0.614,0.037,1.226,0.116,1.842,0.164c9.515,0.709,19.029,1.431,28.547,2.114
		c2.677,0.192,5.361,0.265,7.71,0.377c1.129,10.963,2.129,21.688,3.357,32.388c1.732,15.109,3.715,30.168,8.203,44.797
		c2.283,7.438,4.634,14.884,5.382,22.729c0.398,4.179,1.445,8.295,2.2,12.438c0.227-4.365,0.424-8.679,0.18-12.965
		c-0.347-6.055-1.052-12.091-1.544-18.141c-1.229-15.096-2.448-30.192-3.617-45.295c-0.278-3.591-1.188-7.199,0.11-10.799
		c0.752-2.093,1.44-2.496,3.585-1.892c7.729,2.175,15.545,3.11,23.532,1.633c1.27-0.236,2.554-0.404,3.832-0.599
		c8.073-1.226,16.105-2.596,23.35-6.705c0.085-0.048,0.231,0.015,0.325,0.023c6.228,15.038,12.449,30.065,18.672,45.092
		c0.021-0.965-0.191-1.846-0.486-2.699c-3.238-9.399-6.496-18.793-9.734-28.193c-2.825-8.201-5.552-16.439-8.473-24.607
		c-3.328-9.309-6.688-18.596-10.625-27.693c-3.806-8.788-6.222-18.171-11.123-26.516c-0.146-0.249-0.19-0.558-0.323-0.966
		c4.643-2.398,9.222-4.783,13.819-7.131c2.713-1.387,4.059-0.997,5.595,1.711c3.008,5.301,6.038,10.59,8.904,15.967
		c3.528,6.619,6.657,13.463,10.387,19.963c6.768,11.792,13.848,23.403,20.803,35.086c0.281,0.472,0.616,0.911,0.929,1.367
		c-5.421-13.162-13.384-24.833-21.045-36.918c4.021-1.437,7.774-2.782,11.534-4.117c0.225-0.081,0.509-0.161,0.719-0.095
		c3.661,1.17,5.929-0.834,8.034-3.401c3.086-3.758,6.081-7.612,9.424-11.133c5.542-5.836,11.328-11.438,17.014-17.134
		c0.037-0.037,0.117-0.031,0.245-0.062c6.921,4.912,13.836,9.746,19.239,16.659c4.73,6.05,10.532,11.26,15.861,16.842
		c0.118-0.108,0.237-0.217,0.357-0.326c-9.246-11.349-18.102-23.041-29.365-32.635c3.382-4.543,6.641-8.92,9.916-13.319
		c4.952,3.038,9.74,5.979,14.529,8.92c0.062-0.101,0.129-0.201,0.191-0.302c-6.9-4.865-13.801-9.728-20.877-14.716
		c5.187-8.111,8.6-16.765,10.587-26.09c7.021,2.834,13.719,5.537,20.414,8.24c0.054-0.13,0.107-0.263,0.161-0.394
		c-7.426-3.368-14.853-6.736-22.658-10.276c1.729-1.258,3.104-2.509,4.692-3.364c5.214-2.812,9.394-6.66,12.606-11.644
		c2.263-3.508,4.743-6.872,7.105-10.316c0.974-1.42,1.96-2.841,2.813-4.332c2.439-4.256,2.416-4.284,7.181-3.349
		c16.244,3.188,32.508,6.295,48.728,9.612c11.637,2.38,23.197,5.133,34.83,7.528c4.249,0.876,8.611,1.197,12.923,1.769
		C663.368,308.686,662.905,308.537,662.432,308.438z M235.019,140.592c-3.477-2.211-6.953-4.423-10.43-6.634
		c0.062-0.113,0.123-0.228,0.186-0.342c3.172,1.565,6.371,3.079,9.49,4.742c0.576,0.307,0.832,1.214,1.235,1.844
		C235.34,140.332,235.18,140.462,235.019,140.592z M238,142.135c0-0.183,0-0.363,0-0.546c0-0.103,0.82-0.421,1.178-0.279
		c6.358,2.539,12.014,6.385,17.255,10.779C250.259,148.771,243,145.453,238,142.135z M240.344,250.111
		c-0.987-0.489-2.011-0.919-2.938-1.503c-0.281-0.178-0.319-0.774-0.425-1.189c-1.539-6.048-2.444-12.179-2.352-20.104
		c0.131-3.878,0.504-9.394,2.223-14.726c0.984-3.053,4.933-5.248,7.99-4.396c2.369,0.658,4.73,1.35,7.068,2.111
		c1.962,0.639,2.189,1.223,1.575,3.126c-1.537,4.762-3.859,9.129-6.184,13.552c-2.759,5.253-4.763,10.901-7.037,16.403
		c-0.176,0.424,0.047,1.049,0.177,1.556c0.229,0.885,0.747,1.756,0.734,2.627C241.165,248.42,240.642,249.264,240.344,250.111z
		 M263.899,245.777c-4.149,1.989-8.417,3.733-12.672,5.493c-0.71,0.294-1.565,0.237-2.393,0.348c-1.2-0.156-2.415-0.403-3.638-0.451
		c-1.668-0.063-2.072-1.088-2.049-2.453c0.046-2.693,0.113-5.388,0.245-8.078c0.034-0.719,0.204-1.488,0.524-2.128
		c2.07-4.115,4.208-8.197,6.301-12.302c0.5-0.982,0.828-2.062,1.394-3.001c0.424-0.702,1.018-1.639,1.687-1.789
		c1.278-0.286,1.569-0.99,1.833-2.083c0.726-2.996,2.348-5.322,5.521-6.054c3.282-0.756,6.085,0.494,8.448,2.649
		c1.798,1.637,1.896,3.888,1.09,5.995c-1.646,4.302-3.471,8.535-5.286,12.771c-0.503,1.177-0.665,2.15-0.14,3.456
		c0.604,1.497,0.9,3.235,0.819,4.843C265.533,243.973,264.744,245.374,263.899,245.777z M294.146,236c-4.2,0-8.288,0-12.453,0
		c-0.925-4-1.826-7.739-2.727-11.657c-0.265,0.019-0.528,0.141-0.793,0.161c0,3-0.023,6.053,0.009,9.054
		c0.018,1.725-0.577,3.027-2.044,4.073c-2.942,2.097-5.768,4.375-8.897,6.768c-0.674-3.617-1.045-6.889,1.032-9.924
		c1.491-2.179,3.109-4.27,4.544-6.486c0.546-0.843,0.836-1.89,1.069-2.886c0.681-2.896,3.363-5.081,6.284-4.709
		c4.809,0.61,9.593,1.207,14.719,1.978C290.954,226.958,293.401,232,294.146,236z M545.094,277.036
		c7.228,3.158,15.448,2.691,22.495,6.377c0.208,0.109,0.401,0.245,0.603,0.37c-0.007,0.133-0.014,0.268-0.021,0.402
		c-0.987,0.042-2.015,0.291-2.954,0.1c-13.147-2.671-26.281-5.401-39.419-8.124c-0.103-0.022-0.19-0.133-0.57-0.412
		c2.866-1.293,5.541,0.066,8.253-0.421c-16.956-4.09-33.913-8.18-50.87-12.27c-0.007-0.085-0.017-0.168-0.025-0.254
		c0.855,0.056,1.738-0.008,2.564,0.18c17.221,3.904,34.435,7.822,51.641,11.776C539.588,275.404,542.488,275.899,545.094,277.036z
		 M475.036,313.67c-6.832-5.905-13.587-11.898-20.608-18.067c0.689-0.597,1.257-1.282,1.981-1.676
		c2.325-1.272,3.868-3.158,4.857-5.583c0.646-1.582,1.77-1.992,3.212-1.154c7.813,4.53,15.611,9.09,23.411,13.645
		c0.098,0.058,0.161,0.179,0.408,0.462c-0.705,1.105-1.389,2.32-2.211,3.434c-2.051,2.769-4.124,5.521-6.267,8.221
		C478.347,314.809,476.712,315.116,475.036,313.67z M483.032,323.4c-2.084,1.699-2.954,1.641-4.432-0.146
		c-0.62-0.749-1.259-1.483-1.972-2.32c0.472-0.433,0.954-0.874,1.603-1.467C479.814,320.765,481.361,322.033,483.032,323.4z
		 M382.065,341.564c3.568,0.556,7.144,0.965,10.626,1.774c0.71,0.165,1.437,1.816,1.479,2.811c0.033,0.806-0.783,1.887-1.53,2.417
		c-0.729,0.521-1.846,0.504-2.837,0.912c1.465,0.147,2.932,0.295,4.547,0.457c0.288,1.928,0.753,3.844,1.062,5.917
		c-4.232,0.882-6.412,1.729-12.412,2.626c0-2.801,0-5.352,0-8.073c2-0.213,2.022-0.451,3.327-0.719
		C382.139,348.394,381.731,347.94,382.065,341.564z M384.626,302.483c1.536-0.08,2.672,0.61,3.08,2.096
		c0.549,1.997,0.936,4.04,1.425,6.216c-0.527,0.096-0.704,0.171-0.871,0.153c-8.04-0.865-6.433-0.242-6.7-8.179
		C382.573,302.672,383.598,302.537,384.626,302.483z M381.578,296.555c0.004-0.243,0.006-0.489,0.011-0.733
		c0.077-3.721,0.182-3.832,4.336-4.403c0.439,2.982,0.878,5.967,1.307,8.879c-0.25,0.17-0.339,0.271-0.447,0.3
		C381.966,301.819,381.494,301.452,381.578,296.555z M381.931,311.576c2.326,0.724,4.429,1.339,6.497,2.059
		c0.33,0.115,0.706,0.686,0.713,1.051c0.052,3.619,0.031,7.241,0.031,11.039c-1.882-0.166-3.838-0.354-5.798-0.504
		c-1.265-0.097-1.924-0.811-1.97-2.006c-0.05-1.29,0.02-2.585,0.084-3.876C381.614,316.839,381.771,314.341,381.931,311.576z
		 M382.663,328.312c2.675-0.174,5.367-0.082,8.254-0.082c0.773,3.775,1.569,7.659,2.399,11.711c-0.477,0.096-0.854,0.244-1.227,0.23
		c-2.572-0.089-5.151-0.144-7.717-0.346c-2.172-0.17-2.936-1.007-3.022-3.163c-0.09-2.205-0.175-4.422-0.033-6.62
		C381.357,329.413,382.158,328.344,382.663,328.312z M510.855,257.931c0.846-4.183,1.638-5.073,5.547-4.554
		c0.774,0.103,1.557,0.156,2.531,0.25c-0.599,4.407-1.171,8.639-1.764,13.024c-2.47-0.509-4.733-0.974-6.994-1.439
		C510.396,262.671,510.385,260.252,510.855,257.931z M504.819,263.589c-0.202,0.325-1.219,0.348-1.782,0.205
		c-9.115-2.28-18.267-4.441-27.307-6.991c-5.666-1.598-11.175-3.765-16.726-5.753c-1.235-0.441-2.354-1.208-3.526-1.824
		c0.039-0.216,0.078-0.432,0.119-0.647c3.396-1.253,6.952-1.978,10.561-1.746c5.146,0.329,10.262,1.104,15.401,1.562
		c3.055,0.274,6.186-0.003,9.187,0.517c6.689,1.158,13.318,2.661,20.359,4.104C508.833,256.886,506.889,260.276,504.819,263.589z
		 M513.826,249.003c0.785-6.402,1.493-12.443,2.275-18.476c0.538-4.138,0.592-4.087,4.834-4.519
		c0.927-0.094,2.187-0.377,2.632-1.025c1-1.458,2.114-1.171,3.516-1.049c2.304,0.199,4.637,0.054,7.418,0.054
		c-1.057,6.038-1.981,12.149-3.276,18.181c-0.378,1.767-1.711,3.379-2.796,4.93c-1.117,1.597-2.749,2.378-4.776,2.278
		C520.475,249.221,517.291,249.132,513.826,249.003z M514.243,228.546c-0.227,2.799,0.116,5.651-0.197,8.434
		c-0.394,3.529-1.175,7.016-1.887,10.501c-0.079,0.388-0.802,0.916-1.225,0.913c-1.962-0.013-3.922-0.169-5.882-0.312
		c-1.443-0.106-2.32-0.846-2.188-2.373c0.493-5.764-0.645-11.238-2.817-16.543c-0.063-0.157-0.033-0.353-0.073-0.866
		c4.246-0.55,8.376-1.089,12.508-1.623C513.925,226.491,514.368,226.979,514.243,228.546z M511.494,210.167
		c-1.598,5.483-6.252,9.18-10.392,12.951c-0.727,0.66-2.059,0.745-3.14,0.911c-3.953,0.604-7.918,1.146-11.882,1.682
		c-2.973,0.403-5.054-0.754-6.183-3.487c-2.301-5.564-4.243-11.303-8.344-16.317c14.924-6.169,29.591-12.23,44.818-18.527
		C514.726,195.323,513.614,202.892,511.494,210.167z M497.392,226.936c-2.246,0.637-4.494,1.274-6.74,1.911
		c-0.107-0.157-0.216-0.314-0.324-0.471c0.282-0.282,0.527-0.751,0.852-0.814c2.03-0.393,4.076-0.694,6.117-1.026
		C497.327,226.668,497.359,226.802,497.392,226.936z M472.596,210.426c2.568,4.81,4.977,9.705,7.615,14.905
		c-2.293,0.409-4.359,0.876-6.453,1.09c-0.562,0.057-1.483-0.511-1.764-1.043c-2.079-3.971-4.231-7.97-3.811-12.671
		c0.154-1.705,0.661-3.38,1.006-5.067c0.247-0.075,0.495-0.151,0.742-0.227C470.833,208.41,471.98,209.275,472.596,210.426z
		 M479.912,229.596c-1.299,0.225-2.604,0.427-3.896,0.685c-1.427,0.286-2.24-0.137-2.147-1.991c2.014,0.269,3.999,0.531,5.984,0.797
		C479.872,229.256,479.893,229.425,479.912,229.596z M468.251,222.404c0.802,1.348,1.604,2.696,2.557,4.299
		c-0.935,0.166-1.657,0.292-2.546,0.449c-0.19-1.662-0.359-3.134-0.528-4.606C467.905,222.499,468.079,222.451,468.251,222.404z
		 M495.528,229.468c2.405-0.302,3.216,0.095,3.962,2.418c1.151,3.6,1.896,7.253,1.335,11.067c-0.379,2.571-0.886,3.167-3.428,2.967
		c-6.791-0.532-13.565-1.294-20.359-1.773c-4.59-0.325-9.201-0.331-13.803-0.471c-0.786-0.023-1.575-0.003-2.607-0.003
		c0.163-2.664,0.19-5.068,0.538-7.425c0.094-0.63,1.16-1.572,1.807-1.594C474.046,234.282,484.622,230.837,495.528,229.468z
		 M465.224,220.565c-0.437,2.04-0.644,4.128-1.016,6.183c-0.078,0.433-0.321,0.975-0.664,1.194c-1.631,1.056-4.16,0.185-4.89-1.585
		c-1.562-3.783-3.143-7.557-4.785-11.504c3.312-1.49,6.482-2.917,9.726-4.376C465.147,213.771,465.985,217.013,465.224,220.565z
		 M459.147,235c-0.224,2-0.427,5.739-0.632,8.496c-2.92-0.788-4.276-3.496-4.917-8.496c0.91,0,1.794,0,2.68,0
		C457.126,235,457.975,235,459.147,235z M455.606,263.963c1.281-1.493,7.285-0.061,7.978,1.812c0.24,0.651,0.082,1.445,0.108,2.175
		c0.178,4.942-0.209,9.811-2.013,14.802c-4.898-2.808-9.672-5.542-14.543-8.332C450.006,270.852,452.715,267.328,455.606,263.963z
		 M435.731,284.682c4.993,2.521,9.611,5.457,12.658,10.34c0.194,0.312,0.446,0.609,0.557,0.949c0.12,0.363,0.104,0.771,0.146,1.16
		c-0.418-0.079-0.93-0.029-1.237-0.257c-3.46-2.547-6.886-5.137-10.319-7.717c-1.662-1.25-3.32-2.503-5.043-3.803
		C433.568,284.122,434.478,284.048,435.731,284.682z M434.317,270.335c0.197-0.124,0.392-0.246,0.588-0.37
		c1.13,0.522,2.282,1.001,3.368,1.602c0.247,0.137,0.45,0.76,0.351,1.047c-0.543,1.6-1.189,3.165-1.799,4.74
		c-0.246,0.009-0.492,0.018-0.738,0.029C435.497,275.032,434.907,272.683,434.317,270.335z M438.123,281.629
		c-0.764-0.621-0.91-1.117-0.452-1.999c1.099-2.11,2.097-4.273,3.289-6.733c6.605,4.142,13.022,8.167,19.653,12.327
		c-2.315,2.779-4.799,5.76-7.4,8.885c-1.205-0.986-2.338-1.9-3.459-2.83C445.881,288.059,442.027,284.812,438.123,281.629z
		 M444.749,273.115c-1.213-0.566-2.191-1.023-3.281-1.531c1.366-4.088,2.681-8.024,4.056-12.142c1.65,0.402,3.176,0.771,4.972,1.207
		C448.562,264.842,446.706,268.868,444.749,273.115z M439.879,270.519c-1.269-0.751-2.396-1.42-3.661-2.168
		c1.252-3.477,2.465-6.848,3.681-10.217c0.408,0.037,0.656,0.028,0.887,0.087c1.064,0.269,2.123,0.555,3.441,0.903
		C442.782,262.913,441.375,266.599,439.879,270.519z M437.085,258.631c-0.7,2.839-1.646,5.614-2.51,8.413
		c-0.268,0.065-0.537,0.13-0.807,0.194c-2.137-3.653-4.275-7.308-6.414-10.962c0.13-0.214,0.258-0.429,0.388-0.642
		c2.687,0.39,5.39,0.689,8.043,1.242C436.344,256.993,437.203,258.156,437.085,258.631z M427.528,288.104
		c1.572-0.902,3.696-0.299,4.837,1.107c1.162,1.43,1.024,2.807-0.496,3.945c-5.215,3.911-11.109,6.552-17.093,9.001
		c-1.681,0.688-3.274-0.619-3.34-3.197c0.39-0.533,0.891-1.798,1.819-2.379C417.948,293.65,422.728,290.855,427.528,288.104z
		 M412.013,295.362c-1.307,0.525-2.54,0.643-3.367-0.8c-0.833-1.454-0.475-2.422,1.143-2.804c5.068-1.197,9.311-4.047,13.647-6.712
		c1.833-1.128,2.38-1.01,3.881,1.021C422.49,289.771,417.595,293.126,412.013,295.362z M405.407,287.797
		c-0.367-0.703-0.827-1.355-1.335-2.175c3.077-3.327,6.146-6.645,9.308-10.062c3.157,2.356,6.186,4.618,9.551,7.131
		c-4.401,2.445-8.438,4.879-12.651,6.952C407.773,290.877,406.684,290.236,405.407,287.797z M421.89,210.401
		c-0.084-0.077-0.168-0.154-0.252-0.231c3.805-3.225,7.61-6.449,11.43-9.687c1.36,2.11,1.295,2.56-0.602,3.688
		C428.949,206.264,425.416,208.326,421.89,210.401z M427.785,191.725c3.575-4.316,7.301-8.349,10.488-12.771
		c5.131-7.123,11.885-12.509,18.237-18.392c7.936-7.35,15.321-15.296,22.928-23c0.382-0.388,0.616-0.923,0.86-1.299
		c3.56,1.859,6.723,3.492,9.863,5.164c1.299,0.69,1.916,1.896,1.464,3.252c-0.451,1.354-1.027,2.857-2.018,3.806
		c-3.105,2.969-6.442,5.691-9.669,8.536c-5.852,5.164-11.688,10.349-17.529,15.522c-1.748,1.549-3.469,3.132-5.253,4.636
		c-7.005,5.905-14.029,11.787-21.051,17.673c-0.469,0.392-0.974,0.741-1.565,1.188C432.25,194.578,430.089,193.196,427.785,191.725z
		 M430.282,195.344c1.306,1.021,1.445,2.41,0.501,3.762c-0.552,0.791-1.197,1.611-1.99,2.12c-3.403,2.18-6.876,4.248-10.321,6.356
		c-0.2-0.174-0.401-0.347-0.603-0.521c2.735-4.734,5.472-9.468,8.29-14.343C427.835,193.771,429.143,194.451,430.282,195.344z
		 M412.439,204.268c-0.106-0.093-0.216-0.186-0.323-0.279c2.895-4.714,5.79-9.43,8.758-14.264c1.224,0.915,2.282,1.709,3.19,2.39
		C420.151,196.204,416.296,200.236,412.439,204.268z M409.354,199.302c-0.685,0.546-1.481,0.947-2.228,1.416
		c-0.119-0.108-0.238-0.218-0.357-0.325c4.814-10.385,9.63-20.77,14.556-31.396c2.163,0.903,4.128,1.75,6.113,2.545
		c1.317,0.527,1.436,1.576,1.233,2.732c-0.104,0.594-0.284,1.226-0.611,1.721C422.55,184.345,417.329,192.932,409.354,199.302z
		 M408.564,270.77c1.166,1.294,2.063,2.289,3.201,3.553c-2.765,2.96-5.487,5.877-8.368,8.965c-1.857-2.791-3.473-5.219-5.315-7.983
		C402.224,274.957,405.881,274.13,408.564,270.77z M406.547,270.924c-2.417,0.584-4.812,1.351-7.263,1.66
		c-0.954,0.122-2.517-0.495-2.986-1.269c-2.975-4.904-5.872-9.876-7.78-15.959c6.311,5.234,12.2,10.122,18.094,15.008
		C406.591,270.551,406.568,270.737,406.547,270.924z M390.6,265.129c4.757,8.575,9.516,17.148,14.305,25.783
		c-0.307,0.141-0.516,0.293-0.741,0.329c-1.626,0.271-3.257,0.52-4.566,0.726c-3.174-8.992-6.287-17.815-9.4-26.639
		C390.33,265.262,390.466,265.195,390.6,265.129z M400.579,303.714c1.367,5.168,2.746,10.332,4.12,15.501
		c0.278,1.052,0.557,2.104,0.918,3.464c-4.536,0.988-8.878,1.934-13.447,2.93c-0.466-7.589-0.912-14.866-1.365-22.255
		c2.497-0.625,4.797-1.256,7.124-1.767C399.592,301.223,400.215,302.335,400.579,303.714z M394.745,343.215
		c5.767-0.678,11.346-1.334,17.053-2.004c0.745,2.751,1.441,5.326,2.212,8.168c-6.135-1.052-11.924-3.535-18.245-0.896
		C395.404,346.617,395.095,345.021,394.745,343.215z M404.004,340.22c-1.843,0.032-3.683,0.19-5.526,0.217
		c-0.85,0.013-1.935,0.134-2.492-0.314c-0.752-0.605-1.102-1.713-1.624-2.605c0.623-0.348,1.208-0.867,1.876-1.011
		c3.901-0.841,7.824-1.587,11.736-2.38c1.986-0.404,2.573-0.058,2.878,1.958c0.192,1.271,0.239,2.563,0.376,4.127
		C408.647,340.211,406.324,340.18,404.004,340.22z M406.797,332.821c-4.09,0.808-8.174,1.639-12.426,2.493
		c-0.619-2.105-1.183-4.018-1.849-6.28c4.674,0.405,8.375-1.88,12.388-3.062c1.319-0.388,2.274,0.023,2.634,1.478
		c0.235,0.951,0.471,1.911,0.826,2.821C408.993,331.873,408.271,332.531,406.797,332.821z M406.794,320.283
		c-1.896-6.555-3.783-13.112-5.649-19.676c-0.252-0.887-0.387-1.805-0.552-2.714c-0.538-2.98-0.537-2.983,2.369-4.13
		c0.902-0.357,1.813-0.691,2.518-0.959c4.438,7.979,8.79,15.799,13.272,23.853c-3.01,1.501-6.22,3.156-9.48,4.702
		C408.19,321.874,407.173,321.598,406.794,320.283z M414.349,305.437c3.362-2.091,6.634-4.122,9.901-6.158
		c3.339-2.081,6.679-4.158,10.008-6.252c2.102-1.32,2.981-1.157,4.971,0.298c2.767,2.024,5.672,3.856,8.664,5.87
		c-7.483,6.669-15.354,12.262-24.831,15.238c-2.255,0.707-3.041,0.454-4.262-1.582C417.35,310.435,415.898,308.018,414.349,305.437z
		 M448.983,300.663c2.974,2.471,5.885,4.887,8.925,7.412c-3.084,3.794-6.603,6.891-10.525,9.549
		c-4.936,3.342-10.349,5.646-16.049,7.296c-0.562,0.162-1.475,0.144-1.838-0.199c-2.316-2.183-4.523-4.48-6.88-6.855
		C431.824,312.723,441.507,308.549,448.983,300.663z M438.337,324.422c2.748-1.363,5.415-2.941,8.317-4.034
		c0.271-0.102,0.558-0.163,1.316-0.38c-4.463,5.645-8.044,11.47-15.443,13.47C433.86,329.86,434.321,326.416,438.337,324.422z
		 M437.427,334.69c3.426-2.178,6.164-4.984,8.608-8.214c3.372-4.458,6.993-8.725,10.492-13.088c0.915-1.142,1.768-2.335,2.748-3.635
		c3.177,2.653,6.316,5.273,9.583,8.002c-0.77,0.7-1.361,1.317-2.031,1.832c-1.583,1.213-2.631,2.746-3.663,4.479
		c-1.109,1.862-2.95,3.403-4.74,4.722c-3.006,2.215-6.197,4.183-9.361,6.174c-1.447,0.911-2.997,1.668-4.534,2.426
		c-2.303,1.138-4.639,2.213-6.958,3.321c-0.544,0.261-1.07,0.558-1.603,0.836C434.052,338.093,434.309,336.675,437.427,334.69z
		 M438.554,342.313c4.585-2.514,9.099-5.157,13.657-7.713c6.374-3.574,12.09-8.018,17.39-13.022c0.474-0.447,0.98-0.862,1.652-1.449
		c0.735,2.406-0.087,4.165-1.016,5.82c-2.892,5.162-6.825,9.459-11.331,13.251c-2.825,2.377-5.665,4.733-8.479,7.121
		c-2.858,2.427-5.944,4.338-9.777,4.835c-1.389,0.18-2.193-0.02-2.46-1.568c-0.207-1.202-0.613-2.391-1.085-3.521
		C436.367,344.294,436.905,343.216,438.554,342.313z M453.665,301.357c-0.814-0.712-1.48-1.596-2.217-2.398
		c0.179-0.189,0.355-0.378,0.532-0.568c8.097,6.079,16.193,12.159,24.269,18.223c-1.301,2.437-2.023,2.612-3.643,1.201
		C466.303,312.318,459.965,306.86,453.665,301.357z M465.496,285.114c-1.048-0.795-2.023-1.674-1.582-3.039
		c1.649-5.101,0.928-10.367,1.25-15.559c0.025-0.422,0.09-0.841,0.159-1.478c3.275,0.731,6.324,1.411,9.579,2.135
		c-2.159,4.725-4.266,9.333-6.372,13.939c0.133,0.071,0.267,0.142,0.399,0.211c2.618-4.584,5.234-9.171,7.941-13.916
		c1.551,0.391,3.144,0.779,4.729,1.19c3.571,0.923,7.143,1.844,10.707,2.794c2.021,0.537,2.697,1.384,2.112,3.146
		c-2.312,6.963-4.235,14.002-4.935,21.333c-0.023,0.225-0.186,0.438-0.34,0.788C481.064,293.126,472.612,290.514,465.496,285.114z
		 M487.665,268.604c-4.651-1.12-9.201-2.648-13.797-3.995c0.02-0.187,0.039-0.373,0.058-0.559c0.958,0.054,1.946-0.024,2.87,0.183
		c14.942,3.343,29.878,6.718,44.811,10.11c0.774,0.177,1.497,0.588,2.242,0.892c-4.017,0.2-7.866-1.994-11.879,0.083
		c-0.735-1.852-2.299-2.072-4.106-2.41C501.099,271.639,494.355,270.217,487.665,268.604z M539.428,267.021
		c-0.188,1.928-1.295,2.823-3.147,2.609c-5.794-0.666-11.57-1.474-17.664-2.268c0.824-3.789,1.552-7.381,2.427-10.938
		c0.143-0.577,0.838-1.282,1.414-1.446c5.773-1.646,11.709-2.091,18.035-2.357C540.136,257.593,539.88,262.315,539.428,267.021z
		 M546.614,221.073c4.732-0.748,5.399-0.397,5.863,4.447c0.441,4.586,0.475,9.211,0.649,13.82c0.03,0.785-0.12,1.578-0.184,2.368
		c-4.647-6.026-6.053-13.272-8.653-20.244C545.194,221.312,545.901,221.185,546.614,221.073z M544.51,225.931
		c2.65,6.809,5.342,13.603,8.038,20.393c1.257,3.164,0.703,4.007-2.64,4.099c-6.577,0.184-12.812-1.104-18.37-4.112
		c0.841-4.939,1.658-9.643,2.438-14.353c0.28-1.696,0.495-3.405,0.689-5.114c0.234-2.042,1.241-3.289,3.254-3.979
		C542.709,221.222,542.654,221.165,544.51,225.931z M519.672,187.194c0.496-1.135,1.233-1.438,2.266-0.461
		c6.335,5.991,11.214,12.888,13.296,21.496c0.445,1.845,0.645,3.749,0.958,5.627c0.203,3.362-0.983,5.873-5.258,5.982
		c-4.048,0.104-8.086,0.723-12.129,1.073c-2.046,0.177-2.604-0.319-2.584-2.327c0.017-1.412,0.303-2.825,0.262-4.232
		c-0.096-3.237-0.366-6.469-0.469-9.706c-0.105-3.308-0.166-6.621-0.072-9.927c0.021-0.712,0.637-1.646,1.259-2.051
		c1.331-0.87,1.896-2.016,2.046-3.51C519.313,188.494,519.405,187.797,519.672,187.194z M446.501,211.587
		c8.006-5.839,15.905-11.84,24.121-17.371c11.179-7.527,22.595-14.703,33.94-21.98c2.943-1.89,6.008-3.593,9.181-5.479
		c2.576,5.401,4.323,10.897,5.286,16.836c-25.947,8.754-50.91,19.695-75.547,31.423c-0.097-0.136-0.192-0.27-0.288-0.404
		C444.292,213.597,445.302,212.462,446.501,211.587z M450.519,216.347c1.564-1.158,2.453-0.959,3.022,0.895
		c1.093,3.555,1.975,7.178,3.034,11.11c-5.692,0.564-11.255,1.116-17.302,1.717C442.856,224.955,445.745,219.883,450.519,216.347z
		 M468.395,185.601c-13.423,8.907-26.954,17.654-40.456,26.445c-0.854,0.556-1.793,0.981-3.057,1.664
		c3.49-4.549,44.45-32.542,52.241-35.878c0.147,0.159,0.293,0.318,0.44,0.478C474.516,180.754,471.637,183.449,468.395,185.601z
		 M476.118,175.722c-9.956,6.571-19.883,13.185-29.876,19.697c-2.519,1.641-5.213,3.023-7.89,4.401
		c-0.587,0.304-1.444,0.084-2.176,0.104c0.095-0.782-0.101-1.827,0.333-2.298c1.574-1.715,3.312-3.291,5.07-4.823
		c13.406-11.675,26.831-23.329,40.254-34.983c1.783-1.55,2.476-1.475,3.85,0.438c1.784,2.483,3.535,4.991,5.389,7.614
		C485.968,169.235,481.039,172.473,476.118,175.722z M493.71,162.839c-0.714,0.277-2.136-0.189-2.706-0.811
		c-2.028-2.211-2.978-5.011-3.607-7.448c0.018-2.285,2.942-5.784,4.683-5.875c0.428-0.022,1.163,0.557,1.294,0.996
		c0.965,3.233,1.925,6.478,2.646,9.771C496.389,161.151,495.051,162.315,493.71,162.839z M499.172,159.082
		c-1.099-2.514-2.115-4.703-3.009-6.942c-0.537-1.346-0.985-2.749-1.26-4.166c-0.113-0.584,0.34-1.277,0.506-1.822
		c3.112,3.111,6.061,6.057,9.162,9.159C502.773,156.567,500.83,157.924,499.172,159.082z M520.164,147.187
		c0.164,0.226,0.33,0.45,0.493,0.676c-4.304,3.068-8.608,6.135-12.911,9.203C510.822,152.317,515.042,149.133,520.164,147.187z
		 M513.962,147.405c-2.489,1.823-4.825,3.681-7.32,5.294c-1.25,0.81-2.705,0.415-3.687-0.722c-2.086-2.421-4.1-4.906-6.069-7.423
		c-0.217-0.276-0.136-1.116,0.125-1.386c2.301-2.373,4.674-4.676,7.124-7.099C507.467,139.913,510.604,143.53,513.962,147.405z
		 M493.98,121.048c1.327,1.991,2.487,3.726,3.64,5.462c1.274,1.92,2.56,3.835,3.814,5.769c0.804,1.24,1.373,2.481,0.101,3.826
		c-1.812,1.914-3.547,3.903-5.357,5.821c-0.928,0.981-1.837,1.117-2.696-0.199c-0.307-0.467-0.873-0.817-1.392-1.083
		c-3.313-1.697-6.648-3.356-10.18-5.131C485.92,130.706,489.76,126.105,493.98,121.048z M466.966,120.087
		c3.403-4.418,6.659-8.95,10.09-13.599c5.846,2.638,10.698,6.659,14.295,12.167c-1.239,1.281-2.513,2.503-3.678,3.821
		c-2.272,2.574-4.526,5.167-6.703,7.821c-1.297,1.579-2.692,2.137-4.313,1.158c-3.53-2.13-6.988-4.363-9.632-7.645
		C465.968,122.501,465.882,121.495,466.966,120.087z M444.032,155.8c6.772-10.407,13.557-20.808,20.339-31.208
		c0.199-0.306,0.431-0.591,0.924-1.259c0.898,3.366,3.474,4.565,5.817,6.012c1.412,0.871,2.844,1.712,4.229,2.623
		c1.918,1.264,2.158,2.605,0.577,4.189c-1.514,1.516-3.3,2.759-4.823,4.264c-5.682,5.608-11.311,11.272-16.947,16.925
		c-1.26,1.264-2.417,2.633-3.732,3.832c-1.65,1.506-3.773,1.319-5.648-0.346C442.973,159.237,442.74,157.785,444.032,155.8z
		 M442.236,161.278c0.137,0.736,0.503,1.515,0.373,2.202c-1.059,5.636-3.567,10.493-7.582,14.67
		c-2.846,2.961-5.328,6.272-7.976,9.426c-0.666,0.792-1.339,1.578-1.99,2.343c-2.09-1.113-2.602-2.32-1.511-4.013
		c5.489-8.524,11.132-16.943,17.926-24.513C441.73,161.354,441.983,161.316,442.236,161.278z M438.165,159.317
		c1.21,0.852,1.042,1.549,0.311,2.554c-1.842,2.527-3.636,5.09-5.424,7.654c-1.177,1.688-2.341,1.995-4.05,0.893
		c-2.163-1.396-4.286-2.854-6.644-4.43c1.786-4.603,3.584-9.235,5.449-14.044c0.493,0.259,0.933,0.422,1.296,0.688
		C432.125,154.859,435.095,157.16,438.165,159.317z M416.17,39.753c1.404,1.919,1.271,6.901-0.509,9.324
		C415.848,45.669,416.007,42.74,416.17,39.753z M415.477,54.913c1.921,1.562,1.79,3.277-0.668,6.372
		C415.027,59.205,415.244,57.126,415.477,54.913z M414.544,69.864c-0.523,2.666-0.987,5.021-1.451,7.376
		C411.766,74.818,412.595,70.562,414.544,69.864z M408.506,104.185c1.771-10.501,3.812-20.936,7.02-31.116
		c1.146-3.63,1.854-4.073,5.578-3.271c4.985,1.076,10.057,1.795,14.987,3.064c4.153,1.07,8.164,2.697,12.233,4.099
		c1.556,0.535,3.095,1.127,4.7,1.715c-1.068,4.11-2.395,8.036-3.078,12.071c-1.671,9.832-6.051,18.694-9.523,27.885
		c-0.494,1.307-1.292,1.52-2.607,1.152c-9.286-2.589-17.863-6.938-26.68-10.688C408.501,107.976,408.038,106.953,408.506,104.185z
		 M402.755,137.897c1.095-6.922,2.146-13.853,3.33-20.76c0.641-3.735,2.706-5.244,6.428-4.458c2.799,0.593,5.521,1.627,8.198,2.667
		c4.122,1.602,8.176,3.379,12.26,5.076c0.625,0.259,1.278,0.453,1.892,0.736c2.92,1.344,3.595,2.927,2.302,5.864
		c-2.601,5.907-5.256,11.792-7.949,17.657c-1.259,2.742-2.952,3.558-6.123,3.296c-6.374-0.526-12.749-1.018-19.123-1.528
		c-0.724-0.058-1.442-0.151-2.473-0.262C401.928,143.33,402.324,140.611,402.755,137.897z M401.133,150.066
		c0.366-2.202,1.658-2.846,3.924-2.508c1.691,0.252,3.411,0.44,5.12,0.446c5.352,0.02,10.205,2.067,15.452,3.571
		c-0.503,1.131-0.938,2.179-1.428,3.201c-1.037,2.163-2.08,4.324-3.157,6.467c-1.303,2.585-2.409,2.963-5.172,1.86
		c-2.114-0.844-4.17-1.933-6.361-2.455c-2.998-0.715-6.101-0.997-9.527-1.521C400.322,156.382,400.611,153.205,401.133,150.066z
		 M401.202,161.848c2.448-0.043,4.899-0.021,7.351-0.021c0.037,0.212,0.073,0.423,0.109,0.634c-0.517,0.254-1.034,0.506-1.823,0.894
		c3.859,1.476,7.454,2.852,11.329,4.334c-0.848,1.469-1.623,2.812-2.51,4.346c-2.161-1.232-4.218-2.404-6.273-3.579
		c-2.882-1.646-5.776-3.276-8.63-4.971c-0.379-0.225-0.558-0.782-0.829-1.187C400.352,162.141,400.775,161.855,401.202,161.848z
		 M398.084,174.33c0.327-2.667,0.781-5.319,1.233-8.35c1.023,0.579,1.727,0.855,2.281,1.312c3.284,2.695,6.531,5.435,9.794,8.156
		c1.184,0.988,1.892,2.111,1.136,3.701c-0.748,1.577-2.062,1.479-3.475,1.252c-2.43-0.389-4.882-0.657-7.305-1.102
		C398.923,178.781,397.734,177.162,398.084,174.33z M408.374,184.765c0.35,0.173,0.507,1.68,0.17,2.114
		c-0.923,1.194-2.073,2.264-3.292,3.17c-2.6,1.935-5.299,3.734-7.957,5.59c-0.2-0.086-0.397-0.172-0.598-0.259
		c0.194-5.108,0.388-10.217,0.594-15.702C401.309,181.487,404.885,183.038,408.374,184.765z M389.928,161.772
		c1.557-0.253,3.194-0.242,4.772-0.104c2.492,0.218,2.779,0.542,2.4,2.977c-0.586,3.767-1.248,7.528-2.074,11.248
		c-1.268,5.701-2.703,11.365-4.066,17.044c-0.17,0-0.338,0-0.507-0.002c-0.627-3.368-1.335-6.724-1.858-10.107
		c-0.836-5.411-1.615-10.832-2.289-16.265C385.865,163.004,386.377,162.35,389.928,161.772z M390.768,77.178
		c-1.348,4.284-2.698,8.569-4.094,13C384.875,86.814,386.379,81.927,390.768,77.178z M385.43,256.922
		c0.222-0.03,0.442-0.059,0.664-0.089c4.412,13.711,8.824,27.421,13.322,41.395c-3.663,0.636-7.071,1.228-10.587,1.839
		c-0.247-3.257-0.436-6.316-0.714-9.369c-0.876-9.55-1.81-19.094-2.663-28.648C385.301,260.354,385.43,258.632,385.43,256.922z
		 M384.156,286.597c-1.871-0.351-2.68-1.468-2.808-3.205c-0.11-1.528-0.345-3.049-0.402-4.578c-0.019-0.455,0.266-1.071,0.617-1.339
		c0.214-0.161,0.885,0.123,1.253,0.357C385.188,279.349,385.936,284.103,384.156,286.597z M379.646,349.329
		c-6.425-1.812-12.448-3.513-18.477-5.204c-1.786-0.502-2.06-1.737-1.635-3.305c1.412-5.209,2.836-10.417,4.322-15.871
		c1.622,0.312,3.223,0.599,4.814,0.929c2.767,0.575,5.517,1.23,8.293,1.751c1.85,0.348,2.841,1.288,2.827,3.22
		c-0.019,2.817-0.004,5.635-0.004,8.612c-2.056-0.576-4.265-1.192-6.472-1.81c-0.045,0.094-0.087,0.188-0.132,0.28
		c1.727,0.994,3.42,2.057,5.193,2.959c1.309,0.663,2.011,1.509,1.812,3.036C379.972,345.609,379.845,347.305,379.646,349.329z
		 M376.153,359.671c-4.248,0.695-8.519,1.268-12.791,1.799c-2.729,0.341-5.39-0.013-7.92-1.208c-0.985-0.467-1.402-0.99-1.01-2.132
		c0.781-2.265,1.438-4.573,2.161-6.858c0.541-1.703,1.603-2.792,3.507-2.63c4.774,0.411,9.544,0.866,14.316,1.312
		c0.428,0.04,0.851,0.136,1.276,0.185c4.167,0.482,4.167,0.48,4.32,4.663C380.163,358.933,380.177,359.012,376.153,359.671z
		 M296.019,299.638c1.233-0.932,2.357-1.875,3.572-2.68c6.306-4.177,12.618-8.345,18.985-12.427
		c0.553-0.354,1.799-0.386,2.256-0.005c3.257,2.707,6.394,5.562,9.673,8.46c-5.685,8.659-12.221,16.28-19.785,23.326
		C306.382,310.125,299.669,306.375,296.019,299.638z M307.622,319.279c-0.755,0.939-1.57,1.833-2.57,2.994
		c-2.284-4.855-4.429-9.412-6.649-14.133c3.015,2.214,5.896,4.264,8.706,6.408C309.243,316.177,309.315,317.17,307.622,319.279z
		 M292.526,300.063c0.871-2.874,4.41-5.034,8.299-4.965C297.86,296.872,295.296,298.406,292.526,300.063z M322.621,282.699
		c8.848-4.282,17.46-8.451,26.071-12.618c-5.065,7.922-10.056,15.838-17.18,22.325C328.535,289.154,325.649,286.005,322.621,282.699
		z M308.363,267.572c3.175-1.168,6.165-2.271,9.476-3.488c1.038,2.101,2.054,4.154,3.062,6.193
		C315.036,273.805,314.116,273.817,308.363,267.572z M309.934,275.916c-4.343,2.553-8.729,5.033-13.083,7.568
		c-3.973,2.314-7.926,4.661-12.037,7.082c-3.105-3.915-6.141-7.742-9.392-11.845c0.895-0.441,1.458-0.816,2.078-1.012
		c7.617-2.378,15.247-4.72,22.863-7.103c1.228-0.384,2.44-0.851,3.604-1.397c1.746-0.82,3.218-0.535,4.485,0.879
		c0.697,0.776,1.372,1.575,2.036,2.382C311.93,274.22,311.878,274.772,309.934,275.916z M355.669,238.309
		c-0.042,0.294-0.086,0.59-0.13,0.883c-6.671,0-13.35,0.194-20.011-0.057c-5.956-0.225-11.899-0.895-17.84-1.453
		c-3.229-0.303-3.591-0.848-3.053-3.998c0.344-2.001,0.746-3.989,1.131-5.982c0.046-0.235,0.141-0.462,0.336-1.085
		C329.376,230.539,342.522,234.424,355.669,238.309z M329.356,228.802c1.021-2.377,1.83-4.229,2.615-6.091
		c0.686-1.626,1.908-2.111,3.42-1.36c2.075,1.029,4.168,2.089,6.051,3.42c2.246,1.591,4.278,3.482,6.403,5.244
		c-0.044,0.203-0.088,0.404-0.131,0.607C341.709,230.027,335.703,229.431,329.356,228.802z M326.094,185.875
		c2.999,2.939,5.972,5.687,8.738,8.627c1.69,1.796,1.339,4.292-0.602,6.5c-0.689,0.783-1.492,1.466-2.212,2.225
		c-0.713,0.755-1.387,1.548-2.237,2.502c-4.163-3.474-8.266-6.897-12.544-10.467C320.233,192.086,323.16,188.983,326.094,185.875z
		 M321.906,181.596c-0.53-0.509-1.183-0.891-1.759-1.315c3.717-6.848,9.42-10.124,16.516-11.949
		c-0.205,0.508-0.241,0.776-0.392,0.942c-3.704,4.119-7.403,8.242-11.146,12.326C324.119,182.697,323.01,182.655,321.906,181.596z
		 M333.846,205.657c1.164-1.883,2.403-3.718,3.573-5.596c0.808-1.293,1.66-1.485,2.803-0.367c1.886,1.843,3.825,3.629,5.793,5.486
		c-1.944,2.783-5.87,3.811-6.34,7.858c4.338,0.12,5.297-4.292,8.698-6.005c2.797,5.815,5.621,11.687,8.445,17.557
		c-0.157,0.118-0.314,0.235-0.471,0.352c-2.224-1.484-4.477-2.93-6.666-4.465c-5.034-3.527-10.065-7.062-15.043-10.67
		C332.63,208.352,332.572,207.717,333.846,205.657z M358.636,154.502c-0.431-1.476-0.841-2.956-1.298-4.423
		c-0.427-1.37,0.087-2.196,1.34-2.794c4.356-2.078,5.044-1.736,5.897,2.998c3.187,17.676,6.389,35.349,9.561,53.026
		c0.163,0.914,0.117,1.866,0.169,2.801c-0.252,0.029-0.503,0.059-0.755,0.088c-0.699-2.594-1.355-5.199-2.106-7.777
		C367.187,183.777,362.907,169.141,358.636,154.502z M362.667,186.062c-8.718-10.772-17.438-21.543-26.354-32.558
		c5.324-1.898,10.394-3.705,15.686-5.592C356.492,160.392,361.763,172.559,362.667,186.062z M379.167,280.764
		c0.109,1.886,0.211,3.773,0.33,5.883c-2.102-0.555-4.001-0.995-5.85-1.597c-0.377-0.123-0.598-0.831-0.809-1.307
		c-0.083-0.187,0.057-0.475,0.102-0.717c0.396-2.226,0.797-4.451,1.207-6.753C377.997,276.354,378.962,277.262,379.167,280.764z
		 M376.063,270.69c0.812-3.646,2.044-7.273,2.914-10.905c0.092-0.383,0.023-0.748,1.023-1.075c0,5.52,0,11.037,0,16.652
		C374,274.609,375.193,274.601,376.063,270.69z M361.244,269.864c0.9,9.354,1.702,18.259,0.17,27.491
		c-6.342-3.065-12.436-5.973-16.712-11.516c-0.288-0.372-0.066-1.576,0.335-1.973c3.23-3.191,6.49-6.365,9.89-9.374
		C356.785,272.851,358.933,271.539,361.244,269.864z M330.092,256.889c-0.858-1.729-1.665-3.357-2.604-5.25
		c10.486-2.938,20.755-6.058,31.617-6.774C349.493,248.848,339.881,252.832,330.092,256.889z M326.449,249.967
		c-0.761-3.562-1.463-6.845-2.238-10.478c14.103,1.787,27.949,1.282,41.856,0.546C352.935,243.328,339.801,246.619,326.449,249.967z
		 M369.88,283.1c-0.823-0.091-1.46-0.16-2.34-0.257c1.565-5.176,3.082-10.182,4.598-15.188c0.152,0.063,0.303,0.128,0.455,0.19
		C371.695,272.892,370.798,277.938,369.88,283.1z M372.819,287.517c1.653-0.005,3.323,0.007,4.949,0.266
		c0.647,0.104,1.693,0.881,1.674,1.312c-0.035,0.773-0.573,1.965-1.192,2.19c-2.151,0.79-4.427,1.242-6.937,1.894
		c0.201-1.856,0.315-3.366,0.568-4.852C371.938,287.999,372.494,287.518,372.819,287.517z M369.285,288.787
		c-0.085,0.972-0.197,1.943-0.365,2.903c-0.185,1.054-0.368,2.139-1.938,1.687c-1.239-0.357-2.135-0.759-1.574-2.381
		c0.532-1.544,0.824-3.17,1.252-4.879C368.631,286.156,369.434,287.053,369.285,288.787z M367.367,295.891
		c-0.233,1.257-0.44,2.371-0.677,3.653c-2.987-1.082-3.193-1.456-2.279-4.073C365.309,295.598,366.247,295.73,367.367,295.891z
		 M365.844,301.838c-0.363,1.423-0.685,2.683-1.006,3.943c-0.234,0.026-0.468,0.051-0.701,0.076
		c-0.451-1.397-0.903-2.796-1.443-4.467C363.896,301.562,364.772,301.687,365.844,301.838z M367.15,311.646
		c0.413-1.614,1.556-2.351,3.209-2.002c2.889,0.61,5.773,1.244,8.627,2.002c0.483,0.128,1.138,0.935,1.125,1.412
		c-0.103,3.811-0.346,7.618-0.566,11.823c-4.411-0.774-8.587-1.451-12.736-2.267c-1.35-0.266-1.87-1.389-1.587-2.707
		C365.814,317.143,366.449,314.384,367.15,311.646z M379.928,309.732c-3.663-0.977-7.183-1.915-10.927-2.913
		c0.293-1.79,0.573-3.505,0.881-5.39c3.227,0.521,6.247,0.981,9.25,1.534c0.314,0.059,0.744,0.647,0.761,1.006
		C379.969,305.795,379.928,307.626,379.928,309.732z M380,301.133c-3-0.502-6.43-0.983-9.508-1.455
		c-0.324-3.38,0.293-4.074,3.368-4.587c1.98-0.33,5.14-0.884,6.14-1.389C380,296.175,380,298.538,380,301.133z M365.571,222.656
		c-2.145-2.298-4.289-4.596-6.619-7.092c1.07-1.012,2.075-1.96,3.228-3.048c1.346,3.54,2.554,6.72,3.763,9.899
		C365.818,222.496,365.694,222.576,365.571,222.656z M360.878,210.803c-4.966,2.49-4.616,2.957-8.262-1.563
		c-3.438-4.265-3.398-2.728-0.126-7.14c2.01-2.71,2.251-2.65,3.938,0.237c1.575,2.693,3.132,5.397,4.714,8.127
		C360.955,210.709,360.927,210.778,360.878,210.803z M359.965,202.248c-2.436-3.185-4.771-6.238-7.106-9.293
		c0.101-0.146,0.2-0.293,0.3-0.439c2.707,0.68,5.413,1.358,7.83,1.965C360.629,197.206,360.316,199.57,359.965,202.248z
		 M351.81,199.771c-1.53,1.4-3.045,2.819-4.663,4.319c-2.768-2.537-5.427-4.972-8.361-7.661c2.552-0.75,4.814-1.411,7.076-2.079
		c0.646-0.191,1.294-0.387,1.933-0.605c3.083-1.062,3.081-1.064,4.723,1.689C353.839,197.648,353.78,197.97,351.81,199.771z
		 M322.953,240c0.472,3,0.935,6.933,1.401,10.587c-2.456,0.244-4.76,0.439-7.06,0.422c-0.66-0.003-1.75-0.783-1.893-1.504
		c-0.627-3.178-0.979-6.504-1.454-9.504C317.092,240,319.898,240,322.953,240z M324.536,252.546c0.566-0.116,1.58,0.472,1.924,1.023
		c0.728,1.171,1.15,2.529,1.764,3.965c-3.273,1.102-6.333,2.132-9.546,3.215c-0.657-2.181-1.221-4.047-1.86-6.166
		C319.484,253.854,321.985,253.076,324.536,252.546z M320.176,263.039c2.718-0.979,5.271-1.987,7.891-2.77
		c0.564-0.169,1.494,0.323,2.031,0.776c0.684,0.577,1.137,1.424,1.852,2.372c-2.918,1.895-5.679,3.688-8.584,5.574
		C322.303,267.008,321.299,265.136,320.176,263.039z M331.418,259.157c4.933-1.721,9.71-3.39,14.488-5.059
		c0.074,0.144,0.148,0.285,0.223,0.425c-4.229,2.637-8.458,5.272-12.936,8.062C332.578,261.397,332.053,260.383,331.418,259.157z
		 M335.937,262.654c3.511-2.234,7.123-4.307,10.714-6.457c1.385,3.649-2.111,12.141-6.595,15.215
		c-1.464-1.634-2.989-3.237-4.401-4.935C334.427,265.003,334.472,263.587,335.937,262.654z M340.238,290.49
		c2.77-2.956,3.313-2.899,6.092-0.004c3.245,3.383,7.257,5.571,11.62,7.209c1.091,0.408,2.011,1.27,3.356,2.149
		c-5.736,1.723-17.631-3.17-21.714-8.544C339.797,291.044,339.997,290.748,340.238,290.49z M361.635,308.006
		c0.232-0.568,1.22-0.828,1.859-1.23c0.128,0.706,0.444,1.438,0.349,2.111c-0.415,2.909-0.951,5.802-1.443,8.701
		c0.133,0.025,0.265,0.049,0.397,0.074c0.675-1.416,1.351-2.832,2.024-4.246c0.115,0.038,0.229,0.077,0.345,0.114
		c-0.568,2.59-1.137,5.179-1.787,8.143c-1.748-0.745-3.335-1.329-4.814-2.116c-0.395-0.21-0.771-1.141-0.629-1.561
		C359.077,314.634,360.286,311.289,361.635,308.006z M378.402,193.551c-0.201,0.036-0.401,0.072-0.602,0.109
		c-1.312-1.805-2.669-3.581-3.894-5.444c-0.19-0.29,0.067-1.155,0.395-1.451c0.834-0.756,1.823-1.341,3.057-2.211
		c-0.799-0.064-1.204-0.12-1.61-0.126c-3.016-0.038-2.992-0.039-3.646-3.079c-2.38-11.06-4.761-22.119-7.185-33.169
		c-0.287-1.309-0.114-2.085,1.394-2.03c5.163,0.186,10.323,0.381,15.485,0.577c0.863,0.031,1.492,0.188,1.503,1.343
		c0.083,9.228,0.254,18.453,0.322,27.681c0.015,2.023-0.37,4.048-0.385,6.075c-0.01,1.442-0.429,2.182-1.968,2.129
		c-0.597-0.02-1.202,0.193-1.408,0.229c0.271,0.874,0.854,1.728,0.689,2.399C379.973,188.938,379.138,191.232,378.402,193.551z
		 M380.556,273.71c0.196-3.486,0.504-6.969,0.77-10.452c0.104,0.013,0.21,0.028,0.316,0.041c0.314,4.2,0.63,8.4,0.952,12.689
		C380.804,275.925,380.494,274.838,380.556,273.71z M364.756,113.185c0.058-0.067,0.114-0.136,0.174-0.202
		c-0.605-0.571-1.21-1.142-1.815-1.712c0.085-0.188,0.169-0.376,0.253-0.564c2.123,0.904,4.412,1.546,6.328,2.771
		c3.361,2.147,6.544,4.589,9.712,7.023c3.998,3.074,5.698,9.356,3.592,13.424c-6.434-2.541-12.985-0.945-19.71-0.099
		c-1.092-7.468-2.162-14.807-3.286-22.501C361.768,112.016,363.262,112.601,364.756,113.185z M362.814,140.268
		c0.107-0.775,0.146-0.951,0.153-1.13c0.164-3.582,0.16-3.599,3.646-4.341c5.502-1.169,10.894-0.443,16.205,1.1
		c1.782,0.517,2.364,1.743,2.054,3.559c-0.176,1.028-0.271,2.068-0.407,3.104c-0.193,1.472-1.065,2.217-2.516,2.098
		c-5.145-0.422-10.292-0.835-15.421-1.405c-1.089-0.121-2.104-0.894-2.895-1.249c-0.812,0.302-1.499,0.791-2.164,0.762
		c-2.2-0.097-4.392-0.379-6.527-0.584c-0.723-1.756-0.129-2.665,1.527-3.059c0.652-0.155,1.27-0.46,1.901-0.699
		C360.139,137.756,361.763,137.556,362.814,140.268z M339.223,86.266c-1.223-4.373-3.193-8.536-4.416-12.908
		c-2.649-9.471-5.033-19.015-7.532-28.526c-1.766-6.717-3.543-13.432-5.314-20.148c-0.153-0.582-0.305-1.166-0.457-1.749
		c0.132-0.077,0.265-0.154,0.397-0.23c0.243,0.458,0.52,0.901,0.724,1.377c5.188,12.094,10.373,24.188,15.541,36.291
		c0.749,1.753,1.276,3.61,2.133,5.305c1.517,3.003,3.191,5.928,4.83,8.867c1.165,2.089,2.493,4.096,3.555,6.236
		c3.717,7.501,5.755,15.599,7.347,23.707c1.735,8.85,2.526,17.884,3.693,26.843c0.275,2.11-0.424,2.9-2.572,3.176
		c-4.66,0.598-4.638,0.592-5.855-3.909C347.295,115.812,343.347,101.015,339.223,86.266z M347.271,138.736
		c0.504-0.204,1.75,0.323,2.005,0.834c0.511,1.02,0.614,2.249-0.726,3.009c-3.104,1.758-6.19,3.543-9.278,5.328
		c-0.519,0.3-1.008,0.653-1.35,1.333c4.386-1.804,8.773-3.606,13.551-5.57c-0.266,1.69-0.532,3-1.95,3.514
		c-3.928,1.425-7.872,2.813-11.856,4.062c-1.928,0.604-3.659,0.061-4.8-1.777c-0.711-1.145-1.431-2.283-2.303-3.672
		C336.288,143.352,341.75,140.973,347.271,138.736z M364.02,191.599c-1.241,0.065-2.327,0.278-3.368,0.144
		c-2.256-0.293-4.479-0.817-6.732-1.145c-1.925-0.279-3.226-1.263-4.217-2.919c-1.889-3.154-3.896-6.236-5.854-9.349
		c-0.161,0.068-0.32,0.138-0.481,0.205c0.512,1.299,0.914,2.654,1.56,3.881c1.061,2.012,2.329,3.914,3.417,5.912
		c1.188,2.179,0.397,4.069-1.987,4.723c-2.252,0.616-4.521,1.317-6.825,1.544c-1.252,0.122-2.868-0.324-3.839-1.109
		c-2.19-1.77-4.136-3.859-6.083-5.912c-1.934-2.037-1.987-4.474-0.253-6.675c1.521-1.93,3.071-3.838,4.662-5.711
		c0.378-0.445,0.946-0.981,1.459-1.018c1.657-0.114,2.379-1.086,2.73-2.735c1.426,1.751,2.729,3.35,4.031,4.948
		c0.105-0.062,0.209-0.125,0.313-0.187c-4.106-8.433-8.214-16.866-12.512-25.693C332.532,151.551,363.431,189.001,364.02,191.599z
		 M307.242,161.253c5.002-3.665,10.024-7.303,15.077-10.898c1.986-1.412,4.06-1.25,5.927,0.33c0.784,0.664,1.521,1.386,2.277,2.081
		c-0.072,0.173-0.145,0.345-0.218,0.517c-9.624-0.521-16.488,5.617-24.067,10.028c-0.117-0.128-0.235-0.257-0.354-0.385
		C306.333,162.361,306.682,161.664,307.242,161.253z M321.254,155.742c-0.057,1.108-0.097,1.912-0.158,3.109
		c1.773-0.928,3.332-1.698,4.848-2.545c3.228-1.801,5.051-1.23,6.586,2.163c0.577,1.278,1.072,2.594,1.471,3.565
		c-3.933,3.477-7.576,6.937-11.484,10.062c-2.178,1.742-4.784,2.955-7.235,4.338c-0.308,0.173-0.967,0.074-1.274-0.153
		c-3.789-2.8-7.544-5.648-11.511-8.636C308.771,163.664,314.868,159.796,321.254,155.742z M292.996,176.432
		c-1.168-0.814-2.256-1.569-3.34-2.329c-8.11-5.681-16.215-11.366-24.331-17.039c-1.493-1.042-1.806-2.026-0.818-3.589
		c1.904-3.016,3.904-5.971,5.851-8.96c0.869-1.335,1.943-1.438,3.097-0.469c2.685,2.251,5.324,4.555,7.99,6.828
		c0.417,0.355,0.851,0.705,1.318,0.986c3.117,1.877,3.603,4.031,1.896,7.276c-1.021,1.942-1.742,4.047-2.546,6.098
		c-0.191,0.486-0.175,1.052,0.054,1.742c2.942-3.203,4.542-7.26,6.954-10.926c3.488,3.234,6.907,6.406,10.497,9.736
		C297.39,169.369,295.252,172.805,292.996,176.432z M310.005,186.878c-1.589,0.291-3.688-0.189-5.053-1.085
		c-3.415-2.241-6.544-4.921-9.934-7.538c1.596-2.786,3.155-5.63,4.842-8.397c0.692-1.137,1.844-1.459,3.028-0.668
		c1.732,1.157,3.471,2.32,5.099,3.615c4.169,3.318,8.279,6.711,12.413,10.074c0.183,0.148,0.36,0.302,1.057,0.886
		C317.307,184.936,313.71,186.198,310.005,186.878z M310.142,207.853c1.086-2.938,1.985-5.979,4.424-8.188
		c0.896-0.812,1.775-1.645,2.633-2.438c12.108,10.065,24.329,20.226,36.658,30.477c-13.21-5.673-26.355-11.317-39.643-17.022
		c1.754-3.192,3.422-6.228,5.092-9.264c-0.128-0.13-0.256-0.26-0.384-0.39c-0.71,0.573-1.562,1.036-2.104,1.737
		c-1.58,2.043-3.017,4.195-4.559,6.27c-0.281,0.378-0.793,0.586-1.197,0.874c-0.295-0.442-0.622-0.867-0.871-1.335
		C310.087,208.376,310.064,208.062,310.142,207.853z M302.918,208.477c4.169-0.263,5.827,1.875,5.696,5.815
		c0.181-0.067,0.361-0.132,0.541-0.198c0.043-0.594,0.097-1.186,0.126-1.78c0.062-1.28,0.647-1.861,1.916-1.341
		c6.53,2.682,13.051,5.385,19.695,8.131c-0.99,2.592-1.86,5.066-2.883,7.476c-0.528,1.247-1.713,0.988-2.745,0.732
		c-4.236-1.048-8.443-2.226-12.705-3.158c-4.497-0.983-9.044-1.741-13.568-2.602c-0.408-0.077-0.812-0.173-1.486-0.32
		C299.401,216.763,301.195,212.535,302.918,208.477z M312.314,236.738c-4.67,0-9.039,0.089-13.397-0.087
		c-0.736-0.028-2.013-1.164-2.044-1.838c-0.194-4.035-0.097-8.084-0.097-12.329c2.611,0.504,5.376,1.03,8.138,1.568
		c2.416,0.471,4.842,0.905,7.234,1.476c0.466,0.11,1.164,0.804,1.135,1.184C313.038,230.078,312.652,233.435,312.314,236.738z
		 M314.763,255.043c0.525,1.583,1.117,3.051,1.489,4.572c0.304,1.243-0.148,2.292-1.401,2.889c-1.886,0.896-3.782,1.774-5.629,2.746
		c-1.238,0.651-2.171,0.299-2.86-0.735c-1.253-1.879-2.419-3.814-3.727-5.895C306.765,257.401,310.64,256.26,314.763,255.043z
		 M302.062,260.054c0.991,2.175,1.83,4.418,2.787,6.799c-3.785,1.407-7.457,2.788-11.141,4.139
		c-5.315,1.948-10.636,3.88-15.958,5.807c-2.589,0.938-2.832,0.839-4.037-1.506c-2.551-4.962-2.411-4.737,2.337-7.704
		c7.559-4.722,16.168-6.107,24.535-8.3C300.999,259.18,301.873,259.642,302.062,260.054z M273.596,261.433
		c2.774-0.797,5.536-1.648,8.267-2.587c2.642-0.908,5.252-1.595,8.117-1.217c1.29,0.17,2.659-0.379,4.002-0.461
		c1.476-0.09,2.963-0.02,4.444-0.02c0.036,0.199,0.072,0.398,0.108,0.6c-0.843,0.442-1.641,1.036-2.536,1.304
		c-7.89,2.357-15.798,4.656-23.701,6.968c-0.166,0.049-0.353,0.03-0.513,0.043C270.159,263.265,270.577,262.301,273.596,261.433z
		 M205.544,284.071c14.542-6.729,29.606-12.059,44.929-16.694c5.412-1.638,10.734-3.678,16.537-3.399
		c0.835,0.039,1.671,0.088,2.506,0.132c0.049,0.169,0.099,0.337,0.147,0.506c-0.679,0.498-1.288,1.198-2.048,1.465
		c-7.008,2.472-13.976,5.084-21.081,7.241c-14.532,4.411-29.142,8.567-43.72,12.825c-0.443,0.129-0.901,0.209-1.49-0.027
		C202.73,285.435,204.125,284.728,205.544,284.071z M237.824,291.035c-7.936,2.816-15.875,5.621-23.774,8.531
		c-2.185,0.805-4.245,1.948-6.35,2.963c-1.367,0.66-2.401,0.416-2.979-1.046c-1.622-4.117-3.22-8.244-4.934-12.64
		c6.152-2.153,11.962-4.609,18-6.204c9.62-2.54,19.392-4.513,29.101-6.713c7.02-1.59,14.043-3.16,21.065-4.732
		c0.406-0.091,0.827-0.117,1.44-0.203c0.347,2.633,0.751,5.17,0.944,7.721c0.029,0.402-0.824,1.085-1.394,1.288
		C258.582,283.709,248.196,287.353,237.824,291.035z M248.52,293.402c-0.894-3.447-0.384-4.477,2.941-5.733
		c6.214-2.349,12.454-4.63,18.704-6.879c0.508-0.183,1.453-0.137,1.735,0.193c3.109,3.64,6.126,7.355,9.368,11.294
		c-2.234,1.271-4.391,2.315-6.343,3.656c-2.001,1.374-5.09,1.552-5.551,4.778c-0.033,0.234-0.726,0.385-1.119,0.555
		c-2.539,1.1-5.034,2.329-7.645,3.227c-1.101,0.377-2.818,0.551-3.611-0.044C253.18,301.589,249.78,298.262,248.52,293.402z
		 M212.893,345.812c-2.408,1.644-4.904,2.115-7.865,1.689c-2.031-0.292-4.224,0.462-6.333,0.811
		c-8.793,1.454-17.581,2.933-26.373,4.394c-0.141,0.023-0.304-0.089-0.773-0.239c1.238-0.542,2.243-0.936,3.205-1.411
		c8.712-4.312,17.33-8.825,26.154-12.895c5.229-2.411,10.785-4.113,16.182-6.17c1.126-0.429,1.745-0.125,2.372,0.898
		c1.273,2.079,2.71,4.058,3.938,5.868C219.796,341.172,216.327,343.467,212.893,345.812z M259.639,316.549
		c-11.001,5.975-21.4,12.895-31.667,20.028c-2.375,1.649-2.568,1.602-4.643-0.491c-0.606-0.61-1.194-1.246-1.716-1.93
		c-1.461-1.911-1.162-3.312,0.956-4.521c5.023-2.869,10.072-5.692,15.081-8.588c6.335-3.662,12.639-7.38,19.107-11.161
		c1.53,1.653,3.067,3.312,4.771,5.153C260.838,315.601,260.301,316.189,259.639,316.549z M260.545,311.235
		c-0.82-1.335,0.172-1.971,1.018-2.522c5.726-3.724,11.482-7.398,17.23-11.09c0.053-0.031,0.104-0.069,0.162-0.088
		c9.756-3.136,17.271-10.059,25.779-15.296c8.805-5.421,17.53-10.967,26.294-16.454c0.407-0.254,0.848-0.457,1.339-0.72
		c1.217,1.38,2.458,2.667,3.555,4.065c1.403,1.789,0.923,4.172-1.059,5.21c-4.087,2.142-8.212,4.212-12.328,6.293
		c-1.042,0.527-1.931,0.89-2.735-0.606c-0.323-0.602-1.68-0.647-2.564-0.946c-0.094,0.175-0.187,0.351-0.28,0.525
		c0.608,0.967,1.217,1.933,1.938,3.081c-0.78,0.44-1.497,0.859-2.227,1.256c-7.68,4.168-15.393,8.278-23.02,12.542
		c-1.632,0.912-2.761,1.05-3.792-0.61c-0.164-0.264-0.293-0.551-0.451-0.854c-0.338,0.372-0.481,0.482-0.464,0.518
		c1.55,3.366-0.605,4.949-3.081,6.321c-5.49,3.042-11.001,6.048-16.509,9.057c-1.566,0.856-3.148,1.684-4.736,2.498
		C263.504,313.984,261.569,312.902,260.545,311.235z M291.166,301.003c-2.247,1.393-4.177,2.589-6.365,3.945
		C286.107,301.979,288.603,300.373,291.166,301.003z M290.955,333.793c-4.749-2.928-9.541-5.794-14.16-8.917
		c-3.76-2.542-7.295-5.419-11.166-8.323c8.96-4.779,17.819-9.503,26.948-14.372c2.827,5.225,5.573,10.297,8.313,15.372
		c0.086,0.157,0.214,0.42,0.15,0.513c-1.227,1.729,0.348,3.247,0.315,4.84c-0.026,1.265-0.378,2.729-1.104,3.728
		c-1.621,2.229-3.571,4.221-5.379,6.317C293.773,334.228,292.456,334.718,290.955,333.793z M273.985,371.515
		c-1.151-2.081-2.269-3.529-2.73-5.163c-0.253-0.896,0.273-2.471,1.002-3.114c5.929-5.244,9.896-12.09,14.978-18.012
		c2.518-2.935,5.35-5.598,8.014-8.409c1.522-1.604,3.145-3.147,4.458-4.915c4.582-6.165,10.109-11.407,15.646-16.679
		c3.107-2.957,5.757-6.391,8.675-9.553c0.721-0.782,1.685-1.34,2.537-2c0.185,0.165,0.37,0.331,0.555,0.496
		c-0.182,0.452-0.308,0.936-0.553,1.351c-5.829,9.854-11.696,19.685-17.496,29.554c-2.639,4.489-6.355,8.06-9.87,11.793
		c-2.29,2.433-4.789,4.67-7.232,6.953c-3.218,3.007-6.545,5.901-9.691,8.979C279.53,365.484,276.97,368.361,273.985,371.515z
		 M312.489,381.712c-3.217-0.406-6.354-1.408-9.561-1.952c-2.482-0.421-5.012-0.618-7.529-0.785
		c-6.739-0.445-12.896-2.914-19.6-5.471c2.665-2.687,5.116-5.172,7.585-7.642c3.192-3.191,6.363-6.402,9.617-9.53
		c0.989-0.95,2.294-1.568,3.331-2.479c3.243-2.842,6.425-5.753,9.636-8.633c0.904-0.811,1.786-1.656,2.753-2.388
		c1.245-0.942,2.446-1.021,3.854-0.015c4.201,3.01,8.499,5.884,12.763,8.807c1.774,1.216,3.695,1.847,5.894,1.781
		c0.938-0.026,1.893,0.408,2.832,0.665c0.834,0.228,1.655,0.501,2.62,0.334c-1.13-0.56-2.301-1.049-3.384-1.69
		c-3.065-1.812-6.126-3.636-9.126-5.552c-2.796-1.786-5.551-3.642-8.252-5.568c-2.64-1.88-2.741-4.524-0.903-7.139
		c1.665-2.372,2.911-5.041,4.29-7.604c1.596-2.967,3.034-6.023,4.72-8.935c4.07-7.03,8.244-14.001,12.377-20.995
		c0.342-0.578,0.684-1.154,0.873-1.475c4.001,1.387,7.926,2.577,11.713,4.11c3.108,1.257,6.131,2.792,9.012,4.507
		c0.631,0.374,0.891,2.131,0.656,3.086c-3.157,12.875-7.13,25.486-12.858,37.472c-4.534,9.488-9.132,18.947-13.912,28.312
		c-1.557,3.048-3.732,5.789-5.729,8.597c-0.37,0.522-1.253,0.991-1.879,0.966C320.345,382.336,316.392,382.208,312.489,381.712z
		 M342.522,391.154c-5.957,0.049-11.915,0.035-17.948,0.035c-0.567-2.852,0.42-5.091,1.854-7.098
		c1.679-2.349,3.702-4.453,5.363-6.814c3.253-4.622,6.426-9.304,9.479-14.061c0.805-1.253,0.953-2.908,1.562-4.31
		c1.363-3.143,2.823-6.24,4.252-9.354c0.359-0.781,0.83-1.52,1.113-2.325c2.404-6.844,4.791-13.693,7.147-20.553
		c0.575-1.679,1.019-3.403,1.553-5.209c5.737,0.975,6.194,1.926,3.709,6.862c-2.831,5.624-4.864,11.52-6.405,17.642
		c-1.861,7.389-4.259,14.64-6.235,22.002c-1.131,4.211-1.93,8.513-2.801,12.787c-0.527,2.595-0.786,3.104-3.497,3.242
		c-3.625,0.18-7.25-1.002-10.875,0.998c4.501,0,9.002,0,13.729,0c-0.328,1-0.607,3.68-1.007,5.582
		C343.446,390.91,342.868,391.153,342.522,391.154z M379.207,423.228c-3.693,0.037-7.391,0.086-11.081-0.022
		c-8.715-0.256-17.309-1.31-25.504-4.497c-1.037-0.402-1.916-1.216-2.868-1.84c0.1-0.16,0.199-0.32,0.297-0.479
		c0.936,0.527,1.87,1.055,2.937,1.655c1.019-1.634,2.501-1.674,4.197-1.45c2.091,0.278,4.219,0.293,6.331,0.42
		c0.053-0.284,0.105-0.566,0.157-0.851c-1.51-0.295-3.009-0.741-4.532-0.854c-2.204-0.161-4.427-0.021-6.638-0.13
		c-1.364-0.067-1.971-0.602-1.595-2.275c1.487-6.599,2.66-13.27,4.187-19.856c0.646-2.786,1.882-5.437,2.85-8.148
		c0.162-0.458,0.514-0.94,0.46-1.372c-0.578-4.603,1.252-8.845,1.934-13.254c0.309-2.004,0.833-3.975,1.221-5.969
		c0.169-0.873,0.476-1.391,1.512-1.455c8.725-0.539,17.447-1.133,26.171-1.704c0.171-0.012,0.348,0.049,0.641,0.095
		c0.027,0.481,0.081,0.957,0.078,1.431c-0.115,14.964-0.261,29.927-0.311,44.891c-0.004,1.539-0.537,2.133-1.919,2.56
		c-4.053,1.252-8.065,2.638-12.092,3.978c-0.442,0.148-0.874,0.332-1.225,0.777c5.303-1.476,10.605-2.953,16.069-4.475
		c0.324,3.811,0.691,7.513,0.933,11.225C381.515,423.111,380.255,423.217,379.207,423.228z M384.429,420.14
		c-0.423-1.725-1.045-3.426-1.228-5.176c-0.347-3.297-0.285-6.641-0.692-9.928c-0.254-2.036-1.059-4.002-1.615-5.999
		c-0.115-0.41-0.343-0.815-0.344-1.223c-0.032-8.354-0.495-16.725,1.352-25.061c1.061,15.751,2.119,31.501,3.179,47.251
		C384.862,420.05,384.646,420.096,384.429,420.14z M387.334,456.411c-0.37-3.134-0.741-6.269-1.111-9.402
		c0.287-0.031,0.575-0.063,0.862-0.096c0.226,3.151,0.451,6.302,0.677,9.455C387.619,456.381,387.477,456.397,387.334,456.411z
		 M395.725,439.628c-0.178,1.519-0.914,3.12-1.828,4.369c-1.331,1.822-1.604,3.776-1.715,5.896
		c-0.736,14.236,1.799,28.213,3.32,42.269c0.026,0.238,0.112,0.469,0.235,0.967c0.355-0.498,0.603-0.846,1.109-1.56
		c0.344,6.687,0.668,13.02,0.993,19.353c-0.143,0.028-0.286,0.056-0.429,0.082c-0.583-1.817-1.205-3.624-1.737-5.457
		c-0.753-2.599-1.57-5.19-2.127-7.834c-1.072-5.111-2.111-10.236-2.892-15.395c-0.296-1.957,0.28-4.03,0.247-6.046
		c-0.034-2.2-0.312-4.396-0.489-6.592c-1.464-18.217-4.096-36.348-4.036-54.675c0.011-3.744,0.426-7.513-0.953-11.14
		c-0.127-0.335-0.109-0.729-0.133-1.098c-0.802-12.657-1.604-25.314-2.397-37.972c-0.051-0.797-0.104-1.606-0.034-2.399
		c0.164-1.906,0.949-2.376,2.841-2.671c2.165-0.337,4.269-1.061,6.401-1.61c0.876-0.226,1.754-0.441,2.808-0.704
		c0,1.247,0.013,2.274-0.003,3.304c-0.21,14.532-0.7,29.066-0.53,43.596c0.096,8.228,1.413,16.435,1.899,24.667
		C396.483,432.509,396.136,436.101,395.725,439.628z M397.23,383.958c0.982,11.995,1.967,23.989,2.951,35.983
		c-0.168,0.011-0.335,0.022-0.503,0.033C396.234,408.178,396.223,396.109,397.23,383.958z M400.975,446.017
		c4.499,0.955,8.999,1.909,13.498,2.863C409.698,449.202,405.155,448.451,400.975,446.017z M442.202,413.761
		c0.271,0.451,0.642,0.87,0.8,1.359c1.908,5.909,3.737,11.848,5.695,17.74c0.753,2.265,0.227,3.967-1.349,5.703
		c-2.756,3.035-6.121,4.537-10.133,5.115c-3.022,0.436-5.966,1.407-8.965,2.041c-1.127,0.237-2.258,0.264-3.416,0.274
		c-3.631,0.033-6.835,0.012-10.835,0.012c0-0.176,0-0.351,0-0.527c-4,0-8.435,0.083-12.614-0.056
		c-1.037-0.035-2.399-0.533-2.988-1.292c-0.374-0.479,0.134-1.981,0.646-2.77c1.673-2.577,3.452-5.09,5.339-7.516
		c0.604-0.775,1.583-1.346,2.506-1.769c9.447-4.336,18.889-8.681,28.396-12.883c2.312-1.022,3.922-2.664,5.48-4.501
		C441.117,414.276,441.716,414.065,442.202,413.761z M434.712,394.523c2.072,4.79,3.689,9.779,5.465,14.696
		c0.218,0.602,0.442,1.515,0.155,1.932c-1.439,2.081-2.635,4.833-4.674,5.901c-6.296,3.305-12.82,6.267-19.493,8.719
		c-3.369,1.236-7.243,1.156-10.906,1.491c-0.601,0.056-1.481-0.696-1.884-1.305c-0.563-0.851-0.99-1.896-1.12-2.9
		c-0.128-1.014,0.171-2.083,0.304-3.125c0.11-0.879,0.613-1.905,0.321-2.608c-2.061-4.946-2.194-10.226-2.653-15.403
		c-1.161-13.117-1.999-26.264-3.074-39.388c-0.359-4.406-1.042-8.789-1.605-13.43c3.075-0.756,5.979-1.414,9.022-0.516
		c3.125,0.922,6.312,1.652,9.393,2.693c0.974,0.331,2.032,1.232,2.479,2.15c1.563,3.202,2.834,6.544,4.288,9.803
		C425.387,373.666,430.177,384.039,434.712,394.523z M438.469,367.691c-2.824,1.74-5.621,3.529-8.48,5.21
		c-1.854,1.091-2.909,0.731-3.835-1.207c-1.479-3.096-2.897-6.22-4.342-9.333c0.093-0.137,0.188-0.272,0.281-0.41
		c3.251,1.677,6.733,1.552,10.226,1.736c3.089,0.163,6.142,0.992,9.21,1.525c0.026,0.189,0.055,0.377,0.081,0.566
		C440.563,366.416,439.514,367.049,438.469,367.691z M435.737,362.352c-3.679-0.265-7.341-0.74-11.011-1.12
		c-2.342-0.24-3.97-1.445-4.467-3.75c-0.823-3.823-2.65-7.161-4.294-10.66c-2.205-4.689-3.407-9.853-5.005-14.823
		c-0.564-1.755-0.972-3.561-1.555-5.308c-0.535-1.608-0.04-2.575,1.513-3.182c3.207-1.255,6.373-2.619,9.601-3.819
		c0.489-0.182,1.456,0.056,1.79,0.449c2.588,3.047,5.099,6.161,7.572,9.302c0.432,0.55,0.758,1.309,0.827,2
		c0.858,8.7,5.083,16.103,8.986,23.639c1.182,2.281,2.305,4.593,3.66,7.304C440.496,362.383,438.104,362.521,435.737,362.352z
		 M456.868,385.136c-3.144-5.777-6.513-11.436-9.598-17.243c-2.071-3.896-3.864-7.945-5.692-11.968
		c-0.834-1.837-0.177-2.644,1.546-3.532c3.313-1.709,6.557-3.578,9.688-5.601c1.741-1.121,3.08-2.858,4.802-4.018
		c5.217-3.515,8.789-8.501,12.518-13.389c1.29-1.69,2.946-3.104,4.706-4.921c5.507,6.505,10.891,12.805,16.192,19.17
		c1.771,2.123,3.303,4.442,5.002,6.625c1.634,2.101,1.994,4.222,0.718,6.678c-1.729,3.328-3.298,6.741-4.915,10.126
		c-0.368,0.768-0.661,1.572-1.085,2.592c0.593-0.172,0.953-0.276,1.68-0.488c-0.961,1.914-1.713,3.657-2.668,5.279
		c-5.408,9.185-17.49,18.765-27.309,21.658C460.604,392.459,458.833,388.745,456.868,385.136z M483.527,327.292
		c0.183-0.233,0.365-0.468,0.548-0.702c1.679,0.859,3.357,1.717,5.29,2.703c-0.711,0.831-1.25,1.461-1.892,2.211
		C486.077,330.012,484.802,328.653,483.527,327.292z M497.279,386.285c-2.301,2.212-4.637,4.407-6.743,6.795
		c-2.837,3.215-6.153,5.688-10.167,7.111c-4.514,1.602-9.094,3.012-13.862,4.576c-0.522-1.232-0.995-2.347-1.445-3.411
		c0.127-0.188,0.178-0.354,0.268-0.38c3.226-0.943,5.722-2.634,8.042-5.293c2.951-3.384,6.786-6.034,10.396-8.794
		c2.787-2.13,5.051-4.491,5.7-8.065c0.021-0.12,0.067-0.238,0.118-0.35c3.249-7.152,6.498-14.305,9.754-21.454
		c0.072-0.16,0.226-0.286,0.57-0.708c4.475,4.848,8.877,9.618,13.476,14.604C508.377,375.692,502.808,380.969,497.279,386.285z
		 M494.85,340.61c-1.609-1.917-2.875-4.148-4.109-6.34c-0.494-0.876-0.477-2.04-0.691-3.071c0.143-0.076,0.284-0.152,0.426-0.229
		c3.541,2.18,7.11,4.316,10.617,6.551c5.296,3.376,10.574,6.776,15.805,10.251c4.27,2.837,4.669,4.133,2.868,8.945
		c-0.714,1.906-1.354,3.719-1.327,5.852c0.02,1.186-1.158,2.389-1.786,3.565C509.141,357.368,501.933,349.042,494.85,340.61z
		 M524.717,354.232c2.008-0.312,3.025,1.276,4.336,2.701c-3.13,4.308-6.186,8.515-9.272,12.764c-1.528-0.646-1.997-1.536-1.35-3.07
		c1.208-2.874,2.319-5.787,3.441-8.697C522.461,356.402,522.713,354.545,524.717,354.232z M533.365,328.088
		c-1.635,3.624-3.243,7.324-5.42,10.622c-2.256,3.419-5.174,6.4-7.919,9.714c-5.332-3.857-10.591-7.661-16.223-11.733
		c5.699-2.411,11.032-4.667,16.364-6.923c-0.024-0.095-0.051-0.188-0.076-0.281c-5.028,1.289-10.128,2.363-15.069,3.939
		c-3.971,1.267-7.021,0.512-9.803-2.507c-3.039-3.299-6.16-6.533-9.429-9.6c-1.681-1.577-3.76-2.728-5.761-4.143
		c3.683-5.004,7.312-9.934,11.106-15.088c6.292,3.411,12.454,6.73,18.595,10.091c5.667,3.1,11.322,6.221,16.952,9.39
		c1.161,0.654,2.158,1.591,3.267,2.347c0.542,0.369,1.133,0.714,1.751,0.913C533.688,325.472,534.234,326.157,533.365,328.088z
		 M494.962,302.019c0.076-0.201,0.155-0.402,0.233-0.604c0.723,0.221,1.524,0.308,2.156,0.681c3.178,1.871,6.29,3.842,9.463,5.719
		c0.884,0.523,1.851,0.988,2.841,1.237c3.72,0.935,6.601,3.113,9.194,5.76c-0.087,0.148-0.173,0.298-0.259,0.448
		C510.713,310.844,502.839,306.431,494.962,302.019z M553.384,298.144c-1.324,3.111-2.878,6.125-4.246,9.219
		c-2.056,4.653-5.653,7.832-9.847,10.444c-1.983,1.237-4.055,2.329-6.031,3.579c-0.939,0.594-1.602,0.431-2.459-0.17
		c-5.395-3.765-10.732-7.619-16.268-11.158c-5.129-3.276-10.45-6.259-15.761-9.233c-1.857-1.042-3.912-1.759-5.931-2.473
		c-1.2-0.422-2.06-0.984-1.777-2.341c1.605-7.766,3.257-15.523,4.9-23.282c0.022-0.102,0.148-0.183,0.348-0.418
		c20.131,5.283,40.335,10.585,60.933,15.989C555.928,291.685,554.744,294.952,553.384,298.144z M522.255,276.807
		c3.979,0.72,7.956,1.434,11.933,2.165c7.805,1.433,15.612,2.846,23.401,4.351c1.025,0.198,1.936,0.929,2.929,1.342
		c0.713,0.296,1.459,0.594,2.212,0.688c4.607,0.575,9.219,1.091,13.83,1.628c0.014,0.16,0.027,0.321,0.044,0.481
		c-1.38,0.315-2.764,0.632-4.564,1.042c4.308,1.261,8.198,2.399,12.088,3.538C578.323,292.414,530.884,280.868,522.255,276.807z
		 M579.813,289.317c2.976-1.108,15.922,1.724,20.047,4.451C592.534,293.812,586.385,291.135,579.813,289.317z"/>
</g>
</svg>
