<?xml version="1.0" encoding="utf-8"?>
<!-- Generator: Adobe Illustrator 16.0.0, SVG Export Plug-In . SVG Version: 6.00 Build 0)  -->
<svg version="1.2" baseProfile="tiny" xmlns="http://www.w3.org/2000/svg" xmlns:xlink="http://www.w3.org/1999/xlink" x="0px"
	 y="0px" width="800px" height="540px" viewBox="0 0 800 540" xml:space="preserve">
<g id="Ebene_1" display="none">
	<g display="inline">
		<rect x="20" y="20" width="760" height="500"/>
		<g>
			<polygon fill="none" points="780,4.752 4.752,4.752 4.752,535.248 795.248,535.248 795.248,20 764.752,20 764.752,504.752 
				35.248,504.752 35.248,35.248 779.995,35.248 			"/>
			<path fill-rule="evenodd" d="M779.862,16.724c0.623,0.252-1.016,0.32-1.47,0.483c-2.155-0.105-4.657-0.181-4.417-0.483
				C775.943,16.724,777.903,16.724,779.862,16.724z"/>
			<path fill-rule="evenodd" d="M594.614,6.929c-6.973,0.05-7.187-0.457-13.224-0.484c-5.485-0.129-4.756,0.253-7.355,0.362
				c-32.557-0.442-64.16-0.231-91.15,0.485c0.694-0.258-2.102-0.23-4.421-0.242c0.271-0.542,2.56-0.919,5.891-1.208
				c32.547-0.472,62.485-0.424,94.098-1.089C575.825,6.138,595.7,5.671,594.614,6.929z"/>
			<path fill-rule="evenodd" d="M255.009,5.357c-2.172-0.224-7.596-0.182-7.355-0.605C251.911,4.806,254.359,5.007,255.009,5.357z"
				/>
			<path fill-rule="evenodd" d="M225.605,34.5c-5.931,0.186-18.362,0.238-20.579-0.242c-8.246,0.41-16.109,0.851-29.404,0.846
				c-1.167-0.226-2.458-0.443-2.947-0.726C187.528,33.46,222.818,31.992,225.605,34.5z"/>
			<path fill-rule="evenodd" d="M9.589,95.2c0.12-6.225,0.327,5.183,0.363,0c0.27,1.06,0.058,8.371-0.241,7.338
				C9.644,100.401,9.851,94.956,9.589,95.2z"/>
			<path fill-rule="evenodd" d="M8.139,265.729c0.315-0.41,0.52,0.543,0.484,4.417C8.306,270.555,8.101,269.602,8.139,265.729z"/>
			<path fill-rule="evenodd" d="M12.25,510.112c-0.193,5.944-0.137,8.936-0.071,11.093c0.065,2.176,0.14,3.556-0.016,6.633
				c0.612,0.043,1.346,0.095,2.189,0.155c6.154-0.116,12.652-0.173,19.379-0.193c4.616,0.005,9.401,0.011,14.192,0.016
				c9.237,0.048,18.5,0.134,26.545,0.057c7.975-0.077,15.343-0.474,23.522-0.604c32.516-0.522,68.661-0.306,101.444-0.363
				c18.91-0.033,38.398-0.14,54.387,0.241c-13.384,1.828-46.163,0.984-67.624,0.848c-4.234,0.093-7.587,0.262-10.29,0.482
				c-27.981-0.2-52.052,0.209-74.918,0.463c-11.433,0.127-22.565,0.216-33.733,0.17c-5.584-0.022-11.178-0.078-16.823-0.18
				c-2.822-0.062-5.657-0.125-8.511-0.188c-1.427-0.04-2.858-0.081-4.295-0.122l-2.159-0.068c-1.081-0.024-2.164-0.049-3.249-0.074
				c-7.186,0.19-13.861,0.178-20.89,0.195c-0.012-5.018-0.04-10.21-0.168-15.984c0.055-2.072,0.106-4.156,0.242-4.668
				C11.574,504.732,11.99,508.468,12.25,510.112z"/>
			<path fill-rule="evenodd" d="M206.786,524.244c4.88-0.17,15.209-0.257,14.697,0.363c5.552-0.339,11.741,0.106,19.105,0
				c41.123,1.211,96.529,0.773,148.498,1.571c1.95,0.563-3.277,0.537-5.886,0.726c-20.704-0.349-35.94,0.647-55.869,0.121
				c-25.601,0.741-55.166-0.705-79.387-0.968c-9.332-0.552-26.768-0.825-42.636-0.726
				C203.794,525.172,205.254,524.523,206.786,524.244z"/>
			<path fill-rule="evenodd" d="M350.867,523.761v-0.364c12.591-0.288,24.765,0.181,36.742-0.12
				c-2.128,0.51-9.475,0.591-13.233,0.968C365.159,524.069,358.008,524.239,350.867,523.761z"/>
			<path fill-rule="evenodd" d="M393.494,526.542c-1.077-0.589,13.032-0.383,16.172-0.243
				C404.616,526.678,399.345,526.31,393.494,526.542z"/>
			<path fill-rule="evenodd" d="M691.94,527.146c1.87-0.439,11.332-1.444,17.632-0.726c14.217-0.85,31.193-0.494,49.992-0.846
				c-0.694,0.245,1.296,0.35,3.751,0.371c0.672,0,1.375,0.001,2.072,0.001c0.885-0.009,1.762-0.017,2.583-0.025
				c1.639-0.023,3.045-0.062,3.835-0.105c-0.487-0.204-2.406-0.124-4.038-0.062c-1.631,0.062-2.946,0.103-2.074-0.179
				c6.78-0.094,13.455-0.114,19.75-0.131c-0.018-4.594-0.034-8.986-0.05-13.056c-0.03-3.98-0.083-8.16-0.183-10.172
				c0.196-0.418,0.209,1.39,0.363,1.456c0.142-0.227,0.102-2.667,0.121-4.395c0.06,0.125,0.101,0.99,0.123,2.132
				c0.007,0.571,0.015,1.212,0.022,1.863c-0.002,0.709-0.003,1.431-0.005,2.101c-0.021,3.415-0.111,5.725-0.262,1.935
				c-0.015,3.591,0.147,4.276,0.121,8.101c0.085-3.733,0.256-3.079,0.396-3.039c0.14,0.038,0.249-0.586,0.208-7.049
				c0.174,0.476,0.043,6.207,0.243,6.306c-0.111,3.653-0.425,3.662-0.604,5.934c0.067,1.763,0.1,4.941,0.124,8.502
				c-9.036,0.062-20.698,0.069-16.125,0.48c-1.063,0.048-2.303,0.07-3.665,0.074c-0.622-0.002-1.271-0.005-1.944-0.007
				c-0.514-0.01-1.044-0.02-1.589-0.029c-2.179-0.074-4.581-0.156-6.972-0.237c-4.782-0.173-9.524-0.3-12.374,0.077
				C725.085,526.231,715.146,527.028,691.94,527.146z"/>
			<path fill-rule="evenodd" d="M785.211,496.33c0.089-2.983,0.364-5.993,0.604-2.943
				C785.798,496.606,785.511,496.544,785.211,496.33z"/>
			<path fill-rule="evenodd" d="M784.849,486.045c-0.058-4.622,0.325-3.883,0.362-7.355
				C785.534,480.845,785.161,486.757,784.849,486.045z"/>
			<path fill-rule="evenodd" d="M785.695,465.457c-0.453-0.65,0.044-8.354-0.242-13.232
				C785.854,452.736,785.643,460.701,785.695,465.457z"/>
			<path fill-rule="evenodd" d="M785.453,443.408c-0.198-2.493-0.506-3.65-0.483-8.824
				C785.244,436.16,785.408,439.045,785.453,443.408z"/>
			<path fill-rule="evenodd" d="M790.289,286.095c0.094-4.755,0.336-7.685,0.727-8.815
				C790.743,279.853,790.737,285.649,790.289,286.095z"/>
			<path fill-rule="evenodd" d="M738.98,508.041c-12.702-0.306-26.31-0.64-38.224-0.121c-27.312-0.38-60.585-1.152-88.212-0.483
				c-9.706-0.436-20.819-0.019-30.868-0.242c-47.726-1.06-97.272,0.252-144.076,1.693c-3.438,0-6.857,0-10.295,0
				c-14.221,0.349-28.174,1.042-44.105,1.33c-32.796,0.592-71.746,0.098-105.848-0.241c-0.147-0.191,0.191-0.421-2.943-0.364
				c-33.251-0.599-64.81-1.915-99.975-1.935c-8.575-0.004-16.643,0.398-24.996,0c-8.94,0.393-20.143,0.601-30.864,0.847
				c-20.098-0.318-52.378,0.012-69.102,0.967c-2.55-0.073-5.038-0.105-7.492-0.109c-1.228,0.004-2.446,0.008-3.66,0.012
				c-1.085,0.015-2.165,0.028-3.245,0.042c-1.48,0.072-3.067,0.196-4.772,0.261c-0.012-0.454-0.024-0.913-0.037-1.38
				c-0.015-1.698-0.029-3.43-0.045-5.19c-0.012-4.254-0.024-8.578-0.037-12.964c-0.019-8.771-0.038-17.79-0.057-26.976
				c-0.022-18.371-0.044-37.414-0.066-56.503c-0.055-38.178-0.109-76.537-0.157-110.073c-0.412-6.1-0.244-10.668-0.484-17.649
				c0.581-18.914,0.059-54.422-0.483-73.5c0.591-10.864,0.173-29.279,0.483-45.575c0.243-12.761,0.959-24.27,0.363-33.821
				c0.139-14.346,0.049-29.114,0.03-44.306c-0.01-7.595-0.002-15.296,0.061-23.104c0.047-3.903,0.094-7.833,0.141-11.789
				c0.037-1.978,0.074-3.962,0.11-5.954c0.047-1.917,0.094-3.841,0.142-5.772c0.13-1.612,0.293-3.093,0.462-4.411
				c1.23,0.135,2.47,0.271,3.721,0.409l0.422,0.048l0.208,0.023l0.103,0.012c0.036,0.004,0.038,0.007,0.208,0.011
				c1.037,0.03,2.076,0.059,3.117,0.089c2.083,0.051,4.175,0.103,6.276,0.154c18.344-0.184,35.628,0.036,54.391-0.242
				c0.231-0.141-0.254-0.343,1.469-0.362c10.953,0.221,28.317-0.792,42.637-0.363c22.965-0.822,43.126-2.243,80.856-1.935
				c14.809-1.248,47.143-0.815,67.632-1.331c15.722,0.216,41.488,0.387,52.922,1.331c10.116,0.136,19.475,0.333,32.338,0.242
				c3.812,0.13,5.472,0.437,10.29,0.484c2.066-0.193,5.076-0.31,8.833-0.363c21.657,0.826,56.421,0.766,82.312,0.242
				c2.961,0.462,9.884-0.11,13.237,0.362c43.509-0.614,90.878-2.027,135.265-0.604c7.262,1.479,19.555,2.252,22.048,3.869
				c3.705,0.259,10.071,0.301,11.764,0.726c-0.708,0.381,2.093,0.472,2.938,0.726c13.095,0.642,38.496,1.5,52.931,0.605
				c7.168-1.175,15.913-2.369,4.408-3.629c1.62-2.512-16.483-5.459,19.109-6.045c5.539-1.114,11.684-1.82,8.812-3.386
				c-8.785-0.71-13.269-1.804-26.452-2.419c2.752-0.229,0.169-0.304,0-0.603c-6.202-0.096-15.557,0.069-16.18-0.484
				c15.565,0.149,17.622-0.809,29.412-0.968c13.082-1.139,8.077-3.026,17.641-3.99c3.829,0.153,4.435,0.265,8.816,0.121
				c2.493-0.81-3.063-1.053,4.416-1.573c-2.636-0.491-6.429-0.419-11.763-0.482c-4.377-1.293-19.476-1.705-32.343-2.297
				c-38.086-0.016-63.108-1.613-95.558-1.331c-0.908-0.756-12.814-0.675-19.119-0.363c-2.698-0.301-1.024-0.962-5.882-1.088
				c-4.064,0.333,1.322,0.506,1.474,0.847c-5.414,0.266-17.97,0.452-22.048,0.121c-9.885,0.609-28.691,0.364-41.176,0.967
				c-4.742-0.496-11.772-0.805-22.049-0.847c-0.183,0.429-2.413,0.689-4.399,0.968c-28.104,0.698-43.272-0.751-70.58,0
				c-7.444-0.355-18.878-0.381-30.864-0.362c-29.938-1.437-74.64-1.528-111.738-0.483c-10.294-1.246-26.812-0.438-39.698-0.727
				c-20.455-0.455-40.789-1.543-61.747-0.846c-2.422,0.002-0.819,0.335-2.938,0.362c-15.361-0.118-35.53,0.244-52.921,0.242
				c-12.405,0-24.355-0.462-36.755-0.242c-14.404,0.258-25.25,0.758-33.821,1.815c-11.198-0.05-23.896,1.386-35.276,0.725
				c-1.108,0.072-1.513,0.197-2.227,0.303c-1.157,0.105-2.709,0.191-6.233,0.182c-4.9,0.036-5.031-0.164-7.631-0.242
				c0.479,0.451,2.949,0.344,0.386,0.724c6.334-0.093,11.011-0.163,15.444-0.228c2.879-0.07,5.6-0.165,9.078-0.376
				c1.995,0.038,2.813,0.173,5.886,0.122c15.984-0.75,34.636-1.621,55.86-2.056c20.445-0.419,41.702,0.151,55.869-0.604
				c3.366,0.045,1.959,0.483,4.417,0.604c7.641-0.423,14.399,0.148,23.518,0c6.412-0.105,11.826-0.688,19.11-0.727
				c14.773-0.074,24.07,0.478,41.167,0.484c7.035,0.807,23.937,0.294,24.987,1.089c-3.277,0.417-10.419-0.499-14.693,0
				c2.921,0.122,6.269,0.208,7.347,0.484c-15.058,0.816-20.668,2.41-39.689,2.901c-15.869-0.097-27.356,0.168-36.759,0.604
				c-25.504-0.361-56.14-0.441-86.74-0.316c-15.3,0.063-30.591,0.177-45.227,0.333c-17.211,0.207-33.653,0.404-48.567,0.583
				c0.001,0.12,0.002,0.226,0.004,0.331c-0.069,4.593-0.135,9.001-0.201,13.379c-0.029,3.944-0.059,7.86-0.088,11.887
				c-0.021,6.092,0.035,12.519,0.169,20.115c-1.603,17.578,0.48,59.894-0.484,76.448c1.226,7.542,0.636,31.906,0,39.689
				c0.838,2.957,0.512,14.764,0.242,22.058c-0.177,0.026-0.383-6.198-0.363,0c-0.035,2.894,0.164,2.912,0.243,4.408
				c-0.265,2.663-0.462,6.145-0.846,7.355c-0.086,5.45,0.206,6.305,0.121,11.754c-0.241-1.478-0.517-2.538-0.604-5.873
				c-0.165-7.895,0.227-9.007,0.362-13.237c-0.303,0.187-0.378,2.814-0.484-1.46c0.753-1.977-0.186-9.439,0.484-13.232
				c0.018,2.733,0.08,4.906,0.242,5.881c-0.118-5.756-0.26-12.63-0.363-17.654c0.005,1.567-0.057,3.74-0.121,1.469
				c-1.392,51.827-0.77,97.277-0.483,148.489c-0.296,2.778-0.375,8.184-0.484,13.232c0.312,14.805,0.306,25.37,1.572,29.404
				c-0.024-17.774-0.291-31.791-0.241-60.277c0.32-5.904,0.75-10.481,1.451-11.764c0.46,22.832-0.386,47.321,0,69.103
				c0.055,3.125,0.228,4.398,0.242,7.355c0.088,18.205-0.214,27.342-0.363,39.688c-0.289,23.928-0.036,49.609-0.242,73.514
				c-0.046,5.268-0.611,10.468-0.121,16.167c0.323-12.983,0.458-27.311,0.242-36.75c0.417-13.474,0.563-36.67,0.605-52.931
				c1.007-32.227,0.244-56.377,0.725-95.554c0.642-1.99,0.519-6.71,0.604-13.237c0.724,0.464,1.005-4.426,1.088-11.754
				c-0.181-4.088-0.495,2.551-0.605-1.479c0.219-4.212,0.456-8.175,0.968-8.824c-0.001,3.909,0.045,8.396-0.122,10.303
				c0.576-1.354,0.521-10.343,1.21-10.303c0.314,29.252,1.435,55.059,1.087,83.804c-0.332,3.811-0.818,5.726-1.087,10.294
				c0.505,3.081,0.794-7.529,1.329-8.816c0.381,8.603,0.375,21.906,0.847,29.399c-0.181,1.732-0.541,1.27-0.483,5.882
				c-0.294,27.543,0.37,46.092,0.603,67.624c0.095,8.75,0.122,17.274,0.118,25.771c-0.02,8.682-0.039,17.336-0.059,26.169
				c15.635,0.039,30.763,0.047,47.679-0.184c2.342,0.091-0.338,0.593,4.399,0.484c21.754,0.179,52.823-0.313,64.694,1.45
				c9.243-0.115,11.603,0.336,17.64,0.484c2.743-0.097,5.388-0.201,8.816-0.242c3.206,0.466,13.108,0.15,20.588,0.242
				c8.335,0.102,14.96,0.682,23.527,0.847c14.907,0.284,21.069-0.102,27.926-0.363c8.459-0.322,21.051-0.433,26.465-1.21
				c-2.511-0.195-5.209-0.378-7.355-0.604c-9.6,0.455-20.624,1.37-33.803,1.33c-8.299-0.025-13.508-0.774-22.066-0.484v-0.361
				c-45.148,0.476-66.457-2.666-110.26-2.298c-11.358-0.556-21.915-1.181-30.864-1.936c15.348,0.134,20.455-0.575,35.281-0.483
				c37.449-1.762,88.425-0.372,130.848-0.967c31.559,0.596,58.665-0.262,89.672-0.363c4.435,0.684,19.101,0.525,29.404,0.726
				c3.001-0.075,0.418-0.61,5.886-0.484c22.115,0.091,23.776,2.017,39.689,2.42c2.858,0.071,7.934-0.134,11.772-0.122
				c5.503,0.017,16.135,0.285,20.571,0.242c16.046-0.155,31.011-0.981,48.518-0.968c25.054,0.075,53.425,0.16,80.86,0.242
				c22.414,0.784,56.591-0.1,85.265,0.605c22.359-0.791,58.496,0.313,79.396-1.089c3.864-0.036,1.157,0.468,5.877,0.362
				c12.681-0.597,27.053-0.336,35.29-1.33c3.411-0.038,5.637,0.019,7.352,0.121c1.283-0.045,2.568-0.091,3.857-0.136
				c1.096-0.047,2.194-0.094,3.296-0.141c2.12-0.096,4.252-0.192,6.399-0.289c-0.142-3.168-0.283-6.361-0.427-9.587
				c-0.035-0.851-0.07-1.702-0.106-2.558c-0.035-1.085-0.069-2.173-0.104-3.265c-0.068-2.183-0.138-4.378-0.207-6.586
				c-0.271-8.834-0.521-17.882-0.724-27.223c-0.404-18.683-0.615-38.538-0.405-60.193c1.199-16.296,2.517-31.132,3.627-48.519
				c1.481-14.332,3.1-27.004,3.749-51.447c-0.751-26.323-2.738-44.899-4.111-58.808c-0.192-9.782-0.997-13.651-1.451-16.171
				c-0.618-22.77-1.066-41.345-1.33-64.689c-0.529-46.799,2.822-75.125,2.418-120.549c0.121-1.968,0.326-2.885,0.363-5.886
				c-0.754-2.751,0.573-18.05-0.605-20.579c-0.789,7.658-1.308,24.426-1.208,38.22c-0.691,4.63-0.295,12.823-0.484,20.588
				c-0.235,9.742-1.077,18.282-1.331,26.465c-0.072,2.36,0.146,4.978,0.122,5.877c-0.168,6.554-0.675,11.915-0.726,20.588
				c-0.112,19.354,0.106,25.308,0.363,42.627c0.519,35.085,0.919,70.549,3.386,82.321c-0.022,13.157,1.723,17.173,2.297,27.948
				c0.13,14.854,0.498,11.808,0.363,26.456c-2.715,29.244-6.198,49.138-8.103,88.212c0.094,9.252,0.13,18.157-0.362,23.518
				c-1.837-41.675,0.439-123.351-1.572-169.068c-0.58,5.005-0.24,11.487-0.241,17.65c-0.012,33.847-0.167,71.181,0,111.729
				c0.1,24.105,1.268,46.809,1.088,73.51c-0.105,15.602-0.551,27.739-0.483,45.575c-0.095,0.312-0.121,1.465-0.171,2.331
				c-0.013,0.278-0.026,0.254-0.043,0.325c-0.017,0.052-0.036,0.092-0.061,0.113c-0.048,0.046-0.114,0.019-0.209-0.111
				c0.057,1.562-0.033,3.077-0.186,4.312c-1.184-0.115-2.287-0.268-3.263-0.417l-0.712-0.111l-0.34-0.054l-0.084-0.014
				c-0.021-0.002-0.009-0.004-0.06-0.007l-0.165-0.006l-0.659-0.026c-1.757-0.062-3.507-0.124-5.254-0.186
				c-6.991-0.212-13.946-0.262-21.134,0.159C738.335,508.277,741.933,508.287,738.98,508.041z M719.576,22.648
				c-1.844-0.029-1.479-0.241,0-0.242c-0.236-0.142-2.672-0.102-4.399-0.121c0.388-0.249,5.468-0.114,5.878-0.363
				c-2.36-0.209-5.508-0.355-8.825-0.484C720.467,20.949,725.881,22.242,719.576,22.648z M625.487,18.9
				c-1.362-1.155,18.985-1.332,23.526-1.208c4.591,0.124,12.343,0.684,7.355,1.089C650.83,19.228,634.151,18.399,625.487,18.9z
				 M584.329,20.472c0.472,0.281-0.236,0.465-1.479,0.605c-8.121-0.562-26.505-0.255-32.333-1.209
				C564.613,20.005,568.47,20.379,584.329,20.472z M537.285,18.537c1.068,0.33-2.921,0.244-2.952,0.484
				c-1.938-0.242-6.372-0.281-7.333-0.605C532.093,18.319,532.646,18.596,537.285,18.537z M532.877,21.439
				c-16.607-0.372-35.281-0.82-54.413-0.725c-16.479,0.081-32.28,1.073-45.562,0.725c14.666-0.729,37.818-0.758,49.982-1.692
				c14.443,0.251,31.772,0.835,42.637,0.362C526.71,20.655,533.558,20.737,532.877,21.439z M522.583,18.416v0.364
				c-6.113,0.109-17.178,0.304-17.649-0.364C512.218,18.146,515.022,18.247,522.583,18.416z M503.473,18.053
				c-1.148,0.109-1.585,0.274-1.478,0.484C495.503,18.608,496.928,17.885,503.473,18.053z M501.995,15.635
				c-1.857-0.411-7.191-0.05-10.294-0.121c-6.007-0.136-9.627-0.655-14.693-0.726c-9.332-0.131-12.97,0.567-24.987,0.484
				c-3.775,0.011-2.368,0.449-4.417,0.604c-55.566,0.917-106.431,1.315-170.545,0.122c2.618-1.219,21.46-0.734,19.119-2.54
				c34.765-0.452,60.855,0.507,89.681-0.726c20.09-0.015,36.635,0.546,60.277,0.605C470.484,13.398,494.595,13.493,501.995,15.635z
				 M399.09,12.128c-4.809,0.032-4.257-0.376-7.355-0.484c-9.671,0.071-14.159-0.286-20.579-0.483
				c-15.392-0.259-46.777,0.619-57.338-0.364c9.296,0.256,15.111-0.925,24.987-0.603c13.464-1.568,27.614-2.185,57.347-1.572
				c6.327,0.13,12.858,0.701,19.11,0.846c11.647,0.268,23.49-0.203,29.399,0.483C440.792,11.609,409.526,11.013,399.09,12.128z
				 M428.494,21.56c-3.349,0.346-5.682,0.071-11.772,0.243C417.221,21.235,424.87,21.535,428.494,21.56z M209.435,22.407
				c-19.72,0.041-38.808,0.456-60.277,0.242c-19.911-0.198-30.597-0.975-55.86-0.846c-7.4,0.038-12.2,0.483-23.527,0.604
				c-12.671,0.134-24.845-0.352-33.812,0.483c-4.514-0.083-8.977-0.166-13.316-0.247c-0.048,3.426-0.066,6.854-0.017,10.153
				c0.044,1.812,0.087,3.592,0.129,5.337c0.062,1.911,0.147,3.781,0.257,5.606c-0.182-0.705-0.361-1.915-0.537-3.49
				c-0.079-0.789-0.167-1.668-0.261-2.619c-0.08-0.926-0.165-1.923-0.255-2.974c-0.337-3.784-0.658-8.67-0.96-13.659
				c2.759-0.186,5.435-0.366,7.815-0.526c31.51,0.029,62.507,0.057,92.683,0.084c30.242,0.104,59.659,0.442,87.939,1.488V22.407z
				 M23.253,124.608c0.174,0.316,0.042,4.377,0.242,4.395c-0.417,14.982,0.171,27.009,0.241,38.229
				c0.034,5.343-0.321,10.721-0.362,17.64c-0.055,9.226,0.617,21.327-0.242,24.996c0.523,8.575-0.087,24.301,0.484,33.812
				c-0.601-0.445-1.083-14.982-1.693-5.873c0.243,3.896,0.812,3.842,1.088,7.342c0.03,9.199-0.195,15.271-0.847,16.18
				c-0.866-12.315-1.046-48.763-0.484-64.694c-0.401-10.869-0.057-19.725,0.122-30.874c-0.259-0.694-0.231,2.102-0.243,4.408
				c-0.573-13.647,1.332-28.006,1.088-42.637C22.722,125,23.222,127.654,23.253,124.608z M22.77,265.729
				c-0.07,3.063-0.255,4.759-0.363,7.355c-0.35-0.65-0.551-3.099-0.604-7.355C22.056,261.623,22.421,263.591,22.77,265.729z
				 M28.211,342.177c0.055,21.167,0.319,42.823,0.483,63.22c0.235,29.234-0.24,67.548,0.484,97.032
				c-0.055,2.852-0.112,3.204-0.163,4.593c-0.05,1.246-0.094,2.646-0.12,4.083c2.119,0.04,4.403,0.04,6.353-0.036
				c4.7-0.075,8.74-0.227,11.285-0.488c22.432,0.235,44.4-0.514,64.685-0.847c27.462,0.354,57.624-0.517,88.216,0.121
				c6.897,0.144,12.053,0.693,19.105,0.846c6.126,0.133,13.625-0.019,20.588,0.121c10.027,0.202,19.698,0.8,29.404,0.968
				c4.453,0.077,10.348-0.092,14.702,0c2.894,0.062,4.71,0.396,7.347,0.484c8.166,0.271,18.184,0.062,24.987,0.483
				c24.168-0.333,46.011-0.196,74.983-0.483c-12.988,0.665-27.075,1.238-30.869,2.66c-14.604,0.026-28.282,0.209-42.637,0
				c-10.347-0.152-13.887-0.352-30.882-0.242c-7.667,0.05-14.92,0.336-22.048,0.362c-19.052,0.073-38.665-0.362-57.33-0.362
				c-15.939-0.002-31.835,0.494-44.115-0.121c-25.61,0.312-57.276-0.525-79.378,0.604c-9.074-0.243-18.429-0.192-27.453-0.075
				c-8.505,0.112-16.7,0.221-24.006,0.316c-1.995-0.234-4.146-0.487-6.488-0.763c0.194-2.185,0.4-4.508,0.619-6.976
				c0.044-0.569,0.09-1.146,0.136-1.731c0.021-0.286,0.043-0.575,0.064-0.865l0.031-0.505l0.03-0.732
				c0.07-1.96,0.142-3.977,0.216-6.05c0.253-8.294,0.355-17.505,0.195-27.708c-0.332-21.176-2.292-33.589-2.902-49.982
				c0.481-8.941-0.186-15.473-0.12-24.992c0.099-14.35,0.943-30.646,0.484-51.466c1.255,2.886,2.199,2.858,3.143,7.355
				C27.639,348.944,27.648,342.203,28.211,342.177z M400.841,512.273c0.472-0.285,2.333-0.455,1.47-0.848
				c7.711,0.458,16.91-0.256,23.518-0.604c21.933-0.132,38.611-0.694,60.286-0.845c4.541,0.148,7.587,0.422,11.763,0.604
				c15.026,0.082,30.001,0.164,44.105,0.241c15.281,0.047,31.221-0.259,45.575-0.241c15.94,0.02,32.125,0.943,45.575,0.12
				c15.896,0.174,37.899,0.896,51.452,0.484c13.233,0.649,35.549,0.424,52.931,0.967c7.967-0.108,15.239-0.286,22.194-0.479
				c1.716-0.05,3.413-0.099,5.096-0.147c0.74-0.05,1.475-0.1,2.206-0.148c1.368-0.094,2.724-0.187,4.085-0.28
				c-0.082-1.581-0.164-3.17-0.248-4.795c-0.065-0.499-0.11-5.721-0.125-9.555c-0.03-8.178,0.059-16.96,0.34-26.873
				c0.36,6.545,0.406,14.809,0.475,22.634c0.034,3.912,0.075,7.715,0.163,11.139c0.012,0.398,0.023,0.792,0.035,1.179
				c0.014,0.192,0.027,0.381,0.04,0.566c0.034,0.378,0.066,0.744,0.098,1.095c0.074,0.713,0.164,1.392,0.277,2.03
				c-0.035,1.216-0.035,2.416-0.011,3.624c-1.32,0.028-2.597,0.089-3.869,0.167c-1.404,0.096-2.768,0.188-4.077,0.276
				c-4.923,0.201-9.452,0.417-13.45,0.535c-8.384,0.248-19.088,0.235-27.939,0.484c-10.806,0.303-16.865,0.806-33.812,0.846
				c-6.723,0-13.099,0-20.579,0c-15.583,0.034-32.992-0.665-45.575-0.604c-3.419,0.017-6.928,0.263-10.294,0.242
				c-7.952-0.049-17.613-0.588-26.465-0.604c-1.35-0.004-5.908,0.258-7.355,0.24c-4.363-0.051-9.039-0.398-13.215-0.482
				c-28.326-0.576-66.546-0.304-101.444-0.483c-7.106-0.037-13.571-0.282-20.588-0.242c-4.711,0.026-9.885,0.275-14.702,0.242
				C419.073,512.69,410.841,511.931,400.841,512.273z M744.854,508.767c4.025,0.01,2.965-0.202,5.891,0
				C751.906,509.231,743.705,509.231,744.854,508.767z"/>
			<path fill-rule="evenodd" d="M9.952,49.616C9.88,46.562,9.698,44.87,9.589,42.27c0.08-1.355,0.109-3.011,0.111-4.836
				c-0.017-2.601-0.035-5.444-0.054-8.34c-0.061-6.828-0.144-14.016-0.07-19.517c2.867,0.038,5.354,0.114,7.248,0.253
				c-2.535,0.011-5.025,0.022-6.963,0.031c0.037,13.086,0.069,24.795,0.102,36.336C9.959,54.519,9.956,62.72,9.952,71.674
				C9.719,70.088,9.654,64.643,9.68,59.56c0.013-2.542,0.049-4.993,0.097-6.826S9.887,49.686,9.952,49.616z"/>
			<path fill-rule="evenodd" d="M9.589,86.367c0.031-5.263-0.363-5.378-0.363-10.285c0.404,1.95,0.422,8.593,0.847,10.285
				C10.044,90.16,9.864,84.354,9.589,86.367z"/>
			<path fill-rule="evenodd" d="M786.42,503.672c-0.618-7.173-0.297-25.784-0.725-35.276
				C786.369,477.941,786.05,492.475,786.42,503.672z"/>
		</g>
	</g>
</g>
<g id="Ebene_2">
	<path d="M0,330.984c59.24,56.777,139.621,91.672,228.156,91.672c46.277,0,90.319-9.549,130.287-26.756
		c35.38,68.982,107.211,116.188,190.067,116.188c117.898,0,213.475-95.576,213.475-213.475
		c0-114.769-90.572-208.326-204.137-213.216C557.187,55.786,552.6,27,544.626,0H0V330.984z"/>
</g>
</svg>
