<?xml version="1.0" encoding="utf-8"?>
<!-- Generator: Adobe Illustrator 16.0.0, SVG Export Plug-In . SVG Version: 6.00 Build 0)  -->
<svg version="1.2" baseProfile="tiny" id="Ebene_1" xmlns="http://www.w3.org/2000/svg" xmlns:xlink="http://www.w3.org/1999/xlink"
	 x="0px" y="0px" width="800px" height="540px" viewBox="0 0 800 540" xml:space="preserve">
<g>
	<polygon points="0,112.291 64.831,0 0,0 	"/>
	<polygon points="160.256,0 86.913,0 0,150.537 0,277.573 	"/>
	<polygon points="255.683,0 182.339,0 0,315.82 0,442.857 	"/>
	<polygon points="277.764,0 0,481.103 0,540 39.341,540 351.109,0 	"/>
	<polygon points="446.535,0 373.191,0 61.422,540 134.767,540 	"/>
	<polygon points="541.96,0 468.617,0 156.848,540 230.192,540 	"/>
	<polygon points="637.388,0 564.043,0 252.273,540 325.619,540 	"/>
	<polygon points="732.812,0 659.469,0 347.699,540 421.044,540 	"/>
	<polygon points="800,48.911 800,0 754.895,0 443.126,540 516.47,540 	"/>
	<polygon points="800,214.194 800,87.158 538.552,540 611.896,540 	"/>
	<polygon points="800,379.479 800,252.439 633.977,540 707.323,540 	"/>
	<polygon points="800,417.723 729.403,540 800,540 	"/>
</g>
</svg>
