<?xml version="1.0" encoding="utf-8"?>
<!-- Generator: Adobe Illustrator 16.0.0, SVG Export Plug-In . SVG Version: 6.00 Build 0)  -->
<svg version="1.2" baseProfile="tiny" id="Ebene_1" xmlns="http://www.w3.org/2000/svg" xmlns:xlink="http://www.w3.org/1999/xlink"
	 x="0px" y="0px" width="800px" height="540px" viewBox="0 0 800 540" xml:space="preserve">
<g>
	<polygon points="0,427.709 64.831,540 0,540 	"/>
	<polygon points="160.256,540 86.913,540 0,389.463 0,262.427 	"/>
	<polygon points="255.683,540 182.339,540 0,224.18 0,97.143 	"/>
	<polygon points="277.764,540 0,58.897 0,0 39.341,0 351.109,540 	"/>
	<polygon points="446.535,540 373.191,540 61.422,0 134.767,0 	"/>
	<polygon points="541.96,540 468.617,540 156.848,0 230.192,0 	"/>
	<polygon points="637.388,540 564.043,540 252.273,0 325.619,0 	"/>
	<polygon points="732.812,540 659.469,540 347.699,0 421.044,0 	"/>
	<polygon points="800,491.09 800,540 754.895,540 443.126,0 516.47,0 	"/>
	<polygon points="800,325.807 800,452.842 538.552,0 611.896,0 	"/>
	<polygon points="800,160.521 800,287.561 633.977,0 707.323,0 	"/>
	<polygon points="800,122.277 729.403,0 800,0 	"/>
</g>
</svg>
