<?xml version="1.0" encoding="utf-8"?>

<svg version="1.2" baseProfile="tiny" id="Ebene_1" xmlns="http://www.w3.org/2000/svg" xmlns:xlink="http://www.w3.org/1999/xlink"
	 x="0px" y="0px" width="800px" height="540px" viewBox="0 0 800 540" xml:space="preserve">
<polyline points="207.373,477.583 158.387,466.299 141.766,477.671 108.868,473.798 82.284,488.168 49.043,473.297 38.556,500.623 
	19.978,484.709 0,490 0,0 800,0 800,490 772.023,483.904 742.617,501.29 706.803,483.713 695.457,494.292 687.596,483.713 
	677.422,464.357 672.734,474.172 605.381,490.793 568.643,475.921 554.646,483.713 523.156,474.172 492.541,483.713 
	455.801,470.655 391.944,483.81 362.203,478.739 337.15,478.739 328.962,484.111 309.289,475.256 280.852,483.763 257.565,471.967 
	"/>
</svg>
