<?xml version="1.0" encoding="utf-8"?>
<!-- Generator: Adobe Illustrator 16.0.0, SVG Export Plug-In . SVG Version: 6.00 Build 0)  -->
<svg version="1.2" baseProfile="tiny" id="Ebene_1" xmlns="http://www.w3.org/2000/svg" xmlns:xlink="http://www.w3.org/1999/xlink"
	 x="0px" y="0px" width="800px" height="540px" viewBox="0 0 800 540" xml:space="preserve">
<polyline points="257.565,68.033 280.852,56.237 309.289,64.744 328.962,55.889 337.15,61.261 362.203,61.261 391.944,56.19 
	455.801,69.345 492.541,56.287 523.156,65.828 554.646,56.287 568.643,64.079 605.381,49.207 672.734,65.828 677.422,75.643 
	687.596,56.287 695.457,45.708 706.803,56.287 742.617,38.71 772.023,56.096 800,50 800,540 0,540 0,50 19.978,55.291 
	38.556,39.377 49.043,66.703 82.284,51.832 108.868,66.202 141.766,62.329 158.387,73.701 207.373,62.417 "/>
</svg>
