<?xml version="1.0" encoding="utf-8"?>

<svg version="1.2" baseProfile="tiny" id="Ebene_1" xmlns="http://www.w3.org/2000/svg" xmlns:xlink="http://www.w3.org/1999/xlink"
	 x="0px" y="0px" width="800px" height="540px" viewBox="0 0 800 540" xml:space="preserve">
<polygon points="772.023,47.409 742.617,30.023 706.803,47.601 695.457,37.021 687.596,47.601 677.422,66.956 672.734,57.142 
	605.381,40.521 568.643,55.393 554.646,47.601 523.156,57.142 492.541,47.601 455.801,60.658 391.944,47.717 362.203,53 337.15,53 
	328.962,47.415 309.289,56.164 280.852,47.604 257.565,59.373 207.373,53.744 158.387,65.021 141.766,53.646 108.868,57.517 
	82.284,43.146 49.043,58.017 38.556,30.69 19.978,46.604 0,41.313 0,268.89 0,271.11 0,498.687 27.977,492.591 57.383,509.977 
	93.197,492.399 104.543,502.979 112.404,492.399 122.578,473.044 127.266,482.858 194.619,499.479 231.357,484.607 245.354,492.399 
	276.844,482.858 307.459,492.399 344.199,479.342 408.057,492.283 437.797,487 462.851,487 471.038,492.585 490.711,483.836 
	519.148,492.396 542.435,480.627 592.627,486.256 641.613,474.979 658.234,486.354 691.132,482.482 717.717,496.854 
	750.957,481.983 761.444,509.31 780.022,493.396 800,498.687 800,271.11 800,268.89 800,41.313 "/>
</svg>
