<?xml version="1.0" encoding="utf-8"?>
<!-- Generator: Adobe Illustrator 16.0.0, SVG Export Plug-In . SVG Version: 6.00 Build 0)  -->
<svg version="1.2" baseProfile="tiny" id="Ebene_1" xmlns="http://www.w3.org/2000/svg" xmlns:xlink="http://www.w3.org/1999/xlink"
	 x="0px" y="0px" width="500px" height="500px" viewBox="0 0 500 500" xml:space="preserve">
<path d="M401.999,499.992c0-54.118,43.874-97.993,98.001-97.993v-82.664c-34.463-0.43-112.581-9.819-200.128-76.282
	c32.104-42.29,53.245-83.125,67.08-119.735c32.978,35.563,80.076,57.844,132.401,57.844c0.215,0,0.428-0.016,0.646-0.016V98.602
	c-0.219,0-0.432,0.016-0.646,0.016c-54.127,0-98.002-43.879-98.002-98.005c0-0.2,0.016-0.404,0.016-0.612h-82.809
	c-0.959,34.094-11.285,110.242-76.022,196.414c-41.662-31.369-81.876-52.136-117.979-65.789
	C159.029,97.751,180.545,51.402,180.545,0H97.998c0,54.118-43.874,97.998-97.998,97.998v82.547c5.214,0,10.366-0.27,15.469-0.704
	c38.242,3.39,105.457,18.121,180.457,73.947c-32.395,42.637-53.529,83.902-67.202,120.951C96.062,341.177,50.486,320.267,0,320.087
	v82.547c53.618,0.352,97.005,43.74,97.334,97.366h82.55c-0.023-5.86-0.316-11.652-0.884-17.37
	c3.173-39.165,17.78-107.151,74.284-182.288c43.258,33.141,85.146,54.665,122.69,68.519c-34.787,32.908-56.524,79.47-56.524,131.133
	c0,0,0,0,0,0.008h82.549C401.999,499.992,401.999,499.992,401.999,499.992z"/>
</svg>
